<svg xmlns="http://www.w3.org/2000/svg" viewBox="0 0 36.84 42.15"><defs><style>.cls-1{fill:#1d1d1b;}</style></defs><g id="Warstwa_2" data-name="Warstwa 2"><g id="Layer_1" data-name="Layer 1"><path class="cls-1" d="M5.32,38.85,4.27,42.09h-1l-.62-2-.64,2h-1L0,38.85H.94l.65,2.07.69-2.07h.84l.65,2.09.68-2.09Z"/><path class="cls-1" d="M7.32,40.93v1.16H6.41V40.91L5.17,38.85h1l.77,1.29.76-1.29h.89Z"/><path class="cls-1" d="M11,39a1.21,1.21,0,0,1,.5.42,1.19,1.19,0,0,1,.17.63,1.16,1.16,0,0,1-.17.63,1.21,1.21,0,0,1-.5.42,2,2,0,0,1-.76.14H9.69v.85H8.78V38.85h1.48A1.81,1.81,0,0,1,11,39Zm-.39,1.4a.51.51,0,0,0,0-.7.67.67,0,0,0-.43-.13H9.69v1h.51A.67.67,0,0,0,10.63,40.4Z"/><path class="cls-1" d="M12.89,41.94a1.63,1.63,0,0,1-.64-.61,1.72,1.72,0,0,1,0-1.72,1.54,1.54,0,0,1,.64-.6,2,2,0,0,1,1.84,0,1.57,1.57,0,0,1,.65.6,1.66,1.66,0,0,1-.65,2.33,2.12,2.12,0,0,1-1.84,0Zm1.37-.66a.9.9,0,0,0,.31-.33,1,1,0,0,0,0-1,.9.9,0,0,0-.31-.33,1,1,0,0,0-.45-.11.83.83,0,0,0-.76.44,1.1,1.1,0,0,0,0,1,.92.92,0,0,0,.32.33.83.83,0,0,0,.44.12A.87.87,0,0,0,14.26,41.28Z"/><path class="cls-1" d="M16.46,42.06a2.4,2.4,0,0,1-.6-.26l.3-.68a1.69,1.69,0,0,0,.51.23,1.87,1.87,0,0,0,.56.09c.35,0,.53-.09.53-.26a.23.23,0,0,0-.15-.21,3.2,3.2,0,0,0-.49-.14,4.68,4.68,0,0,1-.61-.17,1,1,0,0,1-.42-.29.8.8,0,0,1-.17-.53.93.93,0,0,1,.16-.54,1.15,1.15,0,0,1,.48-.37,2.07,2.07,0,0,1,.79-.14,2.7,2.7,0,0,1,.63.07,1.9,1.9,0,0,1,.54.21l-.28.68a1.82,1.82,0,0,0-.89-.25.77.77,0,0,0-.4.08.27.27,0,0,0-.13.21A.22.22,0,0,0,17,40a3.68,3.68,0,0,0,.48.13,4.27,4.27,0,0,1,.61.17,1,1,0,0,1,.42.29.74.74,0,0,1,.18.53,1,1,0,0,1-.16.53A1.12,1.12,0,0,1,18,42a1.84,1.84,0,0,1-.78.14A3.25,3.25,0,0,1,16.46,42.06Z"/><path class="cls-1" d="M21.25,41.46H19.88l-.26.63h-.93l1.43-3.24H21l1.43,3.24H21.5ZM21,40.79l-.42-1-.41,1Z"/><path class="cls-1" d="M25.44,41.36v.73H22.55v-.57l1.63-1.94H22.59v-.73h2.79v.58l-1.64,1.93Zm-1.77-2.89a.43.43,0,0,1-.13-.33.41.41,0,0,1,.13-.32.46.46,0,0,1,.79.32.47.47,0,0,1-.13.33.44.44,0,0,1-.33.13A.42.42,0,0,1,23.67,38.47Z"/><path class="cls-1" d="M28.44,41.38v.71H25.85V38.85h2.53v.71H26.75v.55h1.44v.68H26.75v.59Z"/><path class="cls-1" d="M32,38.85v3.24h-.76l-1.42-1.73v1.73H29V38.85h.75l1.43,1.73V38.85Z"/><path class="cls-1" d="M32.67,38.85h.92v3.24h-.92Z"/><path class="cls-1" d="M36.84,41.38v.71h-2.6V38.85h2.54v.71H35.15v.55h1.43v.68H35.15v.59Z"/><polygon class="cls-1" points="34.92 20.33 28.16 20.33 28.16 18.79 33.38 18.79 33.38 15.39 31.79 9.26 5.31 9.26 3.21 15.42 3.21 18.79 8.7 18.79 8.7 20.33 1.68 20.33 1.68 15.17 4.2 7.72 32.98 7.72 34.92 15.2 34.92 20.33"/><path class="cls-1" d="M12.71,22.82h-5V16.74h5ZM9.28,21.28h1.89v-3H9.28Z"/><path class="cls-1" d="M28.86,22.82h-5V16.74h5Zm-3.43-1.54h1.89v-3H25.43Z"/><polygon class="cls-1" points="25.91 6.23 24.21 1.54 12.38 1.54 10.69 6.23 9.24 5.71 11.3 0 25.3 0 27.36 5.71 25.91 6.23"/><polygon class="cls-1" points="13.95 6.22 12.49 5.72 13.61 2.47 22.91 2.47 24.03 5.72 22.58 6.22 21.82 4.01 14.71 4.01 13.95 6.22"/><polygon class="cls-1" points="31.09 33.95 22.59 33.95 21.63 31.69 14.97 31.69 14.01 33.95 5.51 33.95 3.01 19.59 4.53 19.33 6.8 32.41 12.99 32.41 13.95 30.15 22.65 30.15 23.61 32.41 29.8 32.41 32.07 19.33 33.59 19.59 31.09 33.95"/><rect class="cls-1" x="11.35" y="18.79" width="13.9" height="1.54"/><rect class="cls-1" x="2.29" y="14.53" width="32.01" height="1.54"/><polygon class="cls-1" points="15.33 9.26 13.79 9.26 13.79 6.52 9.25 6.52 9.25 9.26 7.71 9.26 7.71 4.98 15.33 4.98 15.33 9.26"/><polygon class="cls-1" points="28.89 9.26 27.35 9.26 27.35 6.52 22.81 6.52 22.81 9.26 21.27 9.26 21.27 4.98 28.89 4.98 28.89 9.26"/></g></g></svg>