<svg xmlns="http://www.w3.org/2000/svg" witdh='179' height='105' viewBox="0 0 34.38 47.31"><defs><style>.cls-1{fill:#1d1d1b;}</style></defs><g id="Warstwa_2" data-name="Warstwa 2"><g id="Layer_1" data-name="Layer 1"><path class="cls-1" d="M26.52,33.94H23.38l-4.46-4.46V26h1.22l-1.22-1.46V20.3h1.22l-1.22-1.46V15h1.63V13.62L18.92,12V0H31V12l-1.63,1.63V15H31v3.84L29.76,20.3H31v4.19L29.76,26H31v3.53ZM24,32.4h1.87l3.55-3.55V27.49h-3l3-3.56V21.84h-3l3-3.56V16.54H27.81V13l1.63-1.63V1.54h-9v9.81L22.09,13v3.56H20.46v1.74l3,3.56h-3v2.09l3,3.56h-3v1.36Z"/><rect class="cls-1" x="24.16" y="9.27" width="1.54" height="24.36"/><path class="cls-1" d="M8.8,34.58,5.68,29.49V6.41L1.77,0H8.11V1.67H9.48V0h6.34L11.91,6.41V29.49ZM7.22,29.06,8.8,31.63l1.57-2.57V6l2.71-4.44H11V3.21H6.57V1.54H4.52L7.22,6Z"/><rect class="cls-1" x="4.3" y="25.98" width="8.99" height="1.54" transform="translate(-6.46 3.08) rotate(-14.6)"/><rect class="cls-1" x="4.3" y="22.35" width="8.99" height="1.54" transform="translate(-5.54 2.96) rotate(-14.6)"/><rect class="cls-1" x="4.3" y="18.72" width="8.99" height="1.54" transform="translate(-4.63 2.85) rotate(-14.6)"/><rect class="cls-1" x="4.3" y="15.09" width="8.99" height="1.54" transform="translate(-3.71 2.73) rotate(-14.6)"/><rect class="cls-1" x="4.3" y="11.46" width="8.99" height="1.54" transform="translate(-2.8 2.61) rotate(-14.6)"/><path class="cls-1" d="M6.65,42.05a1.86,1.86,0,0,1-.6-.26l.3-.68a1.79,1.79,0,0,0,.5.24,2.23,2.23,0,0,0,.56.08c.36,0,.53-.08.53-.26A.23.23,0,0,0,7.79,41a3.37,3.37,0,0,0-.48-.14,4,4,0,0,1-.61-.16,1.1,1.1,0,0,1-.42-.29.78.78,0,0,1-.18-.54,1,1,0,0,1,.16-.53,1.06,1.06,0,0,1,.49-.38,2,2,0,0,1,.78-.14,3.2,3.2,0,0,1,.63.07,2.1,2.1,0,0,1,.55.21l-.28.68a2,2,0,0,0-.9-.25.83.83,0,0,0-.4.08.26.26,0,0,0-.12.21.21.21,0,0,0,.15.2,2.21,2.21,0,0,0,.47.13,3.92,3.92,0,0,1,.61.17,1,1,0,0,1,.42.29.76.76,0,0,1,.18.53.9.9,0,0,1-.16.53A1.15,1.15,0,0,1,8.2,42a1.89,1.89,0,0,1-.79.15A3.17,3.17,0,0,1,6.65,42.05Z"/><path class="cls-1" d="M10.93,40.92v1.16H10V40.91L8.78,38.85h1l.77,1.28.77-1.28h.88Z"/><path class="cls-1" d="M12.7,42.05a1.86,1.86,0,0,1-.6-.26l.3-.68a1.79,1.79,0,0,0,.5.24,2.24,2.24,0,0,0,.57.08c.35,0,.52-.08.52-.26a.23.23,0,0,0-.15-.21,3.37,3.37,0,0,0-.48-.14,4.39,4.39,0,0,1-.61-.16,1.1,1.1,0,0,1-.42-.29.78.78,0,0,1-.18-.54.9.9,0,0,1,.17-.53,1,1,0,0,1,.48-.38,2,2,0,0,1,.79-.14,3.18,3.18,0,0,1,.62.07,2.1,2.1,0,0,1,.55.21l-.28.68a2,2,0,0,0-.9-.25.83.83,0,0,0-.4.08.26.26,0,0,0-.12.21.21.21,0,0,0,.15.2,2.41,2.41,0,0,0,.47.13,4.45,4.45,0,0,1,.62.17,1.1,1.1,0,0,1,.42.29.8.8,0,0,1,.17.53.9.9,0,0,1-.16.53,1.15,1.15,0,0,1-.48.37,1.89,1.89,0,0,1-.79.15A3.23,3.23,0,0,1,12.7,42.05Z"/><path class="cls-1" d="M16,39.57H15v-.72h2.9v.72h-1v2.51H16Z"/><path class="cls-1" d="M20.8,41.37v.71H18.2V38.85h2.54v.7H19.11v.55h1.43v.68H19.11v.59Z"/><path class="cls-1" d="M24.22,42.08V40.37l-.84,1.39H23l-.83-1.35v1.67h-.84V38.85h.75l1.13,1.86,1.11-1.86h.76v3.23Z"/><path class="cls-1" d="M27.44,40.92v1.16h-.91V40.91L25.3,38.85h1L27,40.13l.77-1.28h.88Z"/><path class="cls-1" d="M2.9,46.52v.72H0v-.57l1.63-1.93H0V44H2.83v.57L1.2,46.52Z"/><path class="cls-1" d="M5.46,46.62H4.1l-.26.62H2.91L4.34,44h.9l1.43,3.23h-1Zm-.26-.68-.42-1-.41,1Z"/><path class="cls-1" d="M9.85,47.24V45.53L9,46.92H8.6l-.83-1.34v1.66H6.93V44h.75l1.14,1.87L9.93,44h.75v3.23Z"/><path class="cls-1" d="M12.05,47.09a1.57,1.57,0,0,1-.65-.6,1.65,1.65,0,0,1-.23-.86,1.6,1.6,0,0,1,.88-1.47,2.12,2.12,0,0,1,1.84,0,1.68,1.68,0,0,1,.64.6,1.62,1.62,0,0,1,.23.87,1.56,1.56,0,0,1-.23.86,1.54,1.54,0,0,1-.64.6,2,2,0,0,1-1.84,0Zm1.36-.65a.82.82,0,0,0,.31-.33,1,1,0,0,0,.12-.48,1,1,0,0,0-.12-.49.8.8,0,0,0-.31-.32A.83.83,0,0,0,13,44.7a.85.85,0,0,0-.76.44,1,1,0,0,0-.12.49,1,1,0,0,0,.12.48.9.9,0,0,0,.31.33,1,1,0,0,0,.45.11A.93.93,0,0,0,13.41,46.44Z"/><path class="cls-1" d="M15.94,47.09a1.56,1.56,0,0,1-.63-.59,1.71,1.71,0,0,1-.23-.87,1.66,1.66,0,0,1,.23-.87,1.52,1.52,0,0,1,.63-.6,2,2,0,0,1,.92-.21,2.07,2.07,0,0,1,.8.15,1.75,1.75,0,0,1,.59.45l-.58.53a1,1,0,0,0-.77-.38.94.94,0,0,0-.47.12.8.8,0,0,0-.31.32,1,1,0,0,0-.12.49,1,1,0,0,0,.12.48.82.82,0,0,0,.31.33,1,1,0,0,0,.47.11,1,1,0,0,0,.77-.38l.58.53a1.53,1.53,0,0,1-.59.45,1.91,1.91,0,0,1-.8.16A1.87,1.87,0,0,1,15.94,47.09Z"/><path class="cls-1" d="M19.29,47.09a1.61,1.61,0,0,1-.64-.6,1.65,1.65,0,0,1-.23-.86,1.71,1.71,0,0,1,.23-.87,1.76,1.76,0,0,1,.64-.6,2.14,2.14,0,0,1,1.85,0,1.76,1.76,0,0,1,.64.6,1.71,1.71,0,0,1,.23.87,1.65,1.65,0,0,1-.23.86,1.61,1.61,0,0,1-.64.6,2.05,2.05,0,0,1-1.85,0Zm1.37-.65a.82.82,0,0,0,.31-.33,1,1,0,0,0,.12-.48,1,1,0,0,0-.12-.49.8.8,0,0,0-.31-.32.84.84,0,0,0-.45-.12.83.83,0,0,0-.44.12.8.8,0,0,0-.31.32,1,1,0,0,0-.12.49,1,1,0,0,0,.12.48.82.82,0,0,0,.31.33.93.93,0,0,0,.44.11A.94.94,0,0,0,20.66,46.44Z"/><path class="cls-1" d="M27.45,44l-1,3.23h-1l-.62-2-.65,2h-1L22.13,44h.94l.66,2.06L24.41,44h.84l.65,2.08L26.58,44Z"/><path class="cls-1" d="M29.84,46.62H28.47l-.25.62h-.94L28.71,44h.9L31,47.24h-.95Zm-.27-.68-.42-1-.41,1Z"/><path class="cls-1" d="M34.38,44v3.23h-.75L32.2,45.52v1.72h-.9V44h.76l1.42,1.72V44ZM33,43h.87l-.86.71h-.63Z"/></g></g></svg>