<svg xmlns="http://www.w3.org/2000/svg" viewBox="0 0 43.46 47.3"><defs><style>.cls-1{fill:#1d1d1b;}</style></defs><g id="Warstwa_2" data-name="Warstwa 2"><g id="Layer_1" data-name="Layer 1"><path class="cls-1" d="M21,17.66H17.55a3,3,0,0,1-3-2.95V13h7.33Zm-4.86-3.12v.17a1.42,1.42,0,0,0,1.42,1.41h2.18L20,14.54Z"/><path class="cls-1" d="M25.66,17.66H22.22L21.29,13h7.33v1.71A3,3,0,0,1,25.66,17.66Zm-2.17-1.54h2.17a1.42,1.42,0,0,0,1.42-1.41v-.17H23.17Z"/><path class="cls-1" d="M33.43,14.3H9.87l.62-4.15,1.26-.8c.15-6.28,3.8-8,5.39-8.44l1-.27V3h1.11V0h4.83V3h1.14V.64l1,.27c1.58.45,5.23,2.16,5.39,8.44l1.26.8ZM11.66,12.76h20l-.25-1.69L30,10.2V9.77c0-4.37-1.77-6.21-3.29-7V4.49H22.51V1.54H20.77v3h-4.2V2.78c-1.52.78-3.29,2.62-3.29,7v.43l-1.37.87Z"/><path class="cls-1" d="M21.65,26.65A6.88,6.88,0,0,1,17,24.78l-.61-.48a6.89,6.89,0,0,1-2.79-5.71V13.22h1.54v5.37a5.36,5.36,0,0,0,2.16,4.47l.66.51a5.12,5.12,0,0,0,7.32,0l.66-.51a5.36,5.36,0,0,0,2.17-4.47V13.22h1.54v5.37a6.89,6.89,0,0,1-2.79,5.71c-.21.15-.41.31-.62.48A6.84,6.84,0,0,1,21.65,26.65Z"/><rect class="cls-1" x="15.53" y="23.49" width="1.54" height="6.7"/><polygon class="cls-1" points="20.33 33.93 18.79 33.93 18.79 32.43 13.52 29.22 14.32 27.9 20.33 31.56 20.33 33.93"/><polygon class="cls-1" points="12.59 31.94 11.04 31.94 11.04 27.36 13.87 24.52 14.96 25.61 12.59 28 12.59 31.94"/><rect class="cls-1" x="26.24" y="23.49" width="1.54" height="6.7"/><polygon class="cls-1" points="24.51 33.93 22.97 33.93 22.97 31.56 28.98 27.9 29.78 29.22 24.51 32.43 24.51 33.93"/><polygon class="cls-1" points="32.26 31.94 30.72 31.94 30.72 28 28.34 25.61 29.43 24.52 32.26 27.36 32.26 31.94"/><path class="cls-1" d="M13.36,41.92a1.76,1.76,0,0,1-.64-.6,1.71,1.71,0,0,1-.23-.87,1.65,1.65,0,0,1,.23-.86,1.61,1.61,0,0,1,.64-.6,1.91,1.91,0,0,1,.93-.22,1.87,1.87,0,0,1,.92.22,1.61,1.61,0,0,1,.64.6,1.56,1.56,0,0,1,.23.86,1.62,1.62,0,0,1-.23.87,1.76,1.76,0,0,1-.64.6,2,2,0,0,1-.92.21A2,2,0,0,1,13.36,41.92Zm1.37-.66a.8.8,0,0,0,.31-.32,1,1,0,0,0,.12-.49A1,1,0,0,0,15,40a.82.82,0,0,0-.31-.33.93.93,0,0,0-.44-.11.94.94,0,0,0-.45.11.9.9,0,0,0-.31.33,1,1,0,0,0-.12.48,1,1,0,0,0,.12.49.87.87,0,0,0,.31.32.84.84,0,0,0,.45.12A.83.83,0,0,0,14.73,41.26Z"/><path class="cls-1" d="M16.56,38.84h1.53A2.13,2.13,0,0,1,19,39a1.48,1.48,0,0,1,.64.57,1.59,1.59,0,0,1,.23.85,1.62,1.62,0,0,1-.23.86,1.46,1.46,0,0,1-.64.56,2.13,2.13,0,0,1-.94.2H16.56Zm1.5,2.5a.91.91,0,0,0,.66-.24.82.82,0,0,0,.25-.65.85.85,0,0,0-.25-.65.9.9,0,0,0-.66-.23h-.58v1.77Z"/><path class="cls-1" d="M23.09,41.34v.73h-2.9V41.5l1.63-1.94H20.23v-.72H23v.57l-1.63,1.93Z"/><path class="cls-1" d="M23.49,38.84h.91v3.23h-.91Z"/><path class="cls-1" d="M27.65,41.36v.71h-2.6V38.84h2.54v.7H26v.55H27.4v.68H26v.59Z"/><path class="cls-1" d="M30.89,41.34v.73H28V41.5l1.63-1.94H28v-.72h2.78v.57l-1.63,1.93Zm-1.77-2.89a.42.42,0,0,1-.13-.33.41.41,0,0,1,.13-.32.43.43,0,0,1,.33-.13.44.44,0,0,1,.33.13.44.44,0,0,1,.12.32.43.43,0,0,1-.45.46A.42.42,0,0,1,29.12,38.45Z"/><path class="cls-1" d="M0,44H.91v3.23H0Z"/><path class="cls-1" d="M5.08,46.6H3.71l-.25.63H2.52L4,44h.9l1.43,3.23h-1Zm-.27-.67-.42-1-.41,1Z"/><path class="cls-1" d="M7.79,46.06l-.34.36v.81H6.54V44h.91v1.34L8.7,44h1L8.38,45.43l1.39,1.8H8.71Z"/><path class="cls-1" d="M10.6,47.08a1.61,1.61,0,0,1-.64-.6,1.74,1.74,0,0,1,0-1.73,1.61,1.61,0,0,1,.64-.6,1.94,1.94,0,0,1,.91-.22,2,2,0,0,1,.8.16,1.57,1.57,0,0,1,.59.45l-.58.53a1,1,0,0,0-.76-.38.91.91,0,0,0-.47.12.76.76,0,0,0-.32.32,1,1,0,0,0-.11.49,1,1,0,0,0,.11.48.76.76,0,0,0,.32.32.91.91,0,0,0,.47.12,1,1,0,0,0,.76-.38l.58.53a1.48,1.48,0,0,1-.59.45,2,2,0,0,1-.8.16A1.83,1.83,0,0,1,10.6,47.08Z"/><path class="cls-1" d="M15.91,46.53v.7h-2.6V44h2.53v.71H14.21v.54h1.44v.68H14.21v.6Z"/><path class="cls-1" d="M16.79,47.2a1.67,1.67,0,0,1-.6-.26l.3-.67a2.1,2.1,0,0,0,.5.23,1.87,1.87,0,0,0,.56.09c.36,0,.53-.09.53-.27a.21.21,0,0,0-.15-.2,2.41,2.41,0,0,0-.48-.14,5.48,5.48,0,0,1-.61-.17,1,1,0,0,1-.42-.29.77.77,0,0,1-.18-.54,1,1,0,0,1,.16-.53,1.13,1.13,0,0,1,.49-.38,2,2,0,0,1,.78-.14,2.59,2.59,0,0,1,.63.08,1.58,1.58,0,0,1,.55.21l-.28.68a1.86,1.86,0,0,0-.9-.25.73.73,0,0,0-.4.08.24.24,0,0,0-.12.21.21.21,0,0,0,.15.19,2.21,2.21,0,0,0,.47.13,5.48,5.48,0,0,1,.61.17,1,1,0,0,1,.42.29.76.76,0,0,1,.18.53.9.9,0,0,1-.16.53,1.13,1.13,0,0,1-.49.38,2,2,0,0,1-.78.14A3.17,3.17,0,0,1,16.79,47.2Z"/><path class="cls-1" d="M20.11,47.08a1.54,1.54,0,0,1-.64-.6,1.58,1.58,0,0,1-.23-.86,1.62,1.62,0,0,1,.23-.87,1.68,1.68,0,0,1,.64-.6,2,2,0,0,1,1.84,0,1.6,1.6,0,0,1,.88,1.47,1.68,1.68,0,0,1-.23.86,1.57,1.57,0,0,1-.65.6,2,2,0,0,1-1.84,0Zm1.37-.66a.8.8,0,0,0,.31-.32,1,1,0,0,0,.12-.48,1,1,0,0,0-.12-.49.8.8,0,0,0-.31-.32.87.87,0,0,0-.45-.12.83.83,0,0,0-.44.12.74.74,0,0,0-.31.32,1,1,0,0,0-.12.49,1,1,0,0,0,.12.48.74.74,0,0,0,.31.32.83.83,0,0,0,.44.12A.87.87,0,0,0,21.48,46.42Z"/><path class="cls-1" d="M24.72,46.37h-.5v.86h-.91V44h1.48a1.94,1.94,0,0,1,.76.14,1.15,1.15,0,0,1,.5.42,1.12,1.12,0,0,1,.18.64,1.14,1.14,0,0,1-.17.61,1.12,1.12,0,0,1-.47.41l.7,1h-1Zm.44-1.53a.67.67,0,0,0-.43-.12h-.51v1h.51a.61.61,0,0,0,.43-.13.43.43,0,0,0,.14-.34A.47.47,0,0,0,25.16,44.84Z"/><path class="cls-1" d="M26.73,44h.91v3.23h-.91Z"/><path class="cls-1" d="M30.46,46.6H29.09l-.25.63h-.93L29.33,44h.9l1.44,3.23h-1Zm-.27-.67-.41-1-.42,1Z"/><path class="cls-1" d="M36.19,45.85a.83.83,0,0,1,.16.5A.74.74,0,0,1,36,47a1.67,1.67,0,0,1-1,.23H33.27V44h1.65a1.66,1.66,0,0,1,.95.23.72.72,0,0,1,.32.61.82.82,0,0,1-.11.42.89.89,0,0,1-.32.29A.89.89,0,0,1,36.19,45.85Zm-2-1.19v.62h.62c.31,0,.47-.1.47-.31s-.16-.31-.47-.31Zm1.24,1.58c0-.21-.16-.32-.48-.32h-.76v.65h.76Q35.42,46.57,35.42,46.24Z"/><path class="cls-1" d="M39.9,44v3.23H39V46H37.74v1.26h-.92V44h.92v1.21H39V44Z"/><path class="cls-1" d="M42.79,44.14a1.13,1.13,0,0,1,.67,1.06,1.1,1.1,0,0,1-.67,1,1.82,1.82,0,0,1-.77.15h-.56v.84h-.91V44H42A2,2,0,0,1,42.79,44.14Zm-.4,1.4a.41.41,0,0,0,.15-.34.45.45,0,0,0-.15-.36.62.62,0,0,0-.42-.12h-.51v1H42A.57.57,0,0,0,42.39,45.54Z"/></g></g></svg>