<?xml version="1.0" encoding="utf-8"?>
<!-- Generator: Adobe Illustrator 26.1.0, SVG Export Plug-In . SVG Version: 6.00 Build 0)  -->
<svg version="1.1" id="Warstwa_1" xmlns="http://www.w3.org/2000/svg" xmlns:xlink="http://www.w3.org/1999/xlink" x="0px" y="0px"
	 viewBox="0 0 34.4 34.6" style="enable-background:new 0 0 34.4 34.6;" xml:space="preserve">
<style type="text/css">
	.st0{fill:#1D1D1B;}
</style>
<path class="st0" d="M26.5,33.9h-3.1l-4.5-4.5V26h1.2l-1.2-1.5v-4.2h1.2l-1.2-1.5V15h1.6v-1.4L18.9,12V0H31v12l-1.6,1.6V15H31v3.8
	l-1.2,1.5H31v4.2L29.8,26H31v3.5L26.5,33.9z M24,32.4h1.9l3.5-3.5v-1.4h-3l3-3.6v-2.1h-3l3-3.6v-1.7h-1.6V13l1.6-1.6V1.5h-9v9.8
	l1.7,1.6v3.6h-1.6v1.7l3,3.6h-3v2.1l3,3.6h-3v1.4L24,32.4z"/>
<rect x="24.2" y="9.3" class="st0" width="1.5" height="24.4"/>
<path class="st0" d="M8.8,34.6l-3.1-5.1V6.4L1.8,0h6.3v1.7h1.4V0h6.3l-3.9,6.4v23.1L8.8,34.6z M7.2,29.1l1.6,2.6l1.6-2.6V6l2.7-4.4
	H11v1.7H6.6V1.5H4.5L7.2,6V29.1z"/>
<rect x="4.3" y="26" transform="matrix(0.9677 -0.2521 0.2521 0.9677 -6.4587 3.0804)" class="st0" width="9" height="1.5"/>
<rect x="4.3" y="22.3" transform="matrix(0.9677 -0.2521 0.2521 0.9677 -5.5428 2.9644)" class="st0" width="9" height="1.5"/>
<rect x="4.3" y="18.7" transform="matrix(0.9677 -0.2521 0.2521 0.9677 -4.6298 2.8461)" class="st0" width="9" height="1.5"/>
<rect x="4.3" y="15.1" transform="matrix(0.9677 -0.2521 0.2521 0.9677 -3.7139 2.7301)" class="st0" width="9" height="1.5"/>
<rect x="4.3" y="11.5" transform="matrix(0.9677 -0.2521 0.2521 0.9677 -2.7984 2.6115)" class="st0" width="9" height="1.5"/>
</svg>
