<?xml version="1.0" encoding="utf-8"?>
<!-- Generator: Adobe Illustrator 26.1.0, SVG Export Plug-In . SVG Version: 6.00 Build 0)  -->
<svg version="1.1" id="Warstwa_1" xmlns="http://www.w3.org/2000/svg" xmlns:xlink="http://www.w3.org/1999/xlink" x="0px" y="0px"
	 viewBox="0 0 36.8 34.3" style="enable-background:new 0 0 36.8 34.3;" xml:space="preserve">
<style type="text/css">
	.st0{fill:#1D1D1B;}
</style>
<polygon class="st0" points="34.9,20.3 28.2,20.3 28.2,18.8 33.4,18.8 33.4,15.4 31.8,9.3 5.3,9.3 3.2,15.4 3.2,18.8 8.7,18.8 
	8.7,20.3 1.7,20.3 1.7,15.2 4.2,7.7 33,7.7 34.9,15.2 "/>
<path class="st0" d="M12.7,22.8h-5v-6.1h5V22.8z M9.3,21.3h1.9v-3H9.3V21.3z"/>
<path class="st0" d="M28.9,22.8h-5v-6.1h5V22.8z M25.4,21.3h1.9v-3h-1.9V21.3z"/>
<polygon class="st0" points="25.9,6.2 24.2,1.5 12.4,1.5 10.7,6.2 9.2,5.7 11.3,0 25.3,0 27.4,5.7 "/>
<polygon class="st0" points="13.9,6.2 12.5,5.7 13.6,2.5 22.9,2.5 24,5.7 22.6,6.2 21.8,4 14.7,4 "/>
<polygon class="st0" points="31.1,34 22.6,34 21.6,31.7 15,31.7 14,34 5.5,34 3,19.6 4.5,19.3 6.8,32.4 13,32.4 13.9,30.1 
	22.6,30.1 23.6,32.4 29.8,32.4 32.1,19.3 33.6,19.6 "/>
<rect x="11.4" y="18.8" class="st0" width="13.9" height="1.5"/>
<rect x="2.3" y="14.5" class="st0" width="32" height="1.5"/>
<polygon class="st0" points="15.3,9.3 13.8,9.3 13.8,6.5 9.2,6.5 9.2,9.3 7.7,9.3 7.7,5 15.3,5 "/>
<polygon class="st0" points="28.9,9.3 27.4,9.3 27.4,6.5 22.8,6.5 22.8,9.3 21.3,9.3 21.3,5 28.9,5 "/>
</svg>
