<?xml version="1.0" encoding="utf-8"?>
<!-- Generator: Adobe Illustrator 26.1.0, SVG Export Plug-In . SVG Version: 6.00 Build 0)  -->
<svg version="1.1" id="Warstwa_1" xmlns="http://www.w3.org/2000/svg" xmlns:xlink="http://www.w3.org/1999/xlink" x="0px" y="0px"
	 viewBox="0 0 47.4 33.9" style="enable-background:new 0 0 47.4 33.9;" xml:space="preserve">
<style type="text/css">
	.st0{fill:#1D1D1B;}
</style>
<path class="st0" d="M23.7,21.4c-2.2,0-3.9-1.8-3.9-3.9s1.8-3.9,3.9-3.9s3.9,1.8,3.9,3.9l0,0C27.6,19.7,25.9,21.4,23.7,21.4z
	 M23.7,15.1c-1.3,0-2.4,1.1-2.4,2.4c0,1.3,1.1,2.4,2.4,2.4c1.3,0,2.4-1.1,2.4-2.4c0,0,0,0,0,0C26.1,16.2,25,15.1,23.7,15.1z"/>
<path class="st0" d="M38.3,33.9h-31v-5.5h31l2,2.8L38.3,33.9z M8.8,32.4h28.7l0.9-1.2l-0.9-1.2H8.8V32.4z"/>
<rect x="33.2" y="30.3" transform="matrix(0.4863 -0.8738 0.8738 0.4863 -8.7665 47.2857)" class="st0" width="5.3" height="1.5"/>
<rect x="30" y="30.3" transform="matrix(0.4863 -0.8738 0.8738 0.4863 -10.4057 44.5146)" class="st0" width="5.3" height="1.5"/>
<rect x="26.9" y="30.3" transform="matrix(0.4863 -0.8738 0.8738 0.4863 -12.0348 41.7432)" class="st0" width="5.3" height="1.5"/>
<rect x="23.7" y="30.3" transform="matrix(0.4863 -0.8738 0.8738 0.4863 -13.6638 38.9718)" class="st0" width="5.3" height="1.5"/>
<rect x="20.5" y="30.3" transform="matrix(0.4863 -0.8738 0.8738 0.4863 -15.2929 36.2004)" class="st0" width="5.3" height="1.5"/>
<rect x="17.4" y="30.3" transform="matrix(0.4863 -0.8738 0.8738 0.4863 -16.9168 33.4377)" class="st0" width="5.3" height="1.5"/>
<path class="st0" d="M38.5,26.7H8.8l-0.2-0.4C8,25,8.3,23.7,9.4,22.3c-0.2-0.7-0.4-1.5-0.6-2.2l-2.7,0.3v-2.8l0,0c0-1.4,1-2.4,2.8-3
	c0.2-0.8,0.4-1.5,0.6-2.2l-2.5-1.1l1.4-2.4c0.7-1.2,2.1-1.6,3.9-1.2C12.9,7,13.5,6.5,14.1,6l-1.6-2.2l2.4-1.4c1.2-0.6,2.6-0.3,4,0.9
	c0.7-0.3,1.5-0.4,2.2-0.6L20.8,0h2.8l0,0c1.4,0.1,2.4,1,3,2.8c0.8,0.2,1.5,0.4,2.2,0.6l1.1-2.4l2.4,1.4c1.2,0.7,1.6,2,1.2,3.9
	c0.6,0.5,1.1,1.1,1.6,1.7l2.2-1.6l1.4,2.4c0.7,1.2,0.4,2.6-0.9,4c0.2,0.7,0.4,1.5,0.6,2.2l2.7-0.3v2.7l0,0c-0.1,1.4-1,2.4-2.8,3
	c-0.2,0.8-0.4,1.5-0.6,2.2l2.4,1.1l-1.4,2.4l-0.1,0.2L38.5,26.7z M9.8,25.1h27.9l0.4-0.6l-2.3-1l0.3-0.7c0.4-1,0.7-2,0.9-3l0.1-0.5
	l0.5-0.1c1.8-0.6,2.1-1.3,2.1-1.8v-1l-2.5,0.3l-0.1-0.8c-0.1-1.1-0.4-2.1-0.7-3.1l-0.2-0.4l0.3-0.3c1.3-1.4,1.2-2.2,1-2.6L37,8.6
	L35,10l-0.5-0.6c-0.6-0.9-1.4-1.7-2.2-2.3l-0.4-0.3L32,6.3c0.4-1.9,0-2.5-0.5-2.7l-0.9-0.5l-1,2.3L29,5.1c-1-0.4-2-0.7-3-0.9
	l-0.5-0.1l-0.1-0.5c-0.6-1.8-1.3-2.1-1.8-2.1h-1L22.8,4L22,4.1c-1,0.1-2.1,0.4-3,0.8L18.5,5l-0.4-0.3c-1.4-1.3-2.1-1.2-2.6-1
	l-0.9,0.5l1.5,2l-0.6,0.5C14.7,7.3,14,8,13.3,8.9L13,9.2l-0.5-0.1c-1.9-0.4-2.4,0.1-2.7,0.5l-0.5,0.9l2.3,1l-0.3,0.7
	c-0.4,1-0.7,2-0.9,3l-0.1,0.5l-0.4,0.1c-1.8,0.6-2.1,1.3-2.1,1.8v1l2.5-0.3l0.1,0.8c0.1,1.1,0.4,2.1,0.8,3.1l0.2,0.4l-0.3,0.4
	C10,24,9.8,24.7,9.8,25.1z"/>
</svg>
