<?xml version="1.0" encoding="utf-8"?>
<!-- Generator: Adobe Illustrator 26.1.0, SVG Export Plug-In . SVG Version: 6.00 Build 0)  -->
<svg version="1.1" id="Warstwa_1" xmlns="http://www.w3.org/2000/svg" xmlns:xlink="http://www.w3.org/1999/xlink" x="0px" y="0px"
	 viewBox="0 0 31.7 33.9" style="enable-background:new 0 0 31.7 33.9;" xml:space="preserve">
<style type="text/css">
	.st0{fill:#1D1D1B;}
</style>
<path class="st0" d="M28.3,33.9H4.1c-1.6,0-2.9-1.3-2.9-2.9c0-1.6,1.3-2.9,2.9-2.9h24.2c1.6,0,2.9,1.3,2.9,2.9
	C31.1,32.7,29.9,33.9,28.3,33.9z M4.1,29.7c-0.7,0-1.3,0.6-1.3,1.3c0,0.7,0.6,1.3,1.3,1.3h24.2c0.7,0,1.3-0.6,1.3-1.3
	c0-0.7-0.6-1.3-1.3-1.3c0,0,0,0,0,0L4.1,29.7z"/>
<path class="st0" d="M28.3,29.7H4.1c-1.6,0-2.9-1.3-2.9-2.9c0-1.6,1.3-2.9,2.9-2.9h24.2c1.6,0,2.9,1.3,2.9,2.9
	C31.1,28.5,29.9,29.7,28.3,29.7z M4.1,25.5c-0.7,0-1.3,0.6-1.3,1.3c0,0.7,0.6,1.3,1.3,1.3h24.2c0.7,0,1.3-0.6,1.3-1.3
	c0-0.7-0.6-1.3-1.3-1.3H4.1z"/>
<path class="st0" d="M23.7,25.5H18V16h5.7L23.7,25.5z M19.5,24h2.7v-6.5h-2.7V24z"/>
<path class="st0" d="M23.7,17.5h-5.6l-1.3-9.8h6.9L23.7,17.5z M19.4,16h2.8V9.2h-3.6L19.4,16z"/>
<rect x="18" y="13.1" class="st0" width="2.7" height="1.5"/>
<rect x="18" y="10.5" class="st0" width="2.7" height="1.5"/>
<path class="st0" d="M13.9,10.9h-3.8V0h3.8l3.5,1.6v7.6L13.9,10.9z M11.7,9.3h1.9l2.3-1.1V2.6l-2.3-1.1h-1.9V9.3z"/>
<rect x="13" y="0.5" class="st0" width="1.5" height="9.8"/>
<path class="st0" d="M26,9.2H15.9V1.4h9.3L26,9.2z M17.4,7.7h6.9l-0.5-4.8h-6.3V7.7z"/>
<polygon class="st0" points="30.3,11.4 27.9,6.1 24.7,6.1 24.7,4.5 28.9,4.5 31.7,10.7 "/>
<rect x="6.3" y="4.6" class="st0" width="1.5" height="1.5"/>
<rect x="3.6" y="4.6" class="st0" width="1.5" height="1.5"/>
<rect x="1" y="4.6" class="st0" width="1.5" height="1.5"/>
<rect x="6.5" y="1.6" transform="matrix(0.1736 -0.9848 0.9848 0.1736 3.731 9.1109)" class="st0" width="1.5" height="1.5"/>
<rect x="3.9" y="1.1" transform="matrix(0.1736 -0.9848 0.9848 0.1736 2.0394 6.166)" class="st0" width="1.5" height="1.5"/>
<rect x="1.3" y="0.6" transform="matrix(0.1736 -0.9848 0.9848 0.1736 0.3398 3.228)" class="st0" width="1.5" height="1.5"/>
<rect x="6.5" y="7.6" transform="matrix(0.9848 -0.1736 0.1736 0.9848 -1.346 1.3978)" class="st0" width="1.5" height="1.5"/>
<rect x="3.9" y="8.1" transform="matrix(0.9848 -0.1736 0.1736 0.9848 -1.4649 0.9515)" class="st0" width="1.5" height="1.5"/>
<rect x="1.3" y="8.5" transform="matrix(0.9848 -0.1736 0.1736 0.9848 -1.5854 0.507)" class="st0" width="1.5" height="1.5"/>
</svg>
