<?xml version="1.0" encoding="utf-8"?>
<!-- Generator: Adobe Illustrator 26.1.0, SVG Export Plug-In . SVG Version: 6.00 Build 0)  -->
<svg version="1.1" id="Warstwa_1" xmlns="http://www.w3.org/2000/svg" xmlns:xlink="http://www.w3.org/1999/xlink" x="0px" y="0px"
	 viewBox="0 0 43.5 33.9" style="enable-background:new 0 0 43.5 33.9;" xml:space="preserve">
<style type="text/css">
	.st0{fill:#1D1D1B;}
</style>
<path class="st0" d="M21,17.7h-3.5c-1.6,0-3-1.3-3-2.9V13h7.3L21,17.7z M16.1,14.5v0.2c0,0.8,0.6,1.4,1.4,1.4h2.2l0.3-1.6H16.1z"/>
<path class="st0" d="M25.7,17.7h-3.4L21.3,13h7.3v1.7C28.6,16.3,27.3,17.6,25.7,17.7z M23.5,16.1h2.2c0.8,0,1.4-0.6,1.4-1.4v-0.2
	h-3.9L23.5,16.1z"/>
<path class="st0" d="M33.4,14.3H9.9l0.6-4.2l1.3-0.8c0.1-6.3,3.8-8,5.4-8.4l1-0.3V3h1.1V0h4.8v3h1.1V0.6l1,0.3
	c1.6,0.4,5.2,2.2,5.4,8.4l1.3,0.8L33.4,14.3z M11.7,12.8h20l-0.2-1.7L30,10.2V9.8c0-4.4-1.8-6.2-3.3-7v1.7h-4.2V1.5h-1.7v3h-4.2V2.8
	c-1.5,0.8-3.3,2.6-3.3,7v0.4l-1.4,0.9L11.7,12.8z"/>
<path class="st0" d="M21.6,26.6c-1.7,0-3.4-0.7-4.6-1.9l-0.6-0.5c-1.8-1.3-2.8-3.5-2.8-5.7v-5.4h1.5v5.4c-0.1,1.8,0.8,3.4,2.2,4.5
	l0.7,0.5c2,2,5.2,2.1,7.2,0.1c0,0,0.1-0.1,0.1-0.1l0.7-0.5c1.4-1,2.2-2.7,2.2-4.5v-5.4h1.5v5.4c0.1,2.2-1,4.4-2.8,5.7
	c-0.2,0.1-0.4,0.3-0.6,0.5C25,26,23.4,26.6,21.6,26.6z"/>
<rect x="15.5" y="23.5" class="st0" width="1.5" height="6.7"/>
<polygon class="st0" points="20.3,33.9 18.8,33.9 18.8,32.4 13.5,29.2 14.3,27.9 20.3,31.6 "/>
<polygon class="st0" points="12.6,31.9 11,31.9 11,27.4 13.9,24.5 15,25.6 12.6,28 "/>
<rect x="26.2" y="23.5" class="st0" width="1.5" height="6.7"/>
<polygon class="st0" points="24.5,33.9 23,33.9 23,31.6 29,27.9 29.8,29.2 24.5,32.4 "/>
<polygon class="st0" points="32.3,31.9 30.7,31.9 30.7,28 28.3,25.6 29.4,24.5 32.3,27.4 "/>
</svg>
