<?xml version="1.0" encoding="utf-8"?>
<!-- Generator: Adobe Illustrator 26.1.0, SVG Export Plug-In . SVG Version: 6.00 Build 0)  -->
<svg version="1.1" id="Warstwa_1" xmlns="http://www.w3.org/2000/svg" xmlns:xlink="http://www.w3.org/1999/xlink" x="0px" y="0px"
	 viewBox="0 0 33.4 34.3" style="enable-background:new 0 0 33.4 34.3;" xml:space="preserve">
<style type="text/css">
	.st0{fill:#1D1D1B;}
</style>
<rect x="24.7" y="15.8" class="st0" width="1.5" height="7.8"/>
<path class="st0" d="M33.4,20H17.5l7.9-20L33.4,20z M19.8,18.5h11.3L25.4,4.2L19.8,18.5z"/>
<path class="st0" d="M11.4,19.9H6.8l-0.2-0.2c-4.8-5.3-5-8.2-5-18.5V0.4h15.2v0.8c0,10.3-0.2,13.2-5.1,18.5L11.4,19.9z M7.4,18.4
	h3.3c4.1-4.6,4.4-7.2,4.4-16.5H3C3,11.2,3.3,13.8,7.4,18.4L7.4,18.4z"/>
<polygon class="st0" points="12.5,34.3 5.8,34.3 5.8,21.3 7.5,18.6 8.8,19.4 7.4,21.8 7.4,32.8 11,32.8 11,21.8 9.5,19.6 10.8,18.7 
	12.5,21.3 "/>
<path class="st0" d="M28.8,34.3h-6.7V25l1.3-2h4l1.3,2L28.8,34.3z M23.6,32.8h3.6v-7.3l-0.6-0.9h-2.4l-0.6,0.9L23.6,32.8z"/>
</svg>
