<?xml version="1.0" encoding="utf-8"?>
<!-- Generator: Adobe Illustrator 26.1.0, SVG Export Plug-In . SVG Version: 6.00 Build 0)  -->
<svg version="1.1" id="Warstwa_1" xmlns="http://www.w3.org/2000/svg" xmlns:xlink="http://www.w3.org/1999/xlink" x="0px" y="0px"
	 viewBox="0 0 28.9 33.9" style="enable-background:new 0 0 28.9 33.9;" xml:space="preserve">
<style type="text/css">
	.st0{fill:#1D1D1B;}
</style>
<polygon class="st0" points="24.4,33.9 17.7,33.9 17.7,20.9 18.8,19.3 20.1,20.1 19.2,21.4 19.2,32.4 22.9,32.4 22.9,21.4 22,20.1 
	23.3,19.3 24.4,20.9 "/>
<path class="st0" d="M23.4,20.5h-4.8V5.6h-5.9V2.1L19.2,0h9.5v5.7h-5.2V20.5z M20.2,4.1v14.8h1.7V4.1h5.2V1.5h-7.7l-5.2,1.7v0.9
	L20.2,4.1z"/>
<polygon class="st0" points="5.1,21 3.5,21 3.5,8.1 2.5,6.7 3.8,0 6.5,0 6.5,1.5 5.1,1.5 4.1,6.3 5.1,7.7 "/>
<polygon class="st0" points="7.9,21 6.4,21 6.4,7.7 7.3,6.3 6.4,1.5 5,1.5 5,0 7.6,0 9,6.7 7.9,8.1 "/>
<path class="st0" d="M8.7,33.9h-6V24l-1.8-2l1.7-2.3h6.3l1.7,2.3l-1.8,2V33.9z M4.2,32.4h3v-9l1.3-1.5l-0.5-0.6H3.3l-0.5,0.6
	l1.4,1.5V32.4z"/>
</svg>
