<?xml version="1.0" encoding="utf-8"?>
<!-- Generator: Adobe Illustrator 26.1.0, SVG Export Plug-In . SVG Version: 6.00 Build 0)  -->
<svg version="1.1" id="Warstwa_1" xmlns="http://www.w3.org/2000/svg" xmlns:xlink="http://www.w3.org/1999/xlink" x="0px" y="0px"
	 viewBox="0 0 51.4 34" style="enable-background:new 0 0 51.4 34;" xml:space="preserve">
<style type="text/css">
	.st0{fill:#1D1D1B;}
</style>
<path class="st0" d="M38.4,34H18.7V23.6l10.6-2h7.3l1.8,4.4V34z M20.3,32.4h16.6v-6.1l-1.3-3.2h-6.1l-9.1,1.7V32.4z"/>
<rect x="18.7" y="25.7" class="st0" width="19.7" height="1.5"/>
<rect x="34.3" y="10.4" transform="matrix(0.9843 -0.1766 0.1766 0.9843 -2.4151 6.4537)" class="st0" width="1.5" height="12.9"/>
<rect x="27.8" y="10.4" transform="matrix(0.9843 -0.1766 0.1766 0.9843 -2.5165 5.3063)" class="st0" width="1.5" height="12.9"/>
<polygon class="st0" points="28.6,15.5 24.5,15.5 23.4,10.6 24.9,10.3 25.8,14 28.6,14 "/>
<path class="st0" d="M36.3,11.8H20.1V0h16.2l3.5,3.2v5.5L36.3,11.8z M21.7,10.3h14.1L38.3,8V3.8l-2.5-2.3H21.7V10.3z"/>
<rect x="29.9" y="2.7" class="st0" width="5.8" height="1.5"/>
<rect x="29.9" y="5.1" class="st0" width="5.8" height="1.5"/>
<rect x="29.9" y="7.6" class="st0" width="5.8" height="1.5"/>
<path class="st0" d="M21.7,10.8H17V1h4.6L21.7,10.8z M18.6,9.3h1.5V2.5h-1.5V9.3z"/>
<path class="st0" d="M18.6,9.7h-5.8L9,8.1V3.7l3.8-1.6h5.8V9.7z M13.1,8.2h4V3.6h-4l-2.5,1.1v2.4L13.1,8.2z"/>
<rect x="17" y="3" class="st0" width="4.6" height="1.5"/>
<rect x="17" y="5.1" class="st0" width="4.6" height="1.5"/>
<rect x="17" y="7.2" class="st0" width="4.6" height="1.5"/>
<rect x="12.6" y="4.1" class="st0" width="3.4" height="1.5"/>
<rect x="12.6" y="6.2" class="st0" width="3.4" height="1.5"/>
<rect x="5.8" y="5.1" class="st0" width="4.8" height="1.5"/>
</svg>
