<?xml version="1.0" encoding="utf-8"?>
<!-- Generator: Adobe Illustrator 26.1.0, SVG Export Plug-In . SVG Version: 6.00 Build 0)  -->
<svg version="1.1" id="Warstwa_1" xmlns="http://www.w3.org/2000/svg" xmlns:xlink="http://www.w3.org/1999/xlink" x="0px" y="0px"
	 viewBox="0 0 32.6 33.9" style="enable-background:new 0 0 32.6 33.9;" xml:space="preserve">
<style type="text/css">
	.st0{fill:#1D1D1B;}
</style>
<path class="st0" d="M29.3,8.1H10.8V0h18.5V8.1z M12.4,6.6h15.4V1.5H12.4V6.6z"/>
<polygon class="st0" points="21.8,19.8 20.3,19.8 20.3,16 31.1,10.8 31.1,4.8 28,4.8 28,3.3 32.6,3.3 32.6,11.7 21.8,17 "/>
<rect y="21.2" class="st0" width="13.2" height="1.5"/>
<rect x="0.3" y="18.1" class="st0" width="12.6" height="1.5"/>
<rect x="3" y="26.6" class="st0" width="1.5" height="7.3"/>
<rect x="6" y="30" class="st0" width="1.5" height="3.7"/>
<rect x="9.1" y="28.6" class="st0" width="1.5" height="5.1"/>
<path class="st0" d="M13.3,33.9H0V18.6l2.2-3.3h8.8l2.3,3.3V33.9z M1.5,32.4h10.2V19.1l-1.5-2.2H3.1l-1.5,2.2V32.4z"/>
<polygon class="st0" points="9,16.9 7.5,16.9 7.5,1.5 5.9,1.5 5.9,16.9 4.3,16.9 4.3,0 9,0 "/>
<path class="st0" d="M24.4,33.9h-6.7v-13l1.3-2h4l1.3,2L24.4,33.9z M19.2,32.4h3.6v-11l-0.6-0.9h-2.4l-0.6,0.9V32.4z"/>
</svg>
