<?xml version="1.0" encoding="utf-8"?>
<!-- Generator: Adobe Illustrator 26.1.0, SVG Export Plug-In . SVG Version: 6.00 Build 0)  -->
<svg version="1.1" id="Warstwa_1" xmlns="http://www.w3.org/2000/svg" xmlns:xlink="http://www.w3.org/1999/xlink" x="0px" y="0px"
	 viewBox="0 0 53.5 33.9" style="enable-background:new 0 0 53.5 33.9;" xml:space="preserve">
<style type="text/css">
	.st0{fill:#1D1D1B;}
</style>
<path class="st0" d="M34.3,5.1h-5.4V0h5.4V5.1z M30.5,3.5h2.3v-2h-2.3V3.5z"/>
<path class="st0" d="M36.9,33.9H26.3V3.5h10.6V33.9z M27.9,32.4h7.5V5.1h-7.5L27.9,32.4z"/>
<path class="st0" d="M41.5,15.3h-2.7L37.4,5.1h-2V3.5h7.7L41.5,15.3z M39,5.1l1.2,8.6l1.2-8.6L39,5.1z"/>
<path class="st0" d="M22.1,15.8h-9v-4h9V15.8z M14.7,14.3h6v-0.9h-6V14.3z"/>
<path class="st0" d="M19.6,13.4h-4v-5h4V13.4z M17.2,11.9h0.9V9.9h-0.9V11.9z"/>
<path class="st0" d="M24.3,33.9H11V14.3h13.3V33.9z M12.6,32.4h10.2V15.8H12.6V32.4z"/>
</svg>
