<?xml version="1.0" encoding="UTF-8"?>
<svg width="263px" height="263px" viewBox="0 0 263 263" version="1.1" xmlns="http://www.w3.org/2000/svg" xmlns:xlink="http://www.w3.org/1999/xlink">
    <!-- Generator: Sketch 52.6 (67491) - http://www.bohemiancoding.com/sketch -->
    <title>Nowa reklamacja</title>
    <desc>Created with Sketch.</desc>
    <defs>
        <polygon id="path-1" points="50.1752584 70.280194 34.3545136 16.6337893 38.0656814 12.3497922 44.8668792 11.3244754 63.7933129 64.7526195"></polygon>
        <filter x="-23.8%" y="-8.5%" width="147.6%" height="123.7%" filterUnits="objectBoundingBox" id="filter-2">
            <feOffset dx="0" dy="2" in="SourceAlpha" result="shadowOffsetOuter1"></feOffset>
            <feGaussianBlur stdDeviation="2" in="shadowOffsetOuter1" result="shadowBlurOuter1"></feGaussianBlur>
            <feColorMatrix values="0 0 0 0 0.948155825   0 0 0 0 0.948155825   0 0 0 0 0.948155825  0 0 0 0.5 0" type="matrix" in="shadowBlurOuter1"></feColorMatrix>
        </filter>
        <polygon id="path-3" points="50.1752584 70.280194 34.3545136 16.6337893 38.0656814 12.3497922 44.8668792 11.3244754 63.7933129 64.7526195"></polygon>
        <filter x="-23.8%" y="-8.5%" width="147.6%" height="123.7%" filterUnits="objectBoundingBox" id="filter-4">
            <feOffset dx="0" dy="2" in="SourceAlpha" result="shadowOffsetOuter1"></feOffset>
            <feGaussianBlur stdDeviation="2" in="shadowOffsetOuter1" result="shadowBlurOuter1"></feGaussianBlur>
            <feColorMatrix values="0 0 0 0 0.288655698   0 0 0 0 0.56455189   0 0 0 0 0.886238694  0 0 0 0.163185009 0" type="matrix" in="shadowBlurOuter1"></feColorMatrix>
        </filter>
    </defs>
    <g id="Puste-strony" stroke="none" stroke-width="1" fill="none" fill-rule="evenodd">
        <g id="Grafiki-puste-strony" transform="translate(-400.000000, -483.000000)">
            <g id="Nowa-reklamacja" transform="translate(400.000000, 483.000000)">
                <g id="Reklamacja">
                    <g id="Group-20">
                        <g id="Group-7-Copy-2" fill="#F7F9FB">
                            <g id="Group-27">
                                <g id="Pusta-lista---Oferty-wszystkie">
                                    <g id="Offers-2">
                                        <circle id="Oval" cx="131.5" cy="131.5" r="131.5"></circle>
                                    </g>
                                </g>
                            </g>
                        </g>
                        <g id="Group-16" transform="translate(74.000000, 51.000000)">
                            <path d="M5.82612286,141 C36.6217366,135.15332 72.4092254,136.169181 111,141 C103.171065,92.9622143 102.813055,45.9110558 111,0 L5.82612286,0 C-1.94204095,46.6242672 -1.94204095,94.3757328 5.82612286,141 Z" id="Path" fill="#000000" opacity="0.1" transform="translate(55.500000, 70.500000) scale(-1, 1) translate(-55.500000, -70.500000) "></path>
                            <g id="Group-22" transform="translate(57.000000, 68.500000) scale(-1, 1) translate(-57.000000, -68.500000) translate(2.000000, 1.000000)">
                                <g id="Group-17">
                                    <path d="M110,135 C102.241596,89.0063754 101.886811,43.9573939 110,0 L5.77363526,0 C-1.92454509,44.6402559 -1.92454509,90.3597441 5.77363526,135 C36.291811,129.402115 71.7568901,130.374747 110,135 Z" id="Path" fill="#FFFFFF"></path>
                                    <rect id="Rectangle" fill="#004D8A" x="22" y="18" width="66.4835165" height="4.553398" rx="2"></rect>
                                    <rect id="Rectangle" fill="#CDDCE7" x="22" y="29" width="66.4835165" height="4.621359" rx="2"></rect>
                                </g>
                            </g>
                        </g>
                        <g id="Group-19" transform="translate(105.000000, 95.000000)" fill="#7FBA00" fill-rule="nonzero" opacity="0.176920573">
                            <path d="M26.5,3.41935484 C39.2470883,3.41935484 49.5806452,13.7529117 49.5806452,26.5 C49.5806452,39.2470883 39.2470883,49.5806452 26.5,49.5806452 C13.7529117,49.5806452 3.41935484,39.2470883 3.41935484,26.5 C3.43052264,13.7575404 13.7575404,3.43052264 26.5,3.41935484 Z M26.5,1.16816642e-13 C11.8644541,0 0,11.8644541 0,26.5 C0,41.1355459 11.8644541,53 26.5,53 C41.1355459,53 53,41.1355459 53,26.5 C53,11.8644541 41.1355459,0 26.5,0 Z" id="Shape" transform="translate(26.500000, 26.500000) rotate(90.000000) translate(-26.500000, -26.500000) "></path>
                        </g>
                        <g id="Group-18" transform="translate(132.000000, 136.000000)">
                            <g id="Group-15" transform="translate(35.517081, 40.332846) rotate(5.000000) translate(-35.517081, -40.332846) translate(3.517081, 2.832846)">
                                <g id="Path">
                                    <use fill="black" fill-opacity="1" filter="url(#filter-2)" xlink:href="#path-1"></use>
                                    <use fill="#FFFFFF" fill-rule="evenodd" xlink:href="#path-1"></use>
                                </g>
                                <g id="Path">
                                    <use fill="black" fill-opacity="1" filter="url(#filter-4)" xlink:href="#path-3"></use>
                                    <use fill="#FFFFFF" fill-rule="evenodd" xlink:href="#path-3"></use>
                                </g>
                                <polygon id="Path" fill="#004D8A" points="14.428817 14.8283029 26.4607781 70.8725661 49.9285456 69.1086551 37.9017684 11.9168475"></polygon>
                                <polygon id="Path" fill="#004D8A" opacity="0.07" points="14.428817 14.8283029 26.4607781 70.8725661 49.9285456 69.1086551 37.9017684 11.9168475"></polygon>
                                <polygon id="Path" fill="#C1D4E2" points="39.0154148 73.2100337 24.2960152 74.3004469 26.5621448 19.0913713 31.4651303 16.1869528 38.2582978 17.277366"></polygon>
                                <polygon id="Path" fill="#FFFFFF" opacity="0.2" points="39.0154148 73.2100337 24.2960152 74.3004469 26.5621448 19.0913713 31.4651303 16.1869528 38.2582978 17.277366"></polygon>
                                <polygon id="Path" fill="#004D8A" points="30.9802439 16.0354281 7.494405 11.6254854 0.675597514 69.2849789 23.7840696 74.7923267"></polygon>
                                <path d="M21.607597,4.99339396 C21.8150159,2.9775972 22.6021399,1.27042166 24.4233747,0.496443853 C25.6588332,-0.0291035529 26.9059768,0.0970941054 28.1178718,0.875733677 C32.0927603,3.41806808 34.4087085,12.0075529 34.5055198,12.3735221 L34.2292409,12.3811367 C34.2062483,12.2950708 31.8610135,3.58448859 28.0228228,1.12723437 C26.9031087,0.411153496 25.7476565,0.297644413 24.5888848,0.789035781 C22.9309532,1.49467014 22.1662626,3.01450904 21.924002,4.83602931 C22.4411843,4.59861437 22.9933718,4.4408627 23.5825032,4.38036059 C24.9352797,4.24100482 25.9616697,4.68883913 26.6202345,5.71189061 C28.7862088,9.05706714 26.3769498,17.3760533 26.2726682,17.7299974 L26.0269209,17.6626655 C26.051248,17.5793671 28.4974182,9.14400017 26.4071471,5.91175807 C25.7969537,4.96950994 24.8442637,4.5576571 23.5762486,4.68698771 C22.9735159,4.74918227 22.4106019,4.91821549 21.885317,5.17364107 C21.438851,9.78564735 24.076481,16.0659196 24.1132758,16.1569284 L23.8520016,16.2113876 C23.8136076,16.1230789 21.2494308,10.0150415 21.5781037,5.33514118 C16.7377575,8.07341115 15.2414996,18.2152326 15.2227471,18.3310875 L14.9659384,18.3097623 C14.9816191,18.1929368 16.5299624,7.71622273 21.6075967,4.9933971 Z" id="Path-2" fill="#004D8A"></path>
                            </g>
                        </g>
                        <ellipse id="Ellipse_31" fill="#DDE7EF" transform="translate(135.708000, 222.691000) scale(1, -1) translate(-135.708000, -222.691000) " cx="135.708" cy="222.691" rx="45.708" ry="5.691"></ellipse>
                    </g>
                </g>
                <g id="Group-13" transform="translate(121.000000, 110.000000)" fill="#7FBA00" stroke="#7FBA00">
                    <g id="Group-14">
                        <path d="M6.52256243,19.5346412 C6.39562669,20.2222154 6.81754173,20.8943902 7.50139971,21.0882954 L7.67560584,21.1376946 C7.70912313,21.1468766 7.70912313,21.1468766 7.7429601,21.154863 C8.43662999,21.3120807 9.12627665,20.8844492 9.28413924,20.2033899 L11.4886514,10.7065567 L14.4883311,2.23319758 C14.5000532,2.1990395 14.5000532,2.1990395 14.5104403,2.16447289 C14.703693,1.49804011 14.3132636,0.801545598 13.6346848,0.609137276 L13.43856,0.553526872 C12.7589662,0.360830742 12.0423905,0.703660939 11.7748846,1.34660546 C10.2083921,5.11200667 9.15725462,7.91943471 8.62325689,9.76092787 C8.0808006,11.6315904 7.37952308,14.8927334 6.52256243,19.5346412 Z" id="Rectangle"></path>
                        <path d="M19.7536632,8.50087468 C17.4182704,8.59303363 17.4182704,8.59303363 15.0828776,8.68519258 C12.7474849,8.77735153 12.7474849,8.77735153 10.4120921,8.86951047 C6.0848444,9.04027173 6.0848444,9.04027173 1.75759671,9.21103298 C1.05227881,9.23886614 0.474263317,9.93931654 0.500879566,10.8006212 C0.527401658,11.658879 1.14221195,12.3067534 1.84385284,12.2790653 L19.8399193,11.568907 C20.5452372,11.5410738 21.1232527,10.8406234 21.0966364,9.97931876 C21.0701143,9.12106096 20.455304,8.47318662 19.7536632,8.50087468 Z" id="Rectangle"></path>
                    </g>
                </g>
            </g>
        </g>
    </g>
</svg>