<?xml version="1.0" encoding="UTF-8"?>
<svg width="263px" height="263px" viewBox="0 0 263 263" version="1.1" xmlns="http://www.w3.org/2000/svg" xmlns:xlink="http://www.w3.org/1999/xlink">
    <!-- Generator: Sketch 52.6 (67491) - http://www.bohemiancoding.com/sketch -->
    <title>Dostawy</title>
    <desc>Created with Sketch.</desc>
    <g id="Puste-strony" stroke="none" stroke-width="1" fill="none" fill-rule="evenodd">
        <g id="Grafiki-puste-strony" transform="translate(-758.000000, -36.000000)">
            <g id="Dostawy" transform="translate(758.000000, 36.000000)">
                <g id="Group-7-Copy">
                    <g id="Group-27">
                        <g id="Pusta-lista---Oferty-wszystkie" fill="#F7F9FB">
                            <g id="Offers-2">
                                <circle id="Oval" cx="131.5" cy="131.5" r="131.5"></circle>
                            </g>
                        </g>
                        <g id="delivery" transform="translate(65.000000, 80.000000)">
                            <path d="M139.888,1.744 C139.82142,1.12955616 139.446913,0.591155111 138.894,0.315 C138.431107,0.117652744 137.907921,0.116719109 137.444326,0.312413028 C136.980731,0.508106948 136.616467,0.883653634 136.435,1.353 L127.575,20.005 L125.575,93.447 L128.768,93.447 L129.968,20.168 L139.723,2.901 C139.899425,2.54228468 139.958214,2.1370619 139.891,1.743 L139.888,1.744 Z" id="Path_106" fill="#004D8A"></path>
                            <path d="M96.136,88.648 L102.695,101.094 C102.932792,101.496022 103.367979,101.739574 103.835,101.732 C104.304039,101.75471 104.749734,101.526148 105.005,101.132 L112.805,87.808 L96.136,88.648 Z" id="Path_125" fill="#6D7286" opacity="0.85"></path>
                            <path d="M141.884,2.542 C141.81742,1.92755616 141.442913,1.38915511 140.89,1.113 C140.427107,0.915652744 139.903921,0.914719109 139.440326,1.11041303 C138.976731,1.30610695 138.612467,1.68165363 138.431,2.151 L131.566,19.206 L129.566,95.842 L132.759,95.842 L133.959,19.37 L141.718,3.7 C141.893744,3.34106488 141.951832,2.93585196 141.884,2.542 Z" id="Path_129" fill="#004D8A"></path>
                            <g id="Group" transform="translate(0.000000, 78.060000)" fill="#FFFFFF">
                                <polygon id="Path_130-2" points="0.64 11.793 11.417 5.008 125.575 0.145673759 130.761 11.791"></polygon>
                            </g>
                            <polygon id="Path_131" fill="#004D8A" points="0.643 97.04 0.643 89.855 132.871 88.578 132.743 93.448 3.038 93.448 3.038 97.04"></polygon>
                            <path d="M11.085,94.642 L18.94,110.263 C19.2129298,110.760717 19.7373845,111.06809 20.305,111.063 C20.8739386,111.086633 21.4105555,110.798393 21.705,110.311 L31.041,93.588 L11.085,94.642 Z" id="Path_132" fill="#004D8A"></path>
                            <path d="M102.227,93.642 L110.082,109.263 C110.35493,109.760717 110.879385,110.06809 111.447,110.063 C112.015939,110.086633 112.552556,109.798393 112.847,109.311 L122.183,92.588 L102.227,93.642 Z" id="Path_133" fill="#004D8A"></path>
                        </g>
                    </g>
                    <ellipse id="Oval" fill="#004D8A" opacity="0.1" cx="131.5" cy="202" rx="65.5" ry="3"></ellipse>
                    <circle id="Oval" stroke="#F7F9FB" fill="#004D8C" cx="86.5" cy="191.5" r="7.5"></circle>
                    <circle id="Oval" stroke="#F7F9FB" fill="#004D8C" cx="178.5" cy="191.5" r="7.5"></circle>
                </g>
                <g id="Group-22" transform="translate(126.965095, 126.999695) rotate(1.000000) translate(-126.965095, -126.999695) translate(78.965095, 86.999695)">
                    <polygon id="Path_463" fill="#B9B9B9" points="96 72.1134752 96 -4.54747351e-13 89.6550293 3.33496094 78 6 77.774 77.608"></polygon>
                    <g id="Group_18" transform="translate(-0.000000, 1.421000)">
                        <g id="Path_466-+-Path_467-+-Path_468-Mask" transform="translate(-0.000000, 5.000000)">
                            <g id="Mask" transform="translate(-0.000000, 0.580000)" fill="#FFFFFF">
                                <polygon id="Path_465-2" points="0.10194767 2.83957808 1.27474082 70.0288526 78 69.999 76.7921962 0.803964778"></polygon>
                            </g>
                            <polygon id="Path_466" fill="#CDDCE7" transform="translate(9.855878, 25.756494) rotate(20.000000) translate(-9.855878, -25.756494) " points="33.1608622 15.4789144 -8.07418255 8.45499437 -13.4491065 35.3166596 29.0025961 43.0579944"></polygon>
                            <polygon id="Path_467" fill="#004D8A" transform="translate(11.207474, 22.125901) rotate(20.000000) translate(-11.207474, -22.125901) " points="25.4149473 22.321351 -2.30476695 18 -3 21.5863075 24.7197143 26.251803"></polygon>
                            <polygon id="Path_468" fill="#004D8A" transform="translate(4.530603, 26.301500) rotate(25.000000) translate(-4.530603, -26.301500) " points="15.7621628 25.4338573 -5.75234442 23.1628103 -6.70095585 27.148448 15.7600548 29.4401897"></polygon>
                            <polygon id="Path_468" fill="#004D8A" transform="translate(17.581895, 33.910233) rotate(5.000000) translate(-17.581895, -33.910233) " points="19.9085001 32.6188958 16.4993134 31.2980169 15.2552893 35.0172654 18.2900887 36.5224499"></polygon>
                        </g>
                        <polygon id="Path_469" fill="#004D8A" points="91.7880471 30.579 92.4884576 26.5527486 92 2.11025 88 2.579 88 35.603"></polygon>
                        <polygon id="Path_470" fill="#004D8A" points="15.079849 0.771712462 92 1.11846624 92 2.65563891 88.4845905 3.37611914 88.2416971 2.65563891 10.1163375 3.34988573"></polygon>
                    </g>
                </g>
            </g>
        </g>
    </g>
</svg>