<?xml version="1.0" encoding="UTF-8"?>
<svg width="263px" height="263px" viewBox="0 0 263 263" version="1.1" xmlns="http://www.w3.org/2000/svg" xmlns:xlink="http://www.w3.org/1999/xlink">
    <!-- Generator: Sketch 52.6 (67491) - http://www.bohemiancoding.com/sketch -->
    <title>Lista pracowników</title>
    <desc>Created with Sketch.</desc>
    <defs>
        <circle id="path-1" cx="131.5" cy="131.5" r="131.5"></circle>
        <path d="M32.7012377,5.13482836 C32.7689243,2.13366321 31.0027861,3.64967306 33.9679424,3.36401773 C80.9852226,-1.12133924 137.352278,-1.12133924 184.369558,3.36401773 C184.066225,4.41514915 184.36178,7.41334419 184.369558,9.12659152 L184.369558,113.800377 C135.068671,110.939862 76.2338614,110.939862 31.3223828,113.800377 L32.7012377,5.13482836 Z" id="path-3"></path>
        <filter x="-4.6%" y="-4.4%" width="109.1%" height="112.3%" filterUnits="objectBoundingBox" id="filter-4">
            <feOffset dx="0" dy="2" in="SourceAlpha" result="shadowOffsetOuter1"></feOffset>
            <feGaussianBlur stdDeviation="2" in="shadowOffsetOuter1" result="shadowBlurOuter1"></feGaussianBlur>
            <feColorMatrix values="0 0 0 0 0   0 0 0 0 0.301960784   0 0 0 0 0.541176471  0 0 0 0.247084466 0" type="matrix" in="shadowBlurOuter1"></feColorMatrix>
        </filter>
    </defs>
    <g id="Puste-strony" stroke="none" stroke-width="1" fill="none" fill-rule="evenodd">
        <g id="Grafiki-puste-strony" transform="translate(-1476.000000, -483.000000)">
            <g id="Lista-pracowników" transform="translate(1476.000000, 483.000000)">
                <g id="Group-9">
                    <g id="Group-8">
                        <mask id="mask-2" fill="white">
                            <use xlink:href="#path-1"></use>
                        </mask>
                        <use id="Mask" fill="#F7F9FB" xlink:href="#path-1"></use>
                        <g id="Group-12" mask="url(#mask-2)">
                            <g transform="translate(106.000000, 219.000000)" id="Oval">
                                <circle fill="#DDE7EF" cx="3.5" cy="3.5" r="3.5"></circle>
                                <circle fill="#004D8A" cx="17.5" cy="3.5" r="3.5"></circle>
                                <circle fill="#DDE7EF" cx="31.5" cy="3.5" r="3.5"></circle>
                                <circle fill="#DDE7EF" cx="47.5" cy="3.5" r="3.5"></circle>
                            </g>
                        </g>
                        <g mask="url(#mask-2)">
                            <g transform="translate(26.000000, 65.000000)">
                                <g id="Group-2">
                                    <g id="Path">
                                        <use fill="black" fill-opacity="1" filter="url(#filter-4)" xlink:href="#path-3"></use>
                                        <use fill="#FFFFFF" fill-rule="evenodd" xlink:href="#path-3"></use>
                                    </g>
                                    <rect id="Rectangle" fill="#004D8A" x="100.931491" y="22.4137931" width="49.4674037" height="11.6551724" rx="2.25"></rect>
                                    <rect id="Rectangle" fill="#C1D4E2" x="50.8525872" y="63.6551724" width="112.425917" height="3.5862069" rx="1.79310345"></rect>
                                    <rect id="Rectangle" fill="#C1D4E2" x="50.8525872" y="73.5172414" width="112.425917" height="3.5862069" rx="1.79310345"></rect>
                                    <rect id="Rectangle" fill="#C1D4E2" x="50.8525872" y="83.3793103" width="74.6508092" height="3.5862069" rx="1.79310345"></rect>
                                </g>
                                <g id="Group-3" transform="translate(46.000000, 8.000000)">
                                    <path d="M38.9606158,19.5077489 C38.9697774,22.769656 38.1570855,25.981308 36.5975624,28.8462269 C36.4242718,29.1613168 36.2431044,29.4803454 36.0383064,29.7954353 C36.0170014,29.8424422 35.9891568,29.8862002 35.9555996,29.9254099 C35.7431577,30.2768187 35.513124,30.617286 35.2663757,30.9455136 C33.7700906,33.0208044 31.8756497,34.7774361 29.6935081,36.1129885 L29.5792939,36.191761 C28.8622409,36.622272 28.1190653,37.0076907 27.3540853,37.3457778 C27.1414105,37.4403048 26.9208588,37.5308932 26.7003072,37.6214815 C26.4797555,37.7120699 26.2749576,37.794781 26.0544059,37.8656762 C25.9441301,37.9129397 25.8259774,37.952326 25.7117632,37.9917122 C25.6986924,37.9899772 25.6854497,37.9899772 25.672379,37.9917122 C25.4321352,38.0783619 25.1840146,38.1531958 24.9398324,38.2280297 L24.7547266,38.2713545 C24.5341749,38.3383111 24.3136233,38.3934519 24.0930716,38.4407154 C23.3320395,38.6356084 22.5581786,38.7764373 21.7772793,38.8621482 C21.0206152,38.9537816 20.2591246,38.9998153 19.4969328,39 C19.4181643,39 19.3393959,39 19.2606275,39 C18.2038016,38.9967986 17.1493711,38.8992588 16.1098896,38.7085418 L15.9208453,38.6770328 C15.7278627,38.6455238 15.5270031,38.6061376 15.3418973,38.5588741 L14.975624,38.476163 C14.5871089,38.3910298 14.2032565,38.2858593 13.8256047,38.161073 C13.0560854,37.930324 12.3022768,37.6500981 11.5688887,37.3221461 L11.4861818,37.2866985 C10.4122983,36.8001533 9.38531689,36.2161019 8.41815087,35.541888 C8.33580056,35.4934991 8.25684866,35.4395458 8.18184553,35.3804044 C0.667115175,30.0229065 -2.06280147,20.1306351 1.6405523,11.6770258 C5.34390607,3.22341647 14.4661933,-1.47611386 23.4989325,0.416240213 C32.5316717,2.30859429 39.000824,10.274523 39,19.5038103 L38.9606158,19.5077489 Z" id="Path" fill="#E2E2E2"></path>
                                    <path d="M23.9318182,14.8046861 C23.8386077,16.9346603 22.0804265,18.6136364 19.9431818,18.6136364 C17.8059372,18.6136364 16.0477559,16.9346603 15.9545455,14.8046861 C15.9545455,14.7402666 15.9545455,14.6758471 15.9545455,14.6152169 C15.9545456,12.4177569 17.7403189,10.6363636 19.9431818,10.6363636 C22.1460447,10.6363636 23.931818,12.4177569 23.9318182,14.6152169 C23.9280195,14.6758471 23.9318182,14.7402666 23.9318182,14.8046861 Z" id="Path" fill="#004D8A"></path>
                                    <path d="M23.9318182,14.8754706 C23.8386077,16.9658619 22.0804265,18.6136364 19.9431818,18.6136364 C17.8059372,18.6136364 16.0477559,16.9658619 15.9545455,14.8754706 C15.9545455,14.8122482 15.9545455,14.7490258 15.9545455,14.6895224 C18.2747309,12.8307653 21.6116327,12.8307653 23.9318182,14.6895224 C23.9280195,14.7490258 23.9318182,14.8122482 23.9318182,14.8754706 Z" id="Path" fill="#000000" opacity="0.1"></path>
                                    <circle id="Oval" fill="#004D8A" cx="19.9431818" cy="19.9431818" r="6.64772727"></circle>
                                    <path d="M16.1091902,13.7367389 C16.1106201,11.7389246 17.5599108,10.0503776 19.5,9.78615715 C17.991693,9.57774323 16.5020772,10.28224 15.6827084,11.5915017 C14.8633396,12.9007633 14.8633396,14.5765094 15.6827084,15.8857711 C16.5020772,17.1950327 17.991693,17.8995295 19.5,17.6911156 C17.5585093,17.4267038 16.1087574,15.735997 16.1091902,13.7367389 Z" id="Path" fill="#004D8A"></path>
                                    <path d="M12.924541,22.9478853 C11.3022788,21.6220584 10.9912497,19.3903263 12.1969616,17.7272727 C12.0516802,17.8461386 11.9144028,17.9731208 11.7858998,18.1075067 C10.7208091,19.1721013 10.3629775,20.6869593 10.850975,22.0654533 C11.3389725,23.4439472 12.5961688,24.4696121 14.1357157,24.74526 C15.6752626,25.020908 17.2554049,24.5032539 18.2642338,23.392759 C18.3900094,23.2602106 18.5067045,23.1205191 18.6136364,22.9745016 C16.9777058,24.2848691 14.5460583,24.2734926 12.924541,22.9478853 Z" id="Path" fill="#004D8A"></path>
                                    <path d="M16.447126,28.2776981 C16.1209975,28.3474352 15.805748,28.4675582 15.5109837,28.6344069 C14.9900659,29.044417 15.0089397,29.8644371 15.1637051,30.5327536 C15.5185333,32.0579911 16.3867297,33.5217271 17.7154477,34.1449425 C18.5380188,34.4744613 19.4148003,34.6141018 20.2898389,34.5549526 C21.2373054,34.5549526 22.3093393,34.4155491 22.898203,33.6037292 C23.1633687,33.1755361 23.3445428,32.6926359 23.4304451,32.1850943 C23.7211022,30.955064 24.015534,29.6840327 23.9098406,28.4130014 C23.336076,28.4663027 22.6943656,28.5032036 22.2413935,28.1095939 C21.7884214,27.7159843 21.6865027,26.9656658 21.4864401,26.3424505 C21.464714,26.2423113 21.4129198,26.1528753 21.3392242,26.0882442 C21.2564958,26.0476826 21.1648658,26.0334644 21.0749905,26.0472432 C20.4724915,26.0752963 19.8688874,26.0478643 19.2706518,25.9652412 C18.8931751,25.9119399 17.9796814,25.4896295 17.7003487,25.8463382 C17.4965112,26.1046446 17.6248533,26.891864 17.4663131,27.256773 C17.2660079,27.7314768 16.8989176,28.0991931 16.447126,28.2776981 Z" id="Path" fill="#FFFFFF"></path>
                                    <path d="M16.447126,28.2776981 C16.1209975,28.3474352 15.805748,28.4675582 15.5109837,28.6344069 C14.9900659,29.044417 15.0089397,29.8644371 15.1637051,30.5327536 C15.5185333,32.0579911 16.3867297,33.5217271 17.7154477,34.1449425 C18.5380188,34.4744613 19.4148003,34.6141018 20.2898389,34.5549526 C21.2373054,34.5549526 22.3093393,34.4155491 22.898203,33.6037292 C23.1633687,33.1755361 23.3445428,32.6926359 23.4304451,32.1850943 C23.7211022,30.955064 24.015534,29.6840327 23.9098406,28.4130014 C23.336076,28.4663027 22.6943656,28.5032036 22.2413935,28.1095939 C21.7884214,27.7159843 21.6865027,26.9656658 21.4864401,26.3424505 C21.464714,26.2423113 21.4129198,26.1528753 21.3392242,26.0882442 C21.2564958,26.0476826 21.1648658,26.0334644 21.0749905,26.0472432 C20.4724915,26.0752963 19.8688874,26.0478643 19.2706518,25.9652412 C18.8931751,25.9119399 17.9796814,25.4896295 17.7003487,25.8463382 C17.4965112,26.1046446 17.6248533,26.891864 17.4663131,27.256773 C17.2660079,27.7314768 16.8989176,28.0991931 16.447126,28.2776981 Z" id="Path" fill="#FFFFFF" opacity="0.05"></path>
                                    <circle id="Oval" fill="#FFFFFF" cx="20.3863636" cy="23.0454545" r="4.43181818"></circle>
                                    <path d="M30.1363636,32.913661 C30.105553,32.9542096 30.0747424,33.0028679 30.0400804,33.0434164 L29.8513654,33.3029272 C28.9002129,34.5032071 28.1299404,35.8502793 27.5675281,37.2969604 C27.3595564,37.394277 27.143882,37.4875387 26.9282077,37.5808004 C26.7125333,37.6740621 26.5122643,37.759214 26.2965899,37.8322014 C26.1887527,37.8808597 26.0732129,37.9214083 25.9615244,37.9619568 C25.9487427,37.9601706 25.9357928,37.9601706 25.9230111,37.9619568 C25.6880801,38.0511637 25.4454465,38.1282059 25.2066642,38.2052482 L25.0256518,38.2498516 C24.8099774,38.3187842 24.5943031,38.3755522 24.3786287,38.4242104 C23.6344261,38.6248549 22.8776784,38.7698398 22.114048,38.85808 C21.3741169,38.9524176 20.6294659,38.9998099 19.8841293,39 C19.8071027,39 19.7300762,39 19.6530496,39 C18.6195945,38.9967041 17.5884818,38.8962858 16.5719874,38.6999407 L16.3871237,38.6675018 C16.1984086,38.635063 16.0019909,38.5945144 15.8209785,38.5458561 L15.462805,38.4607041 C15.0828816,38.3730586 14.7075177,38.2647845 14.3382174,38.1363157 C14.4413291,37.4567447 14.7288908,36.8230646 15.1662528,36.3116304 C14.2997041,35.2208741 12.8747128,34.7910594 11.9542455,33.7611259 C11.8740535,33.6631529 11.799463,33.5602484 11.7308685,33.4529569 C11.6827635,33.3752534 11.6427363,33.2923277 11.6114773,33.2056107 C11.5839691,33.1372585 11.5670648,33.064699 11.5614101,32.9907033 C11.5323876,32.8413649 11.5207479,32.6888609 11.5267481,32.5365594 C11.5036402,31.3849803 11.5537074,30.0712069 12.4009995,29.3494425 C12.8171266,29.0426588 13.2851159,28.8224484 13.7797748,28.7006656 C14.6397639,28.4172799 15.4768801,28.0620262 16.2831379,27.6382933 C16.3569226,27.8193734 16.4061872,28.0104662 16.4294883,28.2059731 C16.5065149,28.6763364 16.4988122,29.1710289 16.6027981,29.6373373 C16.8047098,30.4690176 17.2934779,31.1917672 17.9738707,31.6647654 C18.6524843,32.132788 19.4250794,32.4284523 20.2307488,32.5284497 C21.0241223,32.6500954 21.65574,32.2162258 22.4028976,31.9202213 C22.7338808,31.8088841 23.0394045,31.6266508 23.3002569,31.3849803 C23.6376598,30.9750266 23.8175762,30.4472412 23.8047809,29.9049578 C23.8047809,29.3697168 23.747011,28.8344758 23.7778216,28.2830154 C23.7785438,28.2270312 23.785,28.1712924 23.7970782,28.1167663 C23.7993287,27.8276362 23.975697,27.5719071 24.2361296,27.4801539 C24.3804063,27.4677159 24.52524,27.4956953 24.6559243,27.561251 L26.0963209,28.1410954 C26.7204699,28.3684947 27.3216532,28.6605227 27.8910396,29.0128895 C29.165617,29.8843052 29.9924786,31.3208008 30.1363636,32.913661 Z" id="Path" fill="#004D8A"></path>
                                    <path d="M16.8409091,38.1136364 L16.6386816,38.0843351 C16.432241,38.0550338 16.2173742,38.0184072 16.0193598,37.9744553 L15.627544,37.8975394 C15.2119353,37.8183712 14.8013144,37.7205696 14.3973266,37.6045267 C13.5741438,37.3899454 12.7677674,37.1293538 11.9832355,36.8243802 C11.5886849,35.7085961 11.4456315,34.5370841 11.5619282,33.3741548 C11.6131234,32.875389 11.7319126,32.3836269 11.9158264,31.9090909 C12.8005718,32.6416228 14.308852,32.2277423 15.3115635,32.8137678 C15.5834097,32.9810343 15.8057625,33.2019527 15.9603768,33.4583959 C16.2409343,33.9277555 16.4316181,34.4337315 16.5249286,34.9564237 C16.5881247,35.2421112 16.6471077,35.5314613 16.6976646,35.8208114 C16.6976646,35.8720887 16.6976646,35.9123779 16.6976646,35.9563298 C16.6976646,36.0002817 16.6976646,36.0478963 16.6976646,36.0955109 C16.7313692,36.3006198 16.7608607,36.5130541 16.7734999,36.7218257 C16.8409091,37.1943088 16.8409091,37.6484786 16.8409091,38.1136364 Z" id="Path" fill="#000000" opacity="0.1"></path>
                                    <path d="M15.9501855,38.1136364 C15.7439813,38.0819494 15.529361,38.0422811 15.3315745,37.9945967 L14.9402089,37.9112113 C14.5250776,37.8254012 14.1149298,37.7192526 13.7114088,37.5931911 C12.8891757,37.360189 12.0837333,37.0769602 11.3001137,36.7452744 L11.211742,36.7094283 C10.7285831,35.3659399 10.5466328,33.9409473 10.6775643,32.5258726 C10.7379018,32.0149625 10.8535737,31.5112474 11.0227431,31.0227273 C11.9064318,31.8207991 13.4130294,31.375112 14.4145607,32.0131628 C14.8003273,32.2760437 15.0935951,32.6432965 15.2561495,33.0670662 C15.419702,33.4773029 15.542254,33.9012928 15.6221875,34.3334385 C15.7147392,34.8008965 15.8030825,35.2683603 15.8619673,35.7438577 C15.8752021,35.8097228 15.8822393,35.8765842 15.8829956,35.9436516 C15.8829927,35.9876127 15.882989,36.0435631 15.8829861,36.0875242 C15.8829833,36.1314852 15.8829788,36.199425 15.8829748,36.2593719 C15.9628921,36.8707199 15.9586428,37.4941735 15.9501855,38.1136364 Z" id="Path" fill="#004D8A" transform="translate(13.295455, 34.568182) rotate(11.000000) translate(-13.295455, -34.568182) "></path>
                                    <path d="M29.9730242,36.0415301 C29.206884,36.4704911 28.4128329,36.8545222 27.5954846,37.1913921 C27.3682508,37.2855787 27.1326008,37.375841 26.8969509,37.4661032 C26.661301,37.5563654 26.4424832,37.6387787 26.2068332,37.7094187 C26.0890083,37.756512 25.9627672,37.7957564 25.8407342,37.8350009 C25.8267687,37.8332721 25.8126194,37.8332721 25.7986539,37.8350009 C25.5419638,37.9213386 25.2768576,37.9959031 25.0159594,38.0704675 L24.8181818,38.1136364 C24.8181818,37.7643609 24.8181818,37.4033121 24.8602622,37.0501121 C24.8897184,36.7714766 24.9233827,36.4928411 24.965463,36.2142056 C24.965463,36.1631879 24.965463,36.1121701 24.9865032,36.0611523 C24.9906139,36.028561 24.9906139,35.9956326 24.9865032,35.9630412 C25.0369996,35.6961791 25.0917041,35.4253924 25.1464085,35.1585303 C25.2336941,34.5971717 25.4244666,34.0541299 25.7102851,33.5534328 C25.8680756,33.2839369 26.0914801,33.0527372 26.3625305,32.8784285 C27.3640427,32.2505175 28.8873513,32.6782819 29.7289582,31.9090909 C29.8945638,32.3651029 30.0087968,32.8359596 30.069809,33.3140417 C30.1838293,34.2226086 30.1512054,35.1419815 29.9730242,36.0415301 Z" id="Path" fill="#000000" opacity="0.1"></path>
                                    <path d="M29.9215769,36.1113281 L29.7989601,36.185902 C29.0291549,36.5934665 28.2313052,36.9583422 27.4100469,37.2784091 C27.181726,37.3678977 26.9449488,37.4536577 26.7081715,37.5394176 C26.4713943,37.6251776 26.2515297,37.7034801 26.0147525,37.7705966 C25.8963639,37.8153409 25.7695189,37.8526278 25.6469021,37.8899148 C25.6328698,37.8882722 25.6186528,37.8882722 25.6046205,37.8899148 C25.3467024,37.971946 25.080328,38.0427912 24.8181818,38.1136364 C24.8181818,37.6736506 24.8181818,37.2373935 24.8604635,36.8011364 C24.8604635,36.6892756 24.8604635,36.5736861 24.8942888,36.4618253 C24.8942888,36.4133523 24.8942888,36.3574219 24.8942888,36.3089489 C24.8942888,36.2604759 24.8942888,36.2269176 24.8942888,36.1933594 C24.9577113,35.7906605 25.0338182,35.3991477 25.1268379,35.0039063 C25.2071775,34.6006117 25.3303362,34.2048717 25.4946882,33.8219105 C25.6580383,33.4263244 25.9527154,33.0833001 26.3403212,32.8375355 C27.3466244,32.2409446 28.8772201,32.6473722 29.7228531,31.9090909 C29.9044952,32.3775487 30.0236859,32.8630602 30.078019,33.3558239 C30.191771,34.275833 30.1389647,35.2059399 29.9215769,36.1113281 Z" id="Path" fill="#004D8A"></path>
                                    <ellipse id="Oval" fill="#004D8A" cx="20.3863636" cy="18.6136364" rx="5.31818182" ry="3.54545455"></ellipse>
                                    <path d="M15.4272657,37.59999 C15.4272657,37.677037 15.4272657,37.7577528 15.4272657,37.8421376 C15.4272657,37.9265223 15.4272657,38.0035693 15.4272657,38.0842851 C15.4258051,38.0940185 15.4258051,38.1039031 15.4272657,38.1136364 L15.0725382,38.0365894 C15.0667297,37.9718925 15.0667297,37.9068345 15.0725382,37.8421376 C15.0717065,37.1536598 15.3821489,36.4988586 15.9231213,36.0480443 C15.9580594,36.0124857 15.9978335,35.9816323 16.0413638,35.9563218 C16.2461372,35.7963229 16.47852,35.6721417 16.727933,35.5894316 C16.9568084,35.5044518 17.1996941,35.4597144 17.4450165,35.4573511 C17.4779653,35.4537132 17.5112387,35.4537132 17.5441876,35.4573511 C17.605154,35.4536102 17.6663063,35.4536102 17.7272727,35.4573511 L17.6014017,35.4573511 C17.01735,35.5165431 16.4753531,35.7772131 16.0756922,36.1911315 C16.0312345,36.2307363 15.9915689,36.2750439 15.9574497,36.323212 C15.6522453,36.6883907 15.4676006,37.133048 15.4272657,37.59999 Z" id="Path" fill="#000000" opacity="0.05"></path>
                                    <path d="M19.5,38.2109366 C19.4995942,38.4766818 19.4738568,38.7414726 19.4233038,39 C18.487829,38.9965518 17.5544745,38.8914921 16.6343524,38.6860716 L16.4670153,38.6521334 C16.296192,38.6181952 16.1183964,38.5757724 15.9545455,38.5248651 L15.9545455,38.4909269 C15.9545455,38.3975968 15.9545455,38.308509 15.9545455,38.2109366 C15.9545455,38.1133643 15.9545455,38.0200342 15.9545455,37.9309464 C15.984042,37.3616817 16.1434024,36.8137036 16.4147224,36.3485774 C16.4457894,36.2901908 16.4820305,36.2361314 16.5227943,36.1873709 C16.685293,35.9405193 16.894664,35.745431 17.1328774,35.6189059 C17.315791,35.5127254 17.5158973,35.4576468 17.7185573,35.4576995 C17.7416715,35.4535176 17.7651668,35.4535176 17.788281,35.4576995 C17.835863,35.4534941 17.8836329,35.4534941 17.9312148,35.4576995 C18.8132207,35.6401173 19.5,36.802501 19.5,38.2109366 Z" id="Path" fill="#004D8A"></path>
                                    <path d="M25.7045455,37.965325 C25.5960111,38.0209417 25.4797244,38.0672891 25.3673138,38.1136364 C25.3117923,37.4497466 25.0683787,36.8284141 24.6773456,36.3524385 L24.5610588,36.2133965 C24.1738791,35.7980299 23.6896051,35.53439 23.17337,35.4579353 L23.0454545,35.4579353 C23.1048299,35.4534155 23.1643856,35.4534155 23.2237609,35.4579353 C23.2585479,35.4534887 23.2936321,35.4534887 23.328419,35.4579353 C23.578634,35.4649961 23.8261604,35.52137 24.0610257,35.6247856 C24.2475225,35.7013152 24.4257792,35.8039949 24.5920686,35.9306779 C24.635131,35.9570328 24.6743894,35.9914559 24.7083554,36.032642 C25.2425853,36.4923606 25.6011943,37.1880888 25.7045455,37.965325 Z" id="Path" fill="#000000" opacity="0.05"></path>
                                    <path d="M25.7045455,38.0178308 C25.6929414,38.0158731 25.6811846,38.0158731 25.6695806,38.0178308 C25.4562947,38.1156033 25.2360158,38.2000432 25.0192334,38.2844831 L24.8548984,38.3333693 C24.6590949,38.4089208 24.4632915,38.4711397 24.267488,38.5244701 C23.5918517,38.7443806 22.904826,38.9032869 22.2115518,39 C22.1761036,38.7761679 22.158532,38.5483575 22.1591045,38.3200367 C22.1591045,36.8445609 22.8584025,35.6268489 23.7360215,35.4579691 C23.7825722,35.4534042 23.8293304,35.4534042 23.8758811,35.4579691 C23.897894,35.4536307 23.9203015,35.4536307 23.9423144,35.4579691 C24.1479062,35.4568863 24.3510559,35.5146045 24.5367177,35.6268489 C24.7106677,35.724953 24.8693584,35.8619306 25.0052474,36.0312715 C25.0436094,36.0678687 25.0787751,36.1095861 25.1101421,36.1557092 C25.4608903,36.6788472 25.6693668,37.3319538 25.7045455,38.0178308 Z" id="Path" fill="#004D8A"></path>
                                    <path d="M20.3806349,21.8205619 C17.5315407,21.8205619 15.2056716,20.400924 15.0681818,18.6136364 C15.0681818,18.6682378 15.0681818,18.7228393 15.0681818,18.7810808 C15.0681818,20.6484506 17.4513383,22.1590909 20.3882732,22.1590909 C23.3252081,22.1590909 25.7045455,20.6484506 25.7045455,18.7810808 C25.7045455,18.7228393 25.7045455,18.6682378 25.7045455,18.6136364 C25.551779,20.400924 23.2259099,21.8205619 20.3806349,21.8205619 Z" id="Path" fill="#000000" opacity="0.1"></path>
                                </g>
                            </g>
                        </g>
                        <ellipse id="Oval" fill="#004D8A" opacity="0.1" mask="url(#mask-2)" cx="135.5" cy="190" rx="44.5" ry="2"></ellipse>
                    </g>
                </g>
            </g>
        </g>
    </g>
</svg>