<?xml version="1.0" encoding="UTF-8"?>
<svg width="16px" height="22px" viewBox="0 0 16 22" version="1.1" xmlns="http://www.w3.org/2000/svg" xmlns:xlink="http://www.w3.org/1999/xlink">
    <!-- Generator: Sketch 52.6 (67491) - http://www.bohemiancoding.com/sketch -->
    <title>file-image</title>
    <desc>Created with Sketch.</desc>
    <g id="Do-pobrania" stroke="none" stroke-width="1" fill="none" fill-rule="evenodd">
        <g id="Lista-dokumentów" transform="translate(-365.000000, -587.000000)" fill-rule="nonzero">
            <g id="file-image" transform="translate(365.000000, 587.000000)">
                <path d="M16,5.33333333 L10.6666667,5.33333333 L10.6666667,0 L10.919125,0 C11.1843307,1.38665054e-06 11.4386747,0.105351048 11.6262083,0.292875 L15.7070833,4.37375 C15.894625,4.56129219 15.9999895,4.81565065 16,5.080875 L16,5.33333333 Z" id="Path" fill="#50B2F4"></path>
                <path d="M10.3333333,6.66666667 L16,6.66666667 L16,20.3333333 C16,20.885625 15.5522917,21.3333333 15,21.3333333 L1,21.3333333 C0.447708333,21.3333333 0,20.885625 0,20.3333333 L0,1 C0,0.447708333 0.447708333,0 1,0 L9.33333333,0 L9.33333333,5.66666667 C9.33333333,6.21666667 9.78333333,6.66666667 10.3333333,6.66666667 Z M4.689375,7.33333333 C3.58483333,7.33333333 2.689375,8.22875 2.689375,9.33333333 C2.689375,10.4379167 3.58479167,11.3333333 4.689375,11.3333333 C5.79395833,11.3333333 6.689375,10.4379167 6.689375,9.33333333 C6.689375,8.22875 5.79395833,7.33333333 4.689375,7.33333333 Z M2.689375,17.3333333 L13.3560417,17.3333333 L13.3560417,12.6666667 L11.709625,11.0202083 C11.5143333,10.8249583 11.19775,10.8249583 11.0025,11.0202083 L6.689375,15.3333333 L5.04291667,13.686875 C4.84766667,13.491625 4.55129167,13.4714167 4.35604167,13.6666667 L2.70958333,15.313125 L2.689375,17.3333333 Z" id="Combined-Shape" fill="#50B6FB"></path>
            </g>
        </g>
    </g>
</svg>