<?xml version="1.0" encoding="UTF-8"?>
<svg width="16px" height="21px" viewBox="0 0 16 21" version="1.1" xmlns="http://www.w3.org/2000/svg" xmlns:xlink="http://www.w3.org/1999/xlink">
    <!-- Generator: Sketch 52.6 (67491) - http://www.bohemiancoding.com/sketch -->
    <title>file-excel</title>
    <desc>Created with Sketch.</desc>
    <g id="Do-pobrania" stroke="none" stroke-width="1" fill="none" fill-rule="evenodd">
        <g id="Lista-dokumentów" transform="translate(-365.000000, -538.000000)" fill-rule="nonzero">
            <g id="file-excel" transform="translate(365.000000, 538.000000)">
                <path d="M9.33333333,5.46428571 C9.33333333,5.99464286 9.78333333,6.42857143 10.3333333,6.42857143 L16,6.42857143 L16,19.6071429 C16,20.1415179 15.5541667,20.5714286 15,20.5714286 L1,20.5714286 C0.445833333,20.5714286 -1.24344979e-14,20.1415179 -1.24344979e-14,19.6071429 L-1.24344979e-14,0.964285714 C-1.24344979e-14,0.429910714 0.445833333,1.77635684e-15 1,1.77635684e-15 L9.33333333,1.77635684e-15 L9.33333333,5.46428571 Z M11.8375,9.74330357 C12.05,9.421875 11.8125,9 11.4166667,9.00401786 L9.96666667,9.00401786 C9.78333333,9.00401786 9.6125,9.10044643 9.525,9.25714286 C8.25416667,11.5392857 8,12.009375 8,12.009375 C7.30833333,10.6071429 7.5625,11.2178571 6.475,9.25714286 C6.3875,9.10044643 6.21666667,9.00401786 6.03333333,9.00401786 L4.58333333,9.00401786 C4.1875,9.00401786 3.94583333,9.42589286 4.1625,9.74732143 L6.675,13.5040179 L4.1625,17.2607143 C3.95,17.5821429 4.1875,18.0040179 4.58333333,18.0040179 L6.0375,18.0040179 C6.22083333,18.0040179 6.3875,17.9075893 6.475,17.7508929 C7.58333333,15.7901786 7.73333333,15.58125 8,14.9866071 C8,14.9866071 8.70416667,16.2924107 9.52083333,17.746875 C9.60833333,17.9035714 9.77916667,18 9.9625,18 L11.4166667,18 C11.8125,18 12.05,17.578125 11.8375,17.2566964 L9.33333333,13.5 L11.8375,9.74330357 Z" id="Combined-Shape" fill="#39C171"></path>
                <path d="M16,4.89776786 L16,5.14285714 L10.6666667,5.14285714 L10.6666667,0 L10.9208333,0 C11.1875,0 11.4416667,0.100446429 11.6291667,0.28125 L15.7083333,4.21875 C15.8958333,4.39955357 16,4.64464286 16,4.89776786 Z" id="Path" fill="#1B985A"></path>
            </g>
        </g>
    </g>
</svg>