<?xml version="1.0" encoding="UTF-8"?>
<svg width="16px" height="21px" viewBox="0 0 16 21" version="1.1" xmlns="http://www.w3.org/2000/svg" xmlns:xlink="http://www.w3.org/1999/xlink">
    <!-- Generator: Sketch 52.6 (67491) - http://www.bohemiancoding.com/sketch -->
    <title>file-pdf</title>
    <desc>Created with Sketch.</desc>
    <g id="Do-pobrania" stroke="none" stroke-width="1" fill="none" fill-rule="evenodd">
        <g id="Lista-dokumentów" transform="translate(-365.000000, -387.000000)" fill-rule="nonzero">
            <g id="file-pdf" transform="translate(365.000000, 387.000000)">
                <path d="M7.57916667,10.2897321 C7.37083333,9.646875 7.375,8.40535714 7.49583333,8.40535714 C7.84583333,8.40535714 7.8125,9.88794643 7.57916667,10.2897321 Z" id="Path" fill="#F2453B"></path>
                <path d="M7.50833333,12.1861607 C7.1875,12.9977679 6.7875,13.9258929 6.325,14.7053571 C7.0875,14.4241071 7.95,14.0142857 8.94583333,13.8254464 C8.41666667,13.4397321 7.90833333,12.8852679 7.50833333,12.1861607 Z" id="Path" fill="#F2453B"></path>
                <path d="M3.5875,17.2004464 C3.5875,17.2325893 4.1375,16.9834821 5.04166667,15.5852679 C4.7625,15.8383929 3.82916667,16.5696429 3.5875,17.2004464 Z" id="Path" fill="#F2453B"></path>
                <path d="M10.3333333,6.42857143 L16,6.42857143 L16,19.6071429 C16,20.1415179 15.5541667,20.5714286 15,20.5714286 L1,20.5714286 C0.445833333,20.5714286 -1.24344979e-14,20.1415179 -1.24344979e-14,19.6071429 L-1.24344979e-14,0.964285714 C-1.24344979e-14,0.429910714 0.445833333,1.77635684e-15 1,1.77635684e-15 L9.33333333,1.77635684e-15 L9.33333333,5.46428571 C9.33333333,5.99464286 9.78333333,6.42857143 10.3333333,6.42857143 Z M10,13.33125 C9.16666667,12.8410714 8.6125,12.1660714 8.22083333,11.1696429 C8.40833333,10.4263393 8.70416667,9.29732143 8.47916667,8.59017857 C8.28333333,7.40892857 6.7125,7.52544643 6.4875,8.31696429 C6.27916667,9.05223214 6.47083333,10.0888393 6.825,11.4107143 C6.34166667,12.5196429 5.62916667,14.00625 5.125,14.8580357 C5.12083333,14.8580357 5.12083333,14.8620536 5.11666667,14.8620536 C3.9875,15.4205357 2.05,16.65 2.84583333,17.5941964 C3.07916667,17.8714286 3.5125,17.9959821 3.74166667,17.9959821 C4.4875,17.9959821 5.22916667,17.2727679 6.2875,15.5129464 C7.3625,15.1714286 8.54166667,14.7455357 9.57916667,14.5808036 C10.4833333,15.0549107 11.5416667,15.3642857 12.2458333,15.3642857 C13.4625,15.3642857 13.5458333,14.0785714 13.0666667,13.6205357 C12.4875,13.0741071 10.8041667,13.2308036 10,13.33125 Z" id="Combined-Shape" fill="#F2453B"></path>
                <path d="M15.7083333,4.21875 L11.625,0.28125 C11.4375,0.100446429 11.1833333,0 10.9166667,0 L10.6666667,0 L10.6666667,5.14285714 L16,5.14285714 L16,4.89776786 C16,4.64464286 15.8958333,4.39955357 15.7083333,4.21875 Z" id="Path" fill="#CB351B"></path>
                <path d="M12.6208333,14.4763393 C12.7916667,14.3678571 12.5166667,13.9982143 10.8375,14.1147321 C12.3833333,14.7495536 12.6208333,14.4763393 12.6208333,14.4763393 Z" id="Path" fill="#F2453B"></path>
            </g>
        </g>
    </g>
</svg>