<?xml version="1.0" encoding="UTF-8"?>
<svg width="263px" height="263px" viewBox="0 0 263 263" version="1.1" xmlns="http://www.w3.org/2000/svg" xmlns:xlink="http://www.w3.org/1999/xlink">
    <!-- Generator: Sketch 52.6 (67491) - http://www.bohemiancoding.com/sketch -->
    <title>Files2</title>
    <desc>Created with Sketch.</desc>
    <defs>
        <linearGradient x1="0.00381898033%" y1="50%" x2="100.003819%" y2="50%" id="linearGradient-1">
            <stop stop-color="#808080" stop-opacity="0.25" offset="0%"></stop>
            <stop stop-color="#808080" stop-opacity="0.12" offset="54%"></stop>
            <stop stop-color="#808080" stop-opacity="0.1" offset="100%"></stop>
        </linearGradient>
        <linearGradient x1="4.34167797e-14%" y1="49.987556%" x2="100%" y2="49.987556%" id="linearGradient-2">
            <stop stop-color="#808080" stop-opacity="0.25" offset="0%"></stop>
            <stop stop-color="#808080" stop-opacity="0.12" offset="54%"></stop>
            <stop stop-color="#808080" stop-opacity="0.1" offset="100%"></stop>
        </linearGradient>
    </defs>
    <g id="Puste-strony" stroke="none" stroke-width="1" fill="none" fill-rule="evenodd">
        <g id="Pusta-lista---dokumenty-" transform="translate(-997.000000, -363.000000)">
            <g id="Files2" transform="translate(997.000000, 363.000000)">
                <circle id="Oval" fill="#F7F9FB" cx="131.5" cy="131.5" r="131.5"></circle>
                <ellipse id="Oval" fill="#004D8A" opacity="0.1" cx="129" cy="220.5" rx="56" ry="5.5"></ellipse>
                <g id="Group-11" transform="translate(62.000000, 66.000000)">
                    <path d="M121.142172,82.8373131 C121.06856,83.8200817 118.829515,83.4490589 118.829515,83.4490589 C115.116178,84.005593 115.729614,80.0745188 115.729614,80.0745188 L115.729614,79.8735481 L115.858436,76.2074901 L115.895242,75.1849691 C115.895242,75.1849691 119.984821,73.1664287 119.880537,73.5904547 C119.841686,73.7494644 119.927567,74.1315295 120.046165,74.5445131 C120.250644,75.2313469 120.543049,76.0087279 120.543049,76.0087279 C120.543049,76.0087279 120.567587,77.6297439 120.444899,78.1067732 C120.322212,78.5838024 121.084918,79.8602973 121.084918,79.8602973 C121.084918,79.8602973 121.084918,79.9398022 121.097187,80.0811442 C121.157703,80.9983422 121.172719,81.9183813 121.142172,82.8373131 Z" id="Path" fill="#B77983"></path>
                    <path d="M117.513699,74.8390511 C115.841235,77.3877144 114.03533,77.3449516 112.958904,76.985744 L112.998936,75.6657987 C112.998936,75.6657987 117.446978,73.0601184 117.333553,73.6074823 C117.291297,73.8127438 117.375809,74.3059415 117.513699,74.8390511 Z" id="Path" fill="#000000" opacity="0.05"></path>
                    <path d="M127.534247,59.9148936 C127.534247,59.9148936 130.471278,58.5526241 131.111866,59.1656454 C131.752453,59.7786667 127.534247,59.9148936 127.534247,59.9148936 Z" id="Path" fill="#000000" opacity="0.05"></path>
                    <path d="M128.540018,59.9148936 C128.540018,59.9148936 128.120898,60.2698209 129.045059,60.7241279 C129.96922,61.1784349 128.540018,59.9148936 128.540018,59.9148936 Z" id="Path" fill="#000000" opacity="0.05"></path>
                    <path d="M112.961061,57.2286291 C112.884922,57.257588 114.83854,58.9420288 116.60274,57.5471767 C116.595312,57.5471767 113.401182,57.0548759 112.961061,57.2286291 Z" id="Path" fill="#000000" opacity="0.05"></path>
                    <path d="M116.60274,59.0070922 C116.60274,59.0070922 116.087217,59.7895169 115.031112,59.9056365 C113.975006,60.021756 116.60274,59.0070922 116.60274,59.0070922 Z" id="Path" fill="#000000" opacity="0.05"></path>
                    <path d="M124.80137,62.6382979 C124.80137,62.6382979 129.176303,66.9559704 128.338617,67.9745486 C127.500931,68.9931268 124.80137,62.6382979 124.80137,62.6382979 Z" id="Path" fill="#000000" opacity="0.05"></path>
                    <path d="M121.157534,81.2247449 C121.157534,81.4905054 121.157534,81.7389807 121.133034,81.9442429 C121.059532,82.9057343 118.82386,82.5427443 118.82386,82.5427443 C116.78215,82.8430753 116.047135,81.805961 115.804171,80.8142205 C115.72781,80.4920908 115.690082,80.1610675 115.691877,79.8289619 C115.690554,79.6309404 115.702837,79.433079 115.728628,79.2369425 L115.728628,79.0403229 C116.168609,78.8998842 116.645832,79.0030002 116.998572,79.3147261 C117.907132,80.0947224 119.111741,79.4962211 119.111741,79.4962211 C119.111741,79.4962211 119.995801,79.5740046 120.336767,79.8851389 C120.528688,80.0601519 120.845153,79.6388243 121.086074,79.2369425 C121.100366,79.4962211 121.122825,79.9650831 121.137117,80.466355 C121.153451,80.723473 121.157534,80.9827515 121.157534,81.2247449 Z" id="Path" fill="#000000" opacity="0.05"></path>
                    <path d="M114.780822,80.5547952 C114.780822,80.5547952 114.187383,81.3070113 113.067761,80.1454259 C112.993777,79.7639733 112.957224,79.3719892 112.958963,78.9787234 C113.530643,79.5416062 114.590921,80.5547952 114.780822,80.5547952 Z" id="Path" fill="#000000" opacity="0.05"></path>
                    <path d="M119.335616,79.7794956 C119.197318,79.8660707 119.021114,79.9024608 118.848651,79.8800649 C118.676188,79.8576691 118.52277,79.7784748 118.424658,79.6611997 C118.751664,79.4592548 119.052226,79.2305605 119.321602,78.9787234 C119.330011,79.2517139 119.335616,79.5247044 119.335616,79.7794956 Z" id="Path" fill="#000000" opacity="0.05"></path>
                    <path d="M123.891142,81.5952291 C124.029296,81.6817171 124.205471,81.7180667 124.37788,81.6956563 C124.550289,81.6732459 124.703571,81.5940721 124.80137,81.4769139 C124.473306,81.2752345 124.172022,81.0464753 123.902379,80.7943262 C123.893951,81.065086 123.888332,81.3381211 123.891142,81.5952291 Z" id="Path" fill="#000000" opacity="0.05"></path>
                    <path d="M22.5345056,126.184397 C22.021719,125.558887 21.7866583,124.746524 21.8849206,123.939449 L31.2245562,46.4984034 L31.99898,40.0658886 C32.1785095,38.5857225 33.413478,37.4700493 34.885084,37.4585759 L62.2417102,37.2741772 C63.0286404,37.2692891 63.7804627,36.9434261 64.3274823,36.370139 C64.8745019,35.7968519 65.1706106,35.024463 65.1489733,34.2273093 L65.1383937,33.9335578 C65.1114353,33.1295792 65.4077301,32.348957 65.9594047,31.7705116 C66.5110793,31.1920662 67.2708598,30.8653655 68.0647,30.8652482 L96.8114804,30.8652482 C98.4251591,30.8652444 99.7342863,32.1889784 99.7377867,33.824205 C99.7376228,33.957553 99.7291423,34.0907572 99.7123958,34.223021 C99.6021807,35.05763 99.8473089,35.9003669 100.38662,36.5409669 C100.925932,37.1815668 101.708566,37.5596173 102.539254,37.5807937 L130.147674,38.2948029 C130.997138,38.3159705 131.795506,38.7105251 132.334995,39.3757806 C132.874485,40.0410362 133.101736,40.9111923 132.957605,41.7597842 L119.155511,123.452723 L118.895254,124.996526 C118.830923,125.39093 118.686849,125.767606 118.472072,126.102919 L22.5345056,126.184397 Z" id="Path" fill="#004D8A"></path>
                    <polygon id="Rectangle" fill="#F9FAFB" transform="translate(96.614975, 42.186070) rotate(34.640000) translate(-96.614975, -42.186070) " points="88.3688604 14.4259151 104.666408 14.4832734 104.861089 69.9462256 88.5635408 69.8888673"></polygon>
                    <polygon id="Rectangle" fill="#004D8A" transform="translate(108.010268, 24.874870) rotate(34.804012) translate(-108.010268, -24.874870) " points="102.236973 19.0864893 113.742983 19.1270703 113.783564 30.6632514 102.277554 30.6226704"></polygon>
                    <polygon id="Rectangle" fill="#004D8A" opacity="0.5" transform="translate(100.652225, 36.324663) rotate(34.640000) translate(-100.652225, -36.324663) " points="94.8712795 30.5283796 106.392622 30.5689283 106.433171 42.1209473 94.9118283 42.0803986"></polygon>
                    <polygon id="Rectangle" fill="#004D8A" opacity="0.3" transform="translate(92.762750, 47.827237) rotate(34.640000) translate(-92.762750, -47.827237) " points="86.9818042 42.0309531 98.5031467 42.0715019 98.5436954 53.6235209 87.022353 53.5829722"></polygon>
                    <g id="Group" opacity="0.5" transform="translate(69.232877, 10.893617)" fill="url(#linearGradient-1)">
                        <polygon id="Rectangle" transform="translate(16.457601, 29.095582) rotate(-73.710000) translate(-16.457601, -29.095582) " points="-11.1666793 20.4252962 43.6598607 21.535381 44.0818806 37.7658684 -10.7446594 36.6557835"></polygon>
                    </g>
                    <polygon id="Rectangle" fill="#F9FAFB" transform="translate(86.804094, 40.673847) rotate(16.290000) translate(-86.804094, -40.673847) " points="78.6144802 12.9799821 94.8820503 13.013004 94.9937068 68.3677112 78.7261368 68.3346892"></polygon>
                    <polygon id="Rectangle" fill="#349FE3" transform="translate(92.664123, 20.510920) rotate(16.290000) translate(-92.664123, -20.510920) " points="86.9023754 14.7126421 98.4025254 14.7359865 98.4258698 26.309198 86.9257198 26.2858536"></polygon>
                    <polygon id="Rectangle" fill="#349FE3" opacity="0.5" transform="translate(88.771547, 33.929897) rotate(16.290000) translate(-88.771547, -33.929897) " points="83.0097998 28.1316192 94.5099498 28.1549637 94.5332942 39.7281752 83.0331442 39.7048308"></polygon>
                    <polygon id="Rectangle" fill="#349FE3" opacity="0.3" transform="translate(84.879568, 47.346816) rotate(16.290000) translate(-84.879568, -47.346816) " points="79.1178211 41.5485384 90.6179711 41.5718829 90.6413155 53.1450944 79.1411655 53.1217499"></polygon>
                    <g id="Group" opacity="0.5" transform="translate(70.143836, 11.801418)" fill="url(#linearGradient-2)">
                        <polygon id="Rectangle" transform="translate(10.949336, 29.086118) rotate(-85.400000) translate(-10.949336, -29.086118) " points="-17.0099899 21.6304957 39.2488769 20.4311655 38.9086842 36.5417389 -17.3501826 37.7410691"></polygon>
                    </g>
                    <polygon id="Rectangle" fill="#F9FAFB" transform="translate(81.555698, 40.894227) rotate(4.600000) translate(-81.555698, -40.894227) " points="73.4097678 13.1969905 89.6684766 13.2067952 89.701629 68.5914645 73.4429201 68.5816598"></polygon>
                    <polygon id="Rectangle" fill="#73B53B" opacity="0.57859003" transform="translate(83.231008, 19.954408) rotate(4.600000) translate(-83.231008, -19.954408) " points="77.4805993 14.1612041 88.974485 14.1681354 88.9814163 25.7476112 77.4875306 25.7406799"></polygon>
                    <polygon id="Rectangle" fill="#73B53B" opacity="0.5" transform="translate(82.116940, 33.886729) rotate(4.600000) translate(-82.116940, -33.886729) " points="76.3665314 28.0935257 87.8604171 28.100457 87.8673484 39.6799328 76.3734627 39.6730015"></polygon>
                    <polygon id="Rectangle" fill="#73B53B" opacity="0.3" transform="translate(81.004822, 47.823504) rotate(4.600000) translate(-81.004822, -47.823504) " points="75.254414 42.0303005 86.7482996 42.0372318 86.7552309 53.6167076 75.2613453 53.6097763"></polygon>
                    <polygon id="Rectangle" fill="#004D8A" opacity="0.3" transform="translate(78.053345, 49.086980) rotate(-2.610000) translate(-78.053345, -49.086980) " points="72.3085633 43.2990254 83.8020711 43.2950811 83.7981269 54.8749348 72.3046191 54.8788791"></polygon>
                    <path d="M75.609589,87.8245497 L61.0603802,93.4534033 L39.7959871,101.673759 C38.9922226,100.173303 37.8090813,98.1455437 36.3451582,95.7255224 C31.3082341,87.3786999 22.974804,74.3954682 15.5544503,62.9855718 C7.19529965,50.1245201 0,39.2719359 0,39.2719359 L5.20839385,37.7714799 L47.7543271,25.4184397 L75.609589,87.8245497 Z" id="Path" stroke="#E2E2E2" fill="#FFFFFF"></path>
                    <path d="M75.609589,86.5324604 L61.1131252,92.1266524 C53.0149987,93.8096233 44.751083,94.5672132 36.4810959,94.3847801 C31.4624321,86.0893561 23.1592129,73.1860733 15.7657601,61.8464374 L5.46575342,36.779089 L47.8553102,24.5106383 L75.609589,86.5324604 Z" id="Path" fill="#000000" opacity="0.1"></path>
                    <path d="M85.630137,82.6620421 C85.630137,82.6620421 62.8763349,96.0945057 28.9042288,93.0561591 L1.82191781,27.164305 L14.8009713,24.9377633 L59.6698722,17.248227 L85.1316895,81.3808116 L85.630137,82.6620421 Z" id="Path" fill="#004D8A"></path>
                    <path d="M85.630137,84.2735879 C80.3553523,84.5369878 74.2520674,84.5110796 68.1126684,83.7662193 C61.4676718,82.9717016 54.7844368,81.3351679 49.0550392,78.3341365 C44.2646084,75.8275195 40.1688433,73.100683 36.5977949,69.8297747 C27.3079708,61.3383669 21.5594539,49.1917461 16.3972603,27.6814753 L60.5711921,19.9716312 L85.630137,84.2735879 Z" id="Path" fill="#000000" opacity="0.1"></path>
                    <path d="M102.027397,78.0095214 C102.027397,78.0095214 85.4012241,81.2199286 68.4777348,79.2434821 C61.787053,78.467247 55.0578699,76.8683714 49.2890819,73.9363963 C44.4657163,71.4874588 40.3439312,68.8233692 36.7461925,65.6277273 C25.1701151,55.3573771 19.0569538,39.6175224 12.7534247,7.83195936 C12.7534247,7.83195936 40.3931274,14.410974 67.7248192,0 C67.7162634,0.010546673 76.9287846,56.705242 102.027397,78.0095214 Z" id="Path" stroke="#B2C9DB" fill="#FFFFFF"></path>
                    <path d="M69.2328767,79.8865248 C62.5101412,79.1003074 55.7487199,77.4808705 49.9522949,74.5111906 C45.1058216,72.0307602 40.9642898,69.3324108 37.3493151,66.0956734 C47.2528845,65.2966372 48.6756629,59.9148936 48.6756629,59.9148936 C56.0173715,71.4966451 69.2328767,79.8865248 69.2328767,79.8865248 Z" id="Path" fill="#000000" opacity="0.1"></path>
                    <path d="M26.4178082,19.011526 C26.4178082,19.011526 49.8541234,17.7021277 56.3979138,12.7092199 L57.390411,15.8614751 C57.390411,15.8614751 41.9052248,22.6134736 26.4178082,22.6950355 L26.4178082,19.011526 Z" id="Path" fill="#004D8A"></path>
                    <path d="M26.4178082,34.5624823 C26.4178082,34.5624823 48.4104203,33.369688 65.0270125,25.4184397 L65.5890411,26.6904681 C65.5890411,26.6904681 52.4029851,34.3162142 26.4178082,36.3120567 L26.4178082,34.5624823 Z" id="Path" fill="#004D8A" opacity="0.3"></path>
                    <path d="M29.1506849,41.8248937 C29.1506849,41.8248937 51.1445107,40.6320993 67.7598582,32.6808511 L68.3219178,33.9528795 C68.3219178,33.9528795 55.1351341,41.5764841 29.1506849,43.5744681 L29.1506849,41.8248937 Z" id="Path" fill="#004D8A" opacity="0.3"></path>
                    <path d="M30.0616438,47.2717022 C30.0616438,47.2717022 52.0554696,46.0789079 68.6729788,38.1276596 L69.2328767,39.399688 C69.2328767,39.399688 56.046093,47.025434 30.0616438,49.0212766 L30.0616438,47.2717022 Z" id="Path" fill="#004D8A" opacity="0.3"></path>
                    <path d="M31.8835616,51.8107093 C31.8835616,51.8107093 53.8773874,50.6179149 70.4927349,42.6666667 L71.0547945,43.9386951 C71.0547945,43.9386951 57.8680108,51.5644411 31.8835616,53.5602837 L31.8835616,51.8107093 Z" id="Path" fill="#004D8A" opacity="0.3"></path>
                    <path d="M32.7945205,58.1653192 C32.7945205,58.1653192 54.7883463,56.9725249 71.4058556,49.0212766 L71.9657534,50.293305 C71.9657534,50.293305 58.7789697,57.9169096 32.7945205,59.9148936 L32.7945205,58.1653192 Z" id="Path" fill="#004D8A" opacity="0.3"></path>
                    <path d="M118.501089,126.596524 C118.098911,126.920687 117.593718,127.096067 117.073456,127.092134 L20.7254829,126.689716 C20.2028489,126.071843 19.9632742,125.269399 20.0634235,124.47218 L29.5824143,47.976719 L35.5517316,47.9131793 C36.5783973,47.9030469 37.4825107,48.5751029 37.7514078,49.5482679 L38.8663417,53.5893937 C39.1379918,54.5734205 40.058381,55.2483115 41.0962095,55.2244823 L64.919565,54.6632148 C66.144275,54.6344587 67.1217477,53.650955 67.1213977,52.4477968 L67.1213977,49.7706569 C67.1213164,48.5569725 68.1155692,47.5691626 69.3512655,47.5552389 L102.36366,47.2057705 C103.45354,47.1958336 104.394772,47.952651 104.599998,49.0039444 L119.199809,123.980806 L119.294697,124.463708 C119.452418,125.264103 119.147115,126.084601 118.501089,126.596524 Z" id="Path" fill="#000000" opacity="0.1"></path>
                    <path d="M68.9688318,48.4630392 C67.7460688,48.4758013 66.7612777,49.4626114 66.7601763,50.6762228 L66.7601763,53.3553398 C66.759393,54.5568086 65.7937518,55.5386593 64.5835302,55.5685234 L41.0117337,56.1297614 C39.9837361,56.1553499 39.0713976,55.4799726 38.8030782,54.4947587 L37.6955494,50.4559634 C37.4299275,49.4816378 36.5337254,48.8091088 35.5167694,48.8209607 L4.0300903,49.1577035 C3.37719525,49.1640497 2.75990146,49.4540575 2.34110101,49.9511993 C1.92230056,50.4483412 1.74407119,51.1026682 1.85344424,51.741516 L14.5206707,125.731739 C14.7022268,126.793618 15.6270233,127.572027 16.7122546,127.576412 L116.18498,127.999987 C116.851549,128.002219 117.484242,127.708678 117.909996,127.199658 C118.33575,126.690637 118.510006,126.019411 118.385099,125.369582 L103.848518,49.9116685 C103.646228,48.8599652 102.714367,48.1027948 101.635595,48.1135891 L68.9688318,48.4630392 Z" id="Path" stroke="#B2C9DB" fill="#FFFFFF"></path>
                    <path d="M59.3834258,89.9479969 L59.9360865,90.4854646 C60.0555162,90.5942275 60.1232877,90.7462406 60.1232877,90.9053612 C60.1232877,91.0644817 60.0555162,91.2164949 59.9360865,91.3252578 L55.0873523,96.0448955 C54.9755149,96.1610419 54.8192047,96.2269504 54.6555861,96.2269504 C54.4919676,96.2269504 54.3356574,96.1610419 54.22382,96.0448955 L49.3750857,91.3294567 C49.2579424,91.2194694 49.1917808,91.0679131 49.1917808,90.9095601 C49.1917808,90.7512072 49.2579424,90.5996509 49.3750857,90.4896635 L49.9277465,89.9521959 C50.0408429,89.8382729 50.1966834,89.7739302 50.3595126,89.7739302 C50.5223419,89.7739302 50.6781824,89.8382729 50.7912788,89.9521959 L53.6582063,92.8914721 L53.6582063,85.9169896 C53.6570557,85.7625817 53.719323,85.6141135 53.8311891,85.5045343 C53.9430552,85.3949551 54.0952668,85.3333293 54.2540436,85.3333333 L55.052811,85.3333333 C55.3842675,85.3333333 55.652966,85.5946451 55.652966,85.9169896 L55.652966,92.8830742 L58.5198935,89.943798 C58.6335746,89.830423 58.7897463,89.7668367 58.9525762,89.7676285 C59.1154061,89.7684203 59.2709162,89.8335221 59.3834258,89.9479969 Z" id="Path" fill="#004D8A" opacity="0.241280692"></path>
                    <path d="M54.6575342,77.3388241 C62.106789,77.3388241 68.1456032,83.356707 68.1456032,90.7801418 C68.1456032,98.2035767 62.106789,104.22146 54.6575342,104.22146 C47.2082795,104.22146 41.1694653,98.2035767 41.1694653,90.7801418 C41.1759917,83.3594026 47.2109844,77.3453278 54.6575342,77.3388241 Z M54.6575342,75.3475177 C46.1046862,75.3475177 39.1712329,82.2569389 39.1712329,90.7801418 C39.1712329,99.3033448 46.1046862,106.212766 54.6575342,106.212766 C63.2103823,106.212766 70.1438356,99.3033448 70.1438356,90.7801418 C70.1438356,82.2569389 63.2103823,75.3475177 54.6575342,75.3475177 Z" id="Shape" fill="#004D8A" fill-rule="nonzero" opacity="0.241280692"></path>
                </g>
            </g>
        </g>
    </g>
</svg>