<?xml version="1.0" encoding="UTF-8"?>
<svg width="16px" height="21px" viewBox="0 0 16 21" version="1.1" xmlns="http://www.w3.org/2000/svg" xmlns:xlink="http://www.w3.org/1999/xlink">
    <!-- Generator: Sketch 52.6 (67491) - http://www.bohemiancoding.com/sketch -->
    <title>file-alt</title>
    <desc>Created with Sketch.</desc>
    <g id="Do-pobrania" stroke="none" stroke-width="1" fill="none" fill-rule="evenodd">
        <g id="Lista-dokumentów" transform="translate(-365.000000, -337.000000)" fill-rule="nonzero">
            <g id="file-alt" transform="translate(365.000000, 337.000000)">
                <path d="M9.33333333,5.46428571 C9.33333333,5.99464286 9.78333333,6.42857143 10.3333333,6.42857143 L16,6.42857143 L16,19.6071429 C16,20.1415179 15.5541667,20.5714286 15,20.5714286 L1,20.5714286 C0.445833333,20.5714286 -1.24344979e-14,20.1415179 -1.24344979e-14,19.6071429 L-1.24344979e-14,0.964285714 C-1.24344979e-14,0.429910714 0.445833333,1.77635684e-15 1,1.77635684e-15 L9.33333333,1.77635684e-15 L9.33333333,5.46428571 Z M12,14.9464286 L12,14.625 C12,14.3598214 11.775,14.1428571 11.5,14.1428571 L4.5,14.1428571 C4.225,14.1428571 4,14.3598214 4,14.625 L4,14.9464286 C4,15.2116071 4.225,15.4285714 4.5,15.4285714 L11.5,15.4285714 C11.775,15.4285714 12,15.2116071 12,14.9464286 Z M12,12.375 L12,12.0535714 C12,11.7883929 11.775,11.5714286 11.5,11.5714286 L4.5,11.5714286 C4.225,11.5714286 4,11.7883929 4,12.0535714 L4,12.375 C4,12.6401786 4.225,12.8571429 4.5,12.8571429 L11.5,12.8571429 C11.775,12.8571429 12,12.6401786 12,12.375 Z M12,9.48214286 C12,9.21696429 11.775,9 11.5,9 L4.5,9 C4.225,9 4,9.21696429 4,9.48214286 L4,9.80357143 C4,10.06875 4.225,10.2857143 4.5,10.2857143 L11.5,10.2857143 C11.775,10.2857143 12,10.06875 12,9.80357143 L12,9.48214286 Z" id="Combined-Shape" fill="#148BE7"></path>
                <path d="M16,4.89776786 L16,5.14285714 L10.6666667,5.14285714 L10.6666667,0 L10.9208333,0 C11.1875,0 11.4416667,0.100446429 11.6291667,0.28125 L15.7083333,4.21875 C15.8958333,4.39955357 16,4.64464286 16,4.89776786 Z" id="Path" fill="#1C71B4"></path>
            </g>
        </g>
    </g>
</svg>