<?xml version="1.0" encoding="UTF-8"?>
<svg width="16px" height="21px" viewBox="0 0 16 21" version="1.1" xmlns="http://www.w3.org/2000/svg" xmlns:xlink="http://www.w3.org/1999/xlink">
    <!-- Generator: Sketch 52.6 (67491) - http://www.bohemiancoding.com/sketch -->
    <title>file-archive</title>
    <desc>Created with Sketch.</desc>
    <g id="Do-pobrania" stroke="none" stroke-width="1" fill="none" fill-rule="evenodd">
        <g id="Lista-dokumentów" transform="translate(-365.000000, -437.000000)" fill-rule="nonzero">
            <g id="file-archive" transform="translate(365.000000, 437.000000)">
                <path d="M9.33333333,5.46428571 C9.33333333,5.99464286 9.78333333,6.42857143 10.3333333,6.42857143 L16,6.42857143 L16,19.6071429 C16,20.1415179 15.5541667,20.5714286 15,20.5714286 L1,20.5714286 C0.445833333,20.5714286 -1.24344979e-14,20.1415179 -1.24344979e-14,19.6071429 L-1.24344979e-14,0.964285714 C-1.24344979e-14,0.429910714 0.445833333,1.77635684e-15 1,1.77635684e-15 L5.35,1.77635684e-15 L5.35,1.28571429 L6.68333333,1.28571429 L6.68333333,1.77635684e-15 L9.33333333,1.77635684e-15 L9.33333333,5.46428571 Z M5.34166667,16.7142857 C6.71666667,16.7142857 7.75,15.5008929 7.48333333,14.1991071 L6.7625,10.6754464 C6.71666667,10.4504464 6.50833333,10.2857143 6.27083333,10.2857143 L5.35,10.2857143 L5.35,9 L6.68333333,9 L6.68333333,7.71428571 L5.35,7.71428571 L5.35,6.42857143 L6.68333333,6.42857143 L6.68333333,5.14285714 L5.35,5.14285714 L5.35,3.85714286 L6.68333333,3.85714286 L6.68333333,2.57142857 L5.35,2.57142857 L5.35,3.85714286 L4.01666667,3.85714286 L4.01666667,5.14285714 L5.35,5.14285714 L5.35,6.42857143 L4.01666667,6.42857143 L4.01666667,7.71428571 L5.35,7.71428571 L5.35,9 L4.01666667,9 L4.01666667,10.2857143 L3.2,14.1870536 C2.925,15.4928571 3.95833333,16.7142857 5.34166667,16.7142857 Z" id="Combined-Shape" fill="#F9BC3D"></path>
                <polygon id="Path" fill="#F9BC3D" points="3.99583333 1.28571429 5.32916667 1.28571429 5.32916667 2.57142857 3.99583333 2.57142857"></polygon>
                <path d="M6.70416667,14.5848214 C6.70416667,15.1834821 6.1,15.6696429 5.35416667,15.6696429 C4.60833333,15.6696429 4,15.1875 4,14.5848214 C4,13.9861607 4.60416667,13.5 5.35,13.5 C6.09583333,13.5 6.70416667,13.9861607 6.70416667,14.5848214 Z" id="Path" fill="#F9BC3D"></path>
                <path d="M16,4.89776786 L16,5.14285714 L10.6666667,5.14285714 L10.6666667,0 L10.9208333,0 C11.1875,0 11.4416667,0.100446429 11.6291667,0.28125 L15.7083333,4.21875 C15.8958333,4.39955357 16,4.64464286 16,4.89776786 Z" id="Path" fill="#E0980F"></path>
            </g>
        </g>
    </g>
</svg>