<?xml version="1.0" encoding="UTF-8"?>
<svg width="264px" height="263px" viewBox="0 0 264 263" version="1.1" xmlns="http://www.w3.org/2000/svg" xmlns:xlink="http://www.w3.org/1999/xlink">
    <!-- Generator: Sketch 52.6 (67491) - http://www.bohemiancoding.com/sketch -->
    <title>Zapytania</title>
    <desc>Created with Sketch.</desc>
    <g id="Puste-strony" stroke="none" stroke-width="1" fill="none" fill-rule="evenodd">
        <g id="Grafiki-puste-strony" transform="translate(-1105.000000, -501.000000)">
            <g id="Zapytania" transform="translate(1105.000000, 501.000000)">
                <circle id="Oval" fill="#575988" cx="111.55" cy="187.55" r="1"></circle>
                <circle id="Oval-Copy" fill="#F7F9FB" cx="131.6" cy="131.5" r="131.5"></circle>
                <g id="Group-8" transform="translate(65.000000, 71.000000)">
                    <g id="Group" opacity="0.1" transform="translate(0.000000, 0.618000)" fill="#000000">
                        <path d="M125.532042,1.33882353 L8.17042254,1.33882353 C4.78699039,1.34916045 3.01005484,-0.619079239 3,2.85927273 L1,90.382 C1.01005484,93.860352 0.21656785,92.2352581 3.6,92.245595 L100.236972,90.1858824 C100.236972,90.1858824 102.621831,103.202353 94.7852113,104.604706 C94.7852113,104.604706 112.335211,105.898824 109.26831,90.1858824 L125.532042,90.1858824 C128.915474,90.1755454 131.65579,87.358352 131.665845,83.88 L131.665845,7.64470588 C131.65579,4.16635392 128.915474,1.34916045 125.532042,1.33882353 Z" id="Path"></path>
                        <g opacity="0.2" transform="translate(18.936620, 21.235294)" id="Rectangle">
                            <rect x="0.375352113" y="0.338823529" width="95.0739437" height="5.95764706" rx="2.97882353"></rect>
                            <rect x="0.375352113" y="26.9647059" width="95.0739437" height="5.95764706" rx="2.97882353"></rect>
                            <rect x="0.375352113" y="40.2729412" width="79.7302817" height="5.95764706" rx="2.97882353"></rect>
                            <rect x="0.375352113" y="13.6517647" width="41.2246479" height="5.95764706" rx="2.97882353"></rect>
                        </g>
                    </g>
                    <g id="Group-5" transform="translate(4.000000, 0.618000)">
                        <path d="M3.53532304,0.696682648 C1.72629012,0.702209531 0.286126088,-0.873613106 0.0353230438,0.696682648 C-0.182950551,2.0633092 0.681903233,6.46616823 0.677224452,8.08473612 C0.434011126,43.705452 0.253377323,70.3141157 0.135323044,87.9107274 C0.135323044,91.5171727 0.0353230438,90.8785008 2.49992265,90.8785008 L98.8775766,90.6259126 C98.8775766,90.6259126 101.267013,103.642383 93.425816,105.04003 C93.425816,105.04003 110.975816,106.334148 107.908915,90.6259126 L124.177224,90.6259126 C127.559909,90.6155635 130.298908,87.7976208 130.30645,84.3200302 L130.30645,8.08473612 C130.298908,4.60714552 127.559909,1.78920283 124.177224,1.77885377 L3.53532304,0.696682648 Z" id="Path" fill="#FFFFFF"></path>
                        <g id="Group" transform="translate(18.000000, 21.000000)">
                            <rect id="Rectangle" fill="#004D8A" x="0.0274647887" y="0.282352941" width="33.3790284" height="19.8087109" rx="2"></rect>
                            <rect id="Rectangle" fill="#C1D4E2" x="0" y="30" width="83.4408922" height="3.95764706" rx="1.97882353"></rect>
                            <rect id="Rectangle" fill="#C1D4E2" x="0" y="38" width="35.4408922" height="3.95764706" rx="1.97882353"></rect>
                            <rect id="Rectangle" fill="#C1D4E2" x="51" y="3" width="41.2246479" height="3.95764706" rx="1.97882353"></rect>
                            <rect id="Rectangle" fill="#C1D4E2" x="51" y="13" width="41.5101283" height="3.95764706" rx="1.97882353"></rect>
                        </g>
                        <text id="?" stroke="#C1D4E2" fill="#C1D4E2" font-family="ComicSansMS-Bold, Comic Sans MS" font-size="14" font-weight="bold" letter-spacing="0.07272725">
                            <tspan x="31.0022106" y="36">?</tspan>
                        </text>
                    </g>
                </g>
                <ellipse id="Ellipse_31" fill="#DDE7EF" transform="translate(132.708000, 221.191000) scale(1, -1) translate(-132.708000, -221.191000) " cx="132.708" cy="221.191" rx="40.708" ry="3.191"></ellipse>
                <g id="Group-12" transform="translate(179.236781, 162.600000) rotate(-10.000000) translate(-179.236781, -162.600000) translate(133.736781, 137.100000)">
                    <polygon id="Path" fill="#FFFFFF" points="90.9166605 5.14361769 90.2163689 5.01554923 90.4574529 4.8641956 89.9982453 4.98062147 0.916660498 3.63892627e-13 9.33234924 15.8397041 10.8378091 17.6735472 9.33234924 41.8664704 17.1059484 38.4479896 20.4196852 49 87.8399694 6.5640133"></polygon>
                    <polygon id="Path" fill="#0B3878" opacity="0.813267299" points="11.1656301 39 88.9166605 5.65590926 23.9147263 4 10.9166605 15.6317529"></polygon>
                    <polygon id="Path" fill="#C1D4E2" points="88.9166605 5.3613924 11.7766319 17 3.9166605 2"></polygon>
                    <polygon id="Path" fill="#C1D4E2" points="19.3193172 51 89.9166605 6 13.9166605 20.9006848 21.3939386 47.6714538"></polygon>
                </g>
                <g id="Group-12" opacity="0.242931548" transform="translate(25.000000, 103.586410)">
                    <polygon id="Path" fill="#FFFFFF" points="36 2.09943579 35.7198834 2.04716295 35.816317 1.98538596 35.6326339 2.03290672 0 1.48527603e-13 3.3662755 6.46518534 3.96845944 7.21369275 3.3662755 17.0883553 6.47571517 15.693057 7.80120988 20 34.7693236 2.6791891"></polygon>
                    <polygon id="Path" fill="#0B3878" opacity="0.813267299" points="4.09575755 15 34 1.6623637 8.99925606 1 4 5.65270114"></polygon>
                    <polygon id="Path" fill="#C1D4E2" points="35 2.34455696 5.0515183 7 2 1"></polygon>
                    <polygon id="Path" fill="#C1D4E2" points="8.13262765 21 36 3 6 8.9602739 8.95155714 19.6685815"></polygon>
                </g>
                <g id="Group-12" opacity="0.242931548" transform="translate(158.586757, 43.799308) rotate(24.000000) translate(-158.586757, -43.799308) translate(145.086757, 35.799308)">
                    <polygon id="Path" fill="#FFFFFF" points="26 1.46960505 25.7976935 1.43301407 25.86734 1.38977017 25.73468 1.42303471 9.09494702e-13 4.45029835e-13 2.43119897 4.52562974 2.8661096 5.04958493 2.43119897 11.9618487 4.6769054 10.9851399 5.63420714 14 25.1111781 1.87543237"></polygon>
                    <polygon id="Path" fill="#0B3878" opacity="0.813267299" points="3.0702222 11 25 1.47311693 6.66612111 1 3 4.32335796"></polygon>
                    <polygon id="Path" fill="#C1D4E2" points="24.5932634 0.982825849 2.81254939 4.08645454 0.593263357 0.0864545424"></polygon>
                    <polygon id="Path" fill="#C1D4E2" transform="translate(15.000000, 8.500000) rotate(-5.000000) translate(-15.000000, -8.500000) " points="5.56392694 15 26 2 4 6.30464226 6.16447524 14.03842"></polygon>
                </g>
            </g>
        </g>
    </g>
</svg>