<?xml version="1.0" encoding="UTF-8"?>
<svg width="263px" height="263px" viewBox="0 0 263 263" version="1.1" xmlns="http://www.w3.org/2000/svg" xmlns:xlink="http://www.w3.org/1999/xlink">
    <!-- Generator: Sketch 52.6 (67491) - http://www.bohemiancoding.com/sketch -->
    <title>Zamówienia</title>
    <desc>Created with Sketch.</desc>
    <defs>
        <polygon id="path-1" points="7.88738377 98.8644428 58.2117321 104.132974 63.9773838 23.013632 13.6530354 15.6391464"></polygon>
        <filter x="-12.5%" y="-5.7%" width="125.0%" height="115.8%" filterUnits="objectBoundingBox" id="filter-2">
            <feOffset dx="0" dy="2" in="SourceAlpha" result="shadowOffsetOuter1"></feOffset>
            <feGaussianBlur stdDeviation="2" in="shadowOffsetOuter1" result="shadowBlurOuter1"></feGaussianBlur>
            <feColorMatrix values="0 0 0 0 0.288655698   0 0 0 0 0.56455189   0 0 0 0 0.886238694  0 0 0 0.215919384 0" type="matrix" in="shadowBlurOuter1"></feColorMatrix>
        </filter>
        <polygon id="path-3" points="75.6057631 110.752734 51.4242735 25.8939526 57.0966718 19.1174542 67.4920795 17.4955908 96.4205128 102.009124"></polygon>
        <filter x="-15.6%" y="-5.4%" width="131.1%" height="115.0%" filterUnits="objectBoundingBox" id="filter-4">
            <feOffset dx="0" dy="2" in="SourceAlpha" result="shadowOffsetOuter1"></feOffset>
            <feGaussianBlur stdDeviation="2" in="shadowOffsetOuter1" result="shadowBlurOuter1"></feGaussianBlur>
            <feColorMatrix values="0 0 0 0 0.948155825   0 0 0 0 0.948155825   0 0 0 0 0.948155825  0 0 0 0.5 0" type="matrix" in="shadowBlurOuter1"></feColorMatrix>
        </filter>
    </defs>
    <g id="Puste-strony" stroke="none" stroke-width="1" fill="none" fill-rule="evenodd">
        <g id="Grafiki-puste-strony" transform="translate(-63.000000, -36.000000)">
            <g id="Zamówienia" transform="translate(63.000000, 36.000000)">
                <g id="Group-7" fill="#F7F9FB">
                    <g id="Group-27">
                        <g id="Pusta-lista---Oferty-wszystkie">
                            <g id="Offers-2">
                                <circle id="Oval" cx="131.5" cy="131.5" r="131.5"></circle>
                            </g>
                        </g>
                    </g>
                </g>
                <g id="Group-10" transform="translate(52.000000, 62.000000)">
                    <g id="Group-2" transform="translate(41.628963, 58.838527) rotate(-10.000000) translate(-41.628963, -58.838527) translate(9.628963, 6.338527)">
                        <polygon id="Path" fill="#4A90E2" points="15.1793762 16.4292698 10.3762527 16.4292698 0.777383771 98.6021093 22.1073838 97.5593803"></polygon>
                        <polygon id="Path" fill="#000000" opacity="0.2" points="15.1793762 16.4292698 10.3762527 16.4292698 0.777383771 98.6021093 22.1073838 97.5593803"></polygon>
                        <g id="Path">
                            <use fill="black" fill-opacity="1" filter="url(#filter-2)" xlink:href="#path-1"></use>
                            <use fill="#FFFFFF" fill-rule="evenodd" xlink:href="#path-1"></use>
                        </g>
                        <ellipse id="Oval" fill="#000000" opacity="0.2" cx="27.2423838" cy="23.1453192" rx="1.185" ry="1.18518519"></ellipse>
                        <ellipse id="Oval" fill="#000000" opacity="0.2" cx="48.5723838" cy="25.5156896" rx="1.185" ry="1.18518519"></ellipse>
                        <path d="M48.9651654,25.9107513 L48.4448001,25.9107513 C48.4448001,25.6836377 48.8133922,3.34591767 36.1583958,1.28724291 C33.6649785,0.884299449 31.6268809,1.45574654 30.1019213,2.98693168 C24.8765858,8.23984912 27.0375475,23.0754946 27.0592294,23.2220195 L26.5460914,23.3026082 C26.4521365,22.6798774 24.3273113,8.04936676 29.7405565,2.6132932 C31.3883801,0.950235651 33.5854783,0.327504853 36.2451234,0.759753289 C49.3409849,2.88436425 48.9723927,25.6836377 48.9651654,25.9107513 Z" id="Path" fill="#004D8A"></path>
                    </g>
                    <g id="Group-15" transform="translate(105.082445, 64.269435) rotate(5.000000) translate(-105.082445, -64.269435) translate(56.582445, 4.769435)">
                        <g id="Path">
                            <use fill="black" fill-opacity="1" filter="url(#filter-4)" xlink:href="#path-3"></use>
                            <use fill="#FFFFFF" fill-rule="evenodd" xlink:href="#path-3"></use>
                        </g>
                        <polygon id="Path" fill="#FFFFFF" opacity="0.2" points="75.6057631 110.752734 51.4242735 25.8939526 57.0966718 19.1174542 67.4920795 17.4955908 96.4205128 102.009124"></polygon>
                        <polygon id="Path" fill="#004D8A" points="20.2023932 23.974702 38.8766263 113.495591 75.2998291 110.678052 56.6336417 19.3241623"></polygon>
                        <polygon id="Path" fill="#004D8A" opacity="0.07" points="20.2023932 23.974702 38.8766263 113.495591 75.2998291 110.678052 56.6336417 19.3241623"></polygon>
                        <polygon id="Path" fill="#C1D4E2" points="58.7705983 116.334343 35.8133333 118.067019 39.347726 30.3393089 46.9947185 25.7241623 57.5897528 27.4568384"></polygon>
                        <polygon id="Path" fill="#FFFFFF" opacity="0.2" points="58.7705983 116.334343 35.8133333 118.067019 39.347726 30.3393089 46.9947185 25.7241623 57.5897528 27.4568384"></polygon>
                        <polygon id="Path" fill="#004D8A" points="45.9145299 25.3673607 10.3311663 18.4098765 9.09494702e-13 109.37818 35.0116158 118.067019"></polygon>
                        <path d="M33.7707719,7.32394089 C34.3980757,4.5008309 35.7168557,2.10089173 38.146147,0.802642936 C39.9901493,-0.183606543 41.7783728,-0.124656871 43.4429142,0.986018518 C48.90372,4.61041619 51.2929109,18.1362195 51.3920132,18.7127236 L50.9919033,18.756783 C50.9682717,18.621231 48.5502593,4.90434881 43.2775146,1.40081936 C41.7392124,0.379977271 40.0820809,0.330837892 38.3527097,1.25340531 C36.1075454,2.4547356 34.8502313,4.64755562 34.2232367,7.24913902 C34.3800839,7.22811857 34.5388528,7.21187709 34.699565,7.20056976 C36.8016066,7.05197573 38.4274244,7.83844364 39.5117201,9.5381424 C43.0768004,15.0965463 39.7841996,28.4713241 39.6413409,29.0402724 L39.2543031,28.9167705 C39.2875887,28.78286 42.6312529,15.2211563 39.1905534,9.85055454 C38.1862152,8.28489306 36.6773531,7.56111033 34.7069477,7.69829272 C34.5041099,7.71266816 34.3044651,7.73529132 34.1079671,7.76582352 C32.556418,15.3052041 35.9073059,25.8380424 35.9519682,25.9853354 L35.5683192,26.1028871 C35.5205356,25.959052 32.2072324,15.5380922 33.6627593,7.84957339 C24.5475462,9.8668642 22.4658835,29.1781818 22.441153,29.3813922 L22.0394347,29.3319871 C22.0588887,29.1270271 24.2115097,9.20765249 33.7707719,7.32394089 Z" id="Path-2" fill="#004D8A"></path>
                    </g>
                </g>
                <ellipse id="Ellipse_31" fill="#DDE7EF" transform="translate(131.708000, 203.691000) scale(1, -1) translate(-131.708000, -203.691000) " cx="131.708" cy="203.691" rx="57.708" ry="5.691"></ellipse>
            </g>
        </g>
    </g>
</svg>