<?xml version="1.0" encoding="UTF-8"?>
<svg width="263px" height="263px" viewBox="0 0 263 263" version="1.1" xmlns="http://www.w3.org/2000/svg" xmlns:xlink="http://www.w3.org/1999/xlink">
    <!-- Generator: Sketch 52.6 (67491) - http://www.bohemiancoding.com/sketch -->
    <title>Płatności</title>
    <desc>Created with Sketch.</desc>
    <defs>
        <rect id="path-1" x="0.533058358" y="0.500251795" width="145" height="88" rx="5"></rect>
        <filter x="-4.8%" y="-5.7%" width="109.7%" height="115.9%" filterUnits="objectBoundingBox" id="filter-2">
            <feOffset dx="0" dy="2" in="SourceAlpha" result="shadowOffsetOuter1"></feOffset>
            <feGaussianBlur stdDeviation="2" in="shadowOffsetOuter1" result="shadowBlurOuter1"></feGaussianBlur>
            <feColorMatrix values="0 0 0 0 0.288655698   0 0 0 0 0.56455189   0 0 0 0 0.886238694  0 0 0 0.27513587 0" type="matrix" in="shadowBlurOuter1"></feColorMatrix>
        </filter>
        <linearGradient x1="49.9836601%" y1="100%" x2="49.9836601%" y2="0%" id="linearGradient-3">
            <stop stop-color="#000000" stop-opacity="0.12" offset="0%"></stop>
            <stop stop-color="#000000" stop-opacity="0.09" offset="55%"></stop>
            <stop stop-color="#000000" stop-opacity="0.02" offset="100%"></stop>
        </linearGradient>
        <linearGradient x1="49.9918314%" y1="100.084746%" x2="49.9918314%" y2="0.0847457627%" id="linearGradient-4">
            <stop stop-color="#000000" stop-opacity="0.12" offset="0%"></stop>
            <stop stop-color="#000000" stop-opacity="0.09" offset="55%"></stop>
            <stop stop-color="#000000" stop-opacity="0.02" offset="100%"></stop>
        </linearGradient>
        <linearGradient x1="50%" y1="100%" x2="50%" y2="0%" id="linearGradient-5">
            <stop stop-color="#000000" stop-opacity="0.12" offset="0%"></stop>
            <stop stop-color="#000000" stop-opacity="0.09" offset="55%"></stop>
            <stop stop-color="#000000" stop-opacity="0.02" offset="100%"></stop>
        </linearGradient>
        <linearGradient x1="49.9836601%" y1="100%" x2="49.9836601%" y2="-2.40861944e-13%" id="linearGradient-6">
            <stop stop-color="#000000" stop-opacity="0.12" offset="0%"></stop>
            <stop stop-color="#000000" stop-opacity="0.09" offset="55%"></stop>
            <stop stop-color="#000000" stop-opacity="0.02" offset="100%"></stop>
        </linearGradient>
        <linearGradient x1="50.0081713%" y1="100%" x2="50.0081713%" y2="0%" id="linearGradient-7">
            <stop stop-color="#000000" stop-opacity="0.12" offset="0%"></stop>
            <stop stop-color="#000000" stop-opacity="0.09" offset="55%"></stop>
            <stop stop-color="#000000" stop-opacity="0.02" offset="100%"></stop>
        </linearGradient>
        <linearGradient x1="50.05607%" y1="66.3464826%" x2="50.05607%" y2="32.3464826%" id="linearGradient-8">
            <stop stop-color="#808080" stop-opacity="0.25" offset="0%"></stop>
            <stop stop-color="#808080" stop-opacity="0.12" offset="54%"></stop>
            <stop stop-color="#808080" stop-opacity="0.1" offset="100%"></stop>
        </linearGradient>
        <linearGradient x1="53.579031%" y1="60.8080742%" x2="50.2928369%" y2="33.0015834%" id="linearGradient-9">
            <stop stop-color="#808080" stop-opacity="0.25" offset="0%"></stop>
            <stop stop-color="#808080" stop-opacity="0.12" offset="54%"></stop>
            <stop stop-color="#808080" stop-opacity="0.1" offset="100%"></stop>
        </linearGradient>
    </defs>
    <g id="Puste-strony" stroke="none" stroke-width="1" fill="none" fill-rule="evenodd">
        <g id="Grafiki-puste-strony" transform="translate(-413.000000, -36.000000)">
            <g id="Płatności" transform="translate(413.000000, 36.000000)">
                <circle id="Oval" fill="#F7F9FB" cx="131.5" cy="131.5" r="131.5"></circle>
                <g id="Group-5" transform="translate(16.000000, 59.000000)">
                    <g id="Group-2" transform="translate(112.567408, 61.080380) rotate(-14.000000) translate(-112.567408, -61.080380) translate(38.567408, 16.580380)">
                        <g id="Rectangle">
                            <use fill="black" fill-opacity="1" filter="url(#filter-2)" xlink:href="#path-1"></use>
                            <use fill="#FCFCFC" fill-rule="evenodd" xlink:href="#path-1"></use>
                        </g>
                        <rect id="Rectangle" fill="#E0E0E0" x="14.9913078" y="13.1907241" width="4" height="12"></rect>
                        <rect id="Rectangle" fill="#E0E0E0" x="19.1144126" y="13.188116" width="4" height="12"></rect>
                        <rect id="Rectangle" fill="#E0E0E0" x="24.9361869" y="14.6396474" width="4" height="12"></rect>
                        <rect id="Rectangle" fill="#E0E0E0" x="33.1823965" y="14.6344311" width="4" height="12"></rect>
                        <rect id="Rectangle" fill="#E0E0E0" x="38.517719" y="13.9034491" width="4" height="12"></rect>
                        <rect id="Rectangle" fill="#E0E0E0" x="44.5814152" y="14.3846847" width="4" height="12"></rect>
                        <rect id="Rectangle" fill="#E0E0E0" x="52.8276248" y="14.3794684" width="4" height="12"></rect>
                        <rect id="Rectangle" fill="#E0E0E0" x="59.133243" y="13.8904084" width="4" height="12"></rect>
                        <rect id="Rectangle" fill="#E0E0E0" x="64.2266435" y="14.1297221" width="4" height="12"></rect>
                        <rect id="Rectangle" fill="#E0E0E0" x="74.6553664" y="13.6380539" width="4" height="12"></rect>
                        <rect id="Rectangle" fill="#E0E0E0" x="78.5365493" y="14.6057415" width="4" height="12"></rect>
                        <rect id="Rectangle" fill="#E0E0E0" x="83.8718718" y="13.8747595" width="4" height="12"></rect>
                        <rect id="Rectangle" fill="#004D8A" x="13.7006105" y="73.4347671" width="36" height="5"></rect>
                        <rect id="Rectangle" fill="#C1D4E2" x="14.5188481" y="63.4820635" width="62" height="5"></rect>
                        <path d="M115.876672,43.6532603 C115.866948,43.4098283 115.949121,43.1723306 116.104987,42.9933777 C116.260853,42.8144248 116.477546,42.7087889 116.707064,42.6998705 L117.941868,42.6998705 L117.941868,34.8820739 L106.941868,34.8820739 L106.941868,43.8820739 L115.878469,43.8820739 L115.876672,43.6532603 Z" id="Path" fill="url(#linearGradient-3)"></path>
                        <path d="M117.929916,51.8283227 C117.700435,51.8194042 117.483778,51.7137684 117.327937,51.5348155 C117.172096,51.3558626 117.089937,51.1183649 117.099659,50.8749328 L117.099659,50.6461193 L108.164518,50.6461193 L108.164518,59.6461193 L119.164518,59.6461193 L119.164518,51.8283227 L117.929916,51.8283227 Z" id="Path" fill="url(#linearGradient-4)"></path>
                        <rect id="Rectangle" fill="url(#linearGradient-5)" x="107.082897" y="45.0221747" width="10" height="4"></rect>
                        <path d="M121.383216,51.5954822 C121.39294,51.8389143 121.310767,52.076412 121.154901,52.2553649 C120.999035,52.4343178 120.782342,52.5399536 120.552824,52.5488721 L119.321615,52.5488721 L119.321615,60.3666687 L130.321615,60.3666687 L130.321615,51.3666687 L121.383216,51.3666687 L121.383216,51.5954822 Z" id="Path" fill="url(#linearGradient-6)"></path>
                        <path d="M119.06926,35.8445452 L119.06926,43.6623418 L120.300671,43.6623418 C120.530226,43.6712602 120.746955,43.7768961 120.902846,43.955849 C121.058738,44.1348019 121.140924,44.3722995 121.131198,44.6157316 L121.131198,44.8445452 L130.06926,44.8445452 L130.06926,35.8445452 L119.06926,35.8445452 Z" id="Path" fill="url(#linearGradient-7)"></path>
                        <rect id="Rectangle" fill="url(#linearGradient-5)" x="121.150881" y="46.4684898" width="10" height="4"></rect>
                        <path d="M115.7577,43.6629746 C115.758739,43.1988048 116.130457,42.8230784 116.588635,42.8230796 L117.820907,42.8230796 L117.820907,35.8672218 L106.820907,35.8672218 L106.820907,43.8672218 L115.7577,43.8672218 L115.7577,43.6629746 Z" id="Path" fill="#004D8A"></path>
                        <path d="M117.084585,51.4612829 C116.626329,51.4612841 116.254547,51.0855577 116.253508,50.6213879 L116.253508,50.4190495 L107.315183,50.4190495 L107.315183,58.4190495 L118.315183,58.4190495 L118.315183,51.4612829 L117.084585,51.4612829 Z" id="Path" fill="#004D8A"></path>
                        <rect id="Rectangle" fill="#004D8A" x="107.097749" y="44.9012137" width="9" height="4"></rect>
                        <path d="M122.718353,50.8555336 C122.717314,51.3198142 122.345532,51.6956303 121.887276,51.6956291 L120.654793,51.6956291 L120.654793,58.653147 L131.654793,58.653147 L131.654793,50.653147 L122.718353,50.653147 L122.718353,50.8555336 Z" id="Path" fill="#004D8A"></path>
                        <path d="M119.918595,37.071615 L119.918595,44.0291329 L121.150866,44.0291329 C121.609044,44.0291317 121.980763,44.4049477 121.981802,44.8692283 L121.981802,45.071615 L130.918595,45.071615 L130.918595,37.071615 L119.918595,37.071615 Z" id="Path" fill="#004D8A"></path>
                        <rect id="Rectangle" fill="#004D8A" x="122.377951" y="45.619155" width="9" height="4"></rect>
                        <g id="Group" opacity="0.2" transform="translate(0.157668, 78.001028)" fill="url(#linearGradient-8)">
                            <path d="M0.565,0.745 L0.61,0.595 C0.61,0.595 0.055,0.515 0.565,0.745 Z" id="Path"></path>
                        </g>
                        <g id="Group" opacity="0.2" transform="translate(146.409535, 82.516692)" fill="url(#linearGradient-9)">
                            <path d="M0.315,0.655 L0.365,0.775 C0.765,0.515 0.315,0.655 0.315,0.655 Z" id="Path"></path>
                        </g>
                    </g>
                    <g id="Group-3" transform="translate(127.000000, 88.000000)">
                        <path d="M4.03174047,27.8437755 L1.77845501,26.5346855 C1.77845501,26.5346855 0.723848262,31.1165004 1.06962097,34.3772153 C1.1364574,35.0495797 1.59522208,35.6088855 2.22219665,35.7823852 C7.40878722,37.1215002 32.0854326,42.832255 49.0628724,34.7915602 C49.5631804,34.5510042 49.9048147,34.0535342 49.9618814,33.4824703 C50.1751079,31.4768004 49.4374595,27.3393555 49.1435527,26.5346855 C48.5269247,24.7992406 4.03174047,27.8437755 4.03174047,27.8437755 Z" id="Path" fill="#9BC2E1"></path>
                        <ellipse id="Oval" fill="#004D8A" cx="25.5" cy="26.5" rx="23.5" ry="5.5"></ellipse>
                        <path d="M11.0301748,17.8437755 L8.77672135,16.5346855 C8.77672135,16.5346855 7.72779931,21.1165004 8.06783448,24.3772153 C8.13625737,25.0488716 8.59439232,25.6073681 9.22049606,25.7823852 C14.4074732,27.1215002 39.0859577,32.832255 56.0588996,24.7915602 C56.5606001,24.5546711 56.9047278,24.0590829 56.9637389,23.4884753 C57.171218,21.4828054 56.4335146,17.3393555 56.1395859,16.5346855 C55.5286752,14.7992406 11.0301748,17.8437755 11.0301748,17.8437755 Z" id="Path" fill="#9BC2E1"></path>
                        <ellipse id="Oval" fill="#004D8A" cx="32.5" cy="16.5" rx="23.5" ry="5.5"></ellipse>
                        <path d="M3.02609247,6.82619052 L0.778484566,5.52155522 C0.778484566,5.52155522 -0.276162222,10.1028092 0.0696236103,13.3734156 C0.135529062,14.0457271 0.595212291,14.6044006 1.22224305,14.7742452 C6.40903053,16.1209656 31.0866127,21.8385148 48.0646971,13.7822414 C48.5656796,13.5453868 48.9081172,13.0484628 48.9637402,12.4776061 C49.1712117,10.46955 48.4335353,6.32718255 48.1396173,5.52155522 C47.528729,3.82011839 3.02609247,6.82619052 3.02609247,6.82619052 Z" id="Path" fill="#9BC2E1"></path>
                        <ellipse id="Oval" fill="#004D8A" cx="24.5" cy="5.5" rx="23.5" ry="5.5"></ellipse>
                    </g>
                </g>
                <ellipse id="Ellipse_31" fill="#DDE7EF" transform="translate(128.708000, 218.073000) scale(1, -1) translate(-128.708000, -218.073000) " cx="128.708" cy="218.073" rx="57.708" ry="1.691"></ellipse>
            </g>
        </g>
    </g>
</svg>