<?xml version="1.0" encoding="UTF-8"?>
<svg width="263px" height="263px" viewBox="0 0 263 263" version="1.1" xmlns="http://www.w3.org/2000/svg" xmlns:xlink="http://www.w3.org/1999/xlink">
    <!-- Generator: Sketch 52.6 (67491) - http://www.bohemiancoding.com/sketch -->
    <title>W trakcie realizacji</title>
    <desc>Created with Sketch.</desc>
    <g id="Puste-strony" stroke="none" stroke-width="1" fill="none" fill-rule="evenodd">
        <g id="Grafiki-puste-strony" transform="translate(-758.000000, -483.000000)">
            <g id="W-trakcie-realizacji" transform="translate(758.000000, 483.000000)">
                <g id="Group-23">
                    <g id="Group-21">
                        <g id="Group-3">
                            <g id="Group-27" fill="#F7F9FB">
                                <g id="Pusta-lista---Oferty-wszystkie">
                                    <g id="Offers-2">
                                        <circle id="Oval" cx="131.5" cy="131.5" r="131.5"></circle>
                                    </g>
                                </g>
                            </g>
                            <g id="Group" transform="translate(131.737743, 125.092221) rotate(-2.000000) translate(-131.737743, -125.092221) translate(42.737743, 45.092221)">
                                <g id="undraw_unboxing_pbmf" transform="translate(89.121903, 79.711128) rotate(3.000000) translate(-89.121903, -79.711128) translate(4.121903, 4.711128)">
                                    <g id="Group-4" transform="translate(11.710280, 51.047368)">
                                        <path d="M65.6734957,22.9383367 C66.461989,23.3927389 67.444884,23.4206795 68.36246,23.3147994 C68.5102053,23.2971527 68.6859445,23.2868588 68.7808125,23.3942095 C68.9176713,23.5515591 68.7559291,23.7809661 68.587966,23.907434 C68.0461371,24.2916798 67.4097653,24.539154 66.738817,24.6265366 C66.1401974,24.7062691 65.5361706,24.7441162 64.9316588,24.7397695 C63.2831324,24.7662396 61.6252746,24.7927096 59.9923003,24.5677143 C59.8981497,24.5613484 59.8064742,24.5362949 59.7232484,24.4941864 C59.619392,24.4231805 59.5468579,24.3184694 59.5195154,24.2000749 C59.40754,23.8000833 59.6237147,23.3677394 59.9487544,23.0898041 C60.273794,22.8118687 60.6921465,22.6486368 61.0996124,22.5015811 L62.5350746,21.973651 C62.8710007,21.8501241 63.4106599,21.5207193 63.7792455,21.5457188 C64.452653,21.5957177 65.1027323,22.6221668 65.6734957,22.9383367 Z" id="Path" fill="#3F3D56"></path>
                                        <path d="M65.6734957,22.9383367 C66.461989,23.3927389 67.444884,23.4206795 68.36246,23.3147994 C68.5102053,23.2971527 68.6859445,23.2868588 68.7808125,23.3942095 C68.9176713,23.5515591 68.7559291,23.7809661 68.587966,23.907434 C68.0461371,24.2916798 67.4097653,24.539154 66.738817,24.6265366 C66.1401974,24.7062691 65.5361706,24.7441162 64.9316588,24.7397695 C63.2831324,24.7662396 61.6252746,24.7927096 59.9923003,24.5677143 C59.8981497,24.5613484 59.8064742,24.5362949 59.7232484,24.4941864 C59.619392,24.4231805 59.5468579,24.3184694 59.5195154,24.2000749 C59.40754,23.8000833 59.6237147,23.3677394 59.9487544,23.0898041 C60.273794,22.8118687 60.6921465,22.6486368 61.0996124,22.5015811 L62.5350746,21.973651 C62.8710007,21.8501241 63.4106599,21.5207193 63.7792455,21.5457188 C64.452653,21.5957177 65.1027323,22.6221668 65.6734957,22.9383367 Z" id="Path" fill="#000000" opacity="0.05"></path>
                                        <path d="M61.4983994,24.23689 C62.2067814,24.9971676 63.1286261,25.4088927 64.079484,25.3896842 C64.3212522,25.3896842 64.6563931,25.4456257 64.6580604,25.7353226 C64.6524721,25.8214806 64.6277142,25.9042692 64.5863636,25.9750719 C64.2861276,26.5752999 63.8108906,27.0208939 63.2524698,27.2257637 C62.7339186,27.4135672 62.18202,27.3835986 61.641793,27.3496341 L60.0661309,27.2517365 C59.7676722,27.2337553 59.4692135,27.2137762 59.1724221,27.1718201 C58.8756307,27.129864 58.5554962,27.0519455 58.2470332,26.9980019 C57.486857,26.8678627 56.7180954,26.8243801 55.9510685,26.8681377 C55.7493171,26.8781273 55.5125509,26.8681377 55.3874984,26.6863279 C55.2624458,26.5045181 55.3291405,26.1688692 55.3741594,25.9031471 C55.467532,25.3557197 55.3741594,24.7823195 55.4608625,24.2328941 C55.6125929,23.2699014 56.3045504,22.5306746 57.0698719,22.1810403 C57.778503,21.8573789 59.035698,21.4877655 59.7059796,22.0252033 C60.429617,22.6045973 60.8614651,23.5476109 61.4983994,24.23689 Z" id="Path" fill="#3F3D56"></path>
                                        <polygon id="Path" fill="#FFFFFF" points="157.737802 21.9789509 154.460979 52.9592129 41.5744344 96.3315796 3.39944911 62.4081927 0.614149754 30.498523 108.257778 0.757471487"></polygon>
                                        <polygon id="Path" fill="#000000" opacity="0.1" points="41.3241428 97.6289953 3.32909582 63.2790089 0.55692501 30.9680628 40.3457296 62.1810641"></polygon>
                                        <polygon id="Path" fill="#B8C9D6" points="3.97173856 32.4255499 109.060691 3.99206016 152.60222 23.2080999 40.6382891 61.0152675"></polygon>
                                    </g>
                                    <path d="M70.8372943,65.6312826 C71.6139328,65.7497829 72.5820244,65.7572399 73.4857743,65.7298292 C73.6312934,65.7252598 73.8043849,65.7226107 73.8978292,65.7505892 C74.0326342,65.7915984 73.8733392,65.8513216 73.7079122,65.8842315 C73.1742632,65.9842156 72.5474886,66.048558 71.8866507,66.0711957 C71.2970516,66.091854 70.7021248,66.1016017 70.1067182,66.1003591 C68.483024,66.1069527 66.850139,66.1135446 65.2417505,66.0546429 C65.1490176,66.0529676 65.0587218,66.0464253 64.9767475,66.0354423 C64.8744521,66.0169287 64.8030054,65.9896418 64.7760691,65.9587991 C64.665761,65.8545944 64.8786587,65.742023 65.1987891,65.6696897 C65.5189194,65.5973563 65.9309625,65.5549163 66.332284,65.5166877 L67.746099,65.3794419 C68.0769593,65.3473287 68.608474,65.2616284 68.971509,65.2682072 C69.6347757,65.2813532 70.2751127,65.5488269 70.8372943,65.6312826 Z" id="Path" fill="#3F3D56" transform="translate(69.347529, 65.686196) scale(1, -1) rotate(26.000000) translate(-69.347529, -65.686196) "></path>
                                    <path d="M70.8372943,65.6312826 C71.6139328,65.7497829 72.5820244,65.7572399 73.4857743,65.7298292 C73.6312934,65.7252598 73.8043849,65.7226107 73.8978292,65.7505892 C74.0326342,65.7915984 73.8733392,65.8513216 73.7079122,65.8842315 C73.1742632,65.9842156 72.5474886,66.048558 71.8866507,66.0711957 C71.2970516,66.091854 70.7021248,66.1016017 70.1067182,66.1003591 C68.483024,66.1069527 66.850139,66.1135446 65.2417505,66.0546429 C65.1490176,66.0529676 65.0587218,66.0464253 64.9767475,66.0354423 C64.8744521,66.0169287 64.8030054,65.9896418 64.7760691,65.9587991 C64.665761,65.8545944 64.8786587,65.742023 65.1987891,65.6696897 C65.5189194,65.5973563 65.9309625,65.5549163 66.332284,65.5166877 L67.746099,65.3794419 C68.0769593,65.3473287 68.608474,65.2616284 68.971509,65.2682072 C69.6347757,65.2813532 70.2751127,65.5488269 70.8372943,65.6312826 Z" id="Path" fill="#000000" opacity="0.05" transform="translate(69.347529, 65.686196) scale(1, -1) rotate(26.000000) translate(-69.347529, -65.686196) "></path>
                                    <polygon id="Path" fill="#FFFFFF" transform="translate(79.062141, 51.106681) scale(1, -1) rotate(26.000000) translate(-79.062141, -51.106681) " points="154.417435 52.7447913 41.4311774 68.6725916 3.21916133 56.191315 0.429154659 44.4570809 108.168656 33.5407697 157.695127 41.3534405"></polygon>
                                    <polygon id="Path" fill="#000000" opacity="0.1" transform="translate(24.407396, 71.134322) scale(1, -1) rotate(26.000000) translate(-24.407396, -71.134322) " points="6.69978219 70.7599095 3.91030412 58.9974094 43.9183436 70.3671286 44.9044871 83.2712346"></polygon>
                                    <polygon id="Path" fill="#B8C9D6" opacity="0.679408482" transform="translate(80.417571, 56.440060) scale(1, -1) rotate(26.000000) translate(-80.417571, -56.440060) " points="111.245739 45.986831 154.867913 53.0443869 42.7025355 66.8932884 5.96722908 56.3982427"></polygon>
                                    <path d="M139.906694,39.5552908 L138.636887,39.6770365 L105.298415,42.8485107 C103.709537,42.9979278 102.227549,43.6732718 101.114006,44.755352 L82.9279216,62.4510827 L42.0880922,102.178211 L54.2067837,111.523712 L83.4300507,101.707969 L96.1715754,97.4316525 L131.999771,56.8796973 L143.292846,44.0964037 C143.292846,44.0964037 143.585755,40.4607741 139.906694,39.5552908 Z M106.122063,59.210418 C104.596126,60.0137796 102.926383,59.9920671 102.3959,59.1626506 C102.036385,58.6010212 102.29204,57.8121346 102.967926,57.1115455 C103.320408,56.7502032 103.735403,56.4431874 104.196666,56.2025165 C105.458959,55.5381148 106.815526,55.4396849 107.55213,55.8941994 C107.704701,55.985949 107.832496,56.1076567 107.926025,56.250284 C108.45491,57.084043 107.648001,58.4085039 106.122063,59.210418 Z" id="Shape" fill="#004D8A" fill-rule="nonzero"></path>
                                    <path d="M139.77632,38.6817745 L138.479311,38.8076314 C140.068928,40.4075868 139.242064,40.8685375 139.242064,40.8685375 L126.748695,54.4390537 L82.0898292,102.933276 L95.104304,98.5125535 L131.700014,56.591206 L143.235011,43.3762355 C143.235011,43.3762355 143.534194,39.6178349 139.77632,38.6817745 Z" id="Path" fill="#000000" opacity="0.1"></path>
                                    <path d="M104.155621,57.4145373 C103.557455,57.6727205 103.018903,58.0022851 102.560967,58.390379 L108.506186,57.0819704 C107.556444,56.5963915 105.793822,56.7025631 104.155621,57.4145373 Z" id="Path" fill="#DFE6F5"></path>
                                    <path d="M101.946344,59.4587361 C102.563959,60.141859 104.500265,60.1597418 106.271503,59.4980783 C108.042741,58.8364147 108.979364,57.7467561 108.361749,57.0636332 C108.253185,56.9461627 108.104846,56.845922 107.927749,56.7703553 L102.610326,57.7694077 C101.825789,58.346426 101.529037,58.9961677 101.946344,59.4587361 Z" id="Path" fill="#DFE6F5"></path>
                                </g>
                                <g id="Group-22" transform="translate(122.383469, 85.961452)">
                                    <g id="Group_18" transform="translate(0.000000, 0.338451)">
                                        <g id="Group-2" transform="translate(24.644314, 20.345757) rotate(-27.000000) translate(-24.644314, -20.345757) translate(3.144314, 8.845757)">
                                            <polygon id="Path_466" fill="#C1D4E2" points="42.9353192 4.91068346 12.4033722 0.510266282 0.0332926136 17.6457934 29.9405282 22.0666966"></polygon>
                                            <polygon id="Path_467" fill="#004D8A" transform="translate(24.107576, 8.843185) rotate(6.000000) translate(-24.107576, -8.843185) " points="34.6733827 8.99460171 14.0449531 6.48202105 13.5417692 8.49810898 34.1715209 11.2043493"></polygon>
                                            <polygon id="Path_468" fill="#004D8A" transform="translate(19.439020, 12.423110) rotate(6.000000) translate(-19.439020, -12.423110) " points="25.7599045 11.9072319 13.6209084 10.4435631 13.1026668 12.9239373 25.7753733 14.4026563"></polygon>
                                        </g>
                                    </g>
                                </g>
                            </g>
                        </g>
                        <ellipse id="Oval" fill="#004D8A" opacity="0.1" cx="131.5" cy="214.5" rx="49.5" ry="3.5"></ellipse>
                    </g>
                </g>
            </g>
        </g>
    </g>
</svg>