<?xml version="1.0" encoding="UTF-8"?>
<svg width="282px" height="263px" viewBox="0 0 282 263" version="1.1" xmlns="http://www.w3.org/2000/svg" xmlns:xlink="http://www.w3.org/1999/xlink">
    <!-- Generator: Sketch 52.6 (67491) - http://www.bohemiancoding.com/sketch -->
    <title>Promotion2</title>
    <desc>Created with Sketch.</desc>
    <defs>
        <linearGradient x1="0.0418254486%" y1="50.0117741%" x2="100%" y2="50.0117741%" id="linearGradient-1">
            <stop stop-color="#808080" stop-opacity="0.25" offset="0%"></stop>
            <stop stop-color="#808080" stop-opacity="0.12" offset="54%"></stop>
            <stop stop-color="#808080" stop-opacity="0.1" offset="100%"></stop>
        </linearGradient>
    </defs>
    <g id="Puste-strony" stroke="none" stroke-width="1" fill="none" fill-rule="evenodd">
        <g id="Pusta-lista---promocje-" transform="translate(-1001.000000, -363.000000)">
            <g id="Promotion2" transform="translate(1001.000000, 363.000000)">
                <circle id="Oval" fill="#F7F9FB" cx="131.5" cy="131.5" r="131.5"></circle>
                <g id="Group-2" transform="translate(61.000000, 0.000000)">
                    <ellipse id="Oval" fill="#004D8A" opacity="0.1" cx="67.5" cy="221" rx="38.5" ry="7"></ellipse>
                    <path d="M0.870811099,62.0926382 L0,62 C0.287452207,62.0126325 0.591813368,62.0673732 0.870811099,62.0926382 Z" id="Shape" fill="url(#linearGradient-1)" fill-rule="nonzero"></path>
                    <g id="Group" transform="translate(4.000000, 121.000000)">
                        <path d="M89.8168301,52.7005973 C84.1766288,60.6793593 63.900105,56.453013 63.900105,56.453013 L48.1865041,41.9172809 L46.0714286,39.9490748 L49.6191152,32.5 C49.6191152,32.5 50.7471555,32.806661 52.6817445,33.3530752 C62.8397471,36.2691426 94.57716,45.9930846 89.8168301,52.7005973 Z" id="Path" fill="#EFB7B9"></path>
                        <path d="M52.5214286,33.3411571 C51.8433516,35.6941978 49.9855311,39.218261 48.1387363,41.7857143 L46.0714286,39.8450055 L49.5389927,32.5 C49.5389927,32.5 50.6525824,32.8023767 52.5214286,33.3411571 Z" id="Path" fill="#000000" opacity="0.1"></path>
                        <path d="M13.6983822,6.5 C13.6983822,6.5 10.7590704,12.4551873 12.5656994,12.0518256 C14.3723285,11.6484639 13.6983822,6.5 13.6983822,6.5 Z" id="Path" fill="#000000" opacity="0.1"></path>
                        <polygon id="Path" fill="#004D8A" points="14.7428571 19.0939251 58.9714286 12.0714286 58.9714286 52.9285714 16.9485417 50.7820302"></polygon>
                        <polygon id="Path" fill="#285C85" points="14.7428571 19.0939251 58.9714286 12.0714286 58.9714286 52.9285714 16.9485417 50.7820302"></polygon>
                        <polygon id="Path" fill="#004D8A" points="58.9714286 12.0714286 111.492857 15.9441701 108.586376 51.4994121 58.9714286 52.9285714"></polygon>
                        <polygon id="Path" fill="#2D93E5" opacity="0" points="111.492857 15.9441701 108.586376 51.4994121 58.9714286 52.9285714 58.9714286 12.0714286"></polygon>
                        <polygon id="Path" fill="#E8E8E8" points="75.042522 0 58.9714286 12.044998 111.243523 15.7857143 119.785714 3.45921517"></polygon>
                        <polygon id="Path" fill="#D5D5D5" points="0 6.64464613 38.9769206 1.85714286 58.9714286 13.3210577 15.6762341 20.4285714"></polygon>
                        <polygon id="Path" stroke="#F8F8F8" fill="#FFFFFF" points="69.1071429 22.1572008 69.1071429 78 48.2196292 75.9269754 39.1338213 75.0305324 36.3658059 74.7503939 27.2857888 73.8483481 14.7428571 72.6045334 14.7428571 18.5714286 59.3264357 21.5072796"></polygon>
                        <polygon id="Path" fill="#004D8A" points="111.492857 15.7857143 111.492857 69.9286865 95.2541744 73.0201834 87.3567036 74.5241549 69.1071429 78 69.1071429 22.4811724"></polygon>
                        <polygon id="Path" stroke="#F6F6F6" fill="#FFFFFF" points="111.492857 15.7857143 111.492857 69.9286865 95.2541744 73.0201834 87.3567036 74.5241549 69.1071429 78 69.1071429 22.4811724"></polygon>
                        <polygon id="Path" fill="#004D8A" points="0 31.0426935 15.6128262 18.5714286 68.1857143 22.3758183 60.4465013 36.2142857"></polygon>
                        <polygon id="Path" stroke="#EBEBEB" fill="#FFFFFF" points="0 31.0426935 15.6128262 18.5714286 68.1857143 22.3758183 60.4465013 36.2142857"></polygon>
                        <polygon id="Path" fill="#004D8A" points="111.729181 15.7857143 68.1857143 22.3474007 82.357826 34.3571429 129 26.9547745"></polygon>
                        <polygon id="Path" stroke="#E8E8E8" fill="#E7E7E7" points="68.1857143 22.3474007 82.357826 34.3571429 129 26.9547745 111.729181 15.7857143"></polygon>
                        <polygon id="Path" fill="#FFFFFF" opacity="0.166085379" points="94.9071429 72.7246042 86.6142857 74.2857143 86.6142857 62.2767301 94.3822038 60.3571429"></polygon>
                        <polygon id="Path" fill="#FFFFFF" opacity="0.209054129" points="48.8357143 76.1428571 38.7 75.1696818 38.7 67.7857143 48.8357143 67.7857143"></polygon>
                        <polygon id="Path" fill="#FFFFFF" opacity="0.1" points="35.9357143 71.5 35.9357143 75.2142857 26.7214286 74.3962283 26.7214286 71.5"></polygon>
                    </g>
                    <path d="M40,190 C40,190 40.6941245,193.301474 42.5451232,192.977645 C44.3961219,192.653816 40,190 40,190 Z" id="Path" fill="#000000" opacity="0.1"></path>
                    <path d="M90.7804268,61.0157408 C90.7804268,61.0157408 79.8238536,60.2833913 81.1040426,68.8093474 C81.1040426,68.8093474 80.8474282,70.3156209 82.078601,71 C82.078601,71 82.0987842,70.3603934 83.2030914,70.5810577 C83.5963563,70.6544677 83.996078,70.6759375 84.3938979,70.6450183 C84.9330213,70.6051369 85.4454991,70.3703561 85.8528522,69.9766294 C85.8528522,69.9766294 88.9351092,68.5662968 90.1345657,62.9761351 C90.1345657,62.9761351 91.0226248,61.7544865 90.9995583,61.4410792 L89.1484741,62.3205383 C89.1484741,62.3205383 89.7799187,63.8012276 89.2811063,65.0324703 C89.2811063,65.0324703 89.2234401,62.3749049 88.8659098,62.4356675 C88.7938271,62.4356675 87.905768,62.9505508 87.905768,62.9505508 C87.905768,62.9505508 88.9927754,65.5281655 88.1710324,67.4054109 C88.1710324,67.4054109 88.4824298,64.226566 87.5655376,63.1360367 L86.262282,63.9803175 C86.262282,63.9803175 87.5338212,66.644279 86.6717119,68.8189415 C86.6717119,68.8189415 86.8937266,65.483393 85.9883677,64.1849916 L84.8062111,65.2051641 C84.8062111,65.2051641 86.0027842,67.8339473 85.2733071,69.6376379 C85.2733071,69.6376379 85.1781579,65.7552258 84.5495966,65.4610068 C84.5495966,65.4610068 83.5173721,66.4715852 83.3616734,66.8873295 C83.3616734,66.8873295 84.1776498,68.8061493 83.6701874,69.8007376 C83.6701874,69.8007376 83.3587901,67.2135289 83.0935257,67.2007367 C83.0935257,67.2007367 82.0641845,68.9148825 81.957502,70.0789665 C82.0073541,68.9937175 82.312533,67.9418615 82.8426778,67.028043 C82.2494297,67.152535 81.7020991,67.4671905 81.2683912,67.9330863 C81.2683912,67.9330863 81.4269732,66.7210318 83.096409,66.6154967 C83.096409,66.6154967 83.9614016,65.3138972 84.1747665,65.2339464 C84.1747665,65.2339464 82.5139806,65.0804408 81.5077059,65.5761359 C81.5077059,65.5761359 82.3928817,64.4344381 84.4803972,64.9365293 L85.6337207,63.8811784 C85.6337207,63.8811784 83.4481727,63.5613751 82.5197472,63.9163568 C82.5197472,63.9163568 83.5865715,62.9057784 85.9480014,63.641326 L87.2166572,62.8002433 C87.2166572,62.8002433 85.3540398,62.3525186 84.2439659,62.5156183 C84.2439659,62.5156183 85.4145892,61.8152491 87.588604,62.5731829 L88.4968463,62.1222603 C88.4968463,62.1222603 87.130158,61.8248432 86.7322613,61.7768727 C86.3343647,61.7289022 86.3112983,61.6073769 86.3112983,61.6073769 C87.1759127,61.4477665 88.0635216,61.5585083 88.8745598,61.9271802 C88.8745598,61.9271802 90.8207932,61.1500582 90.7804268,61.0157408 Z" id="Path" fill="#004D8A"></path>
                    <path d="M141.805335,103.015741 C141.805335,103.015741 130.820858,102.283391 132.104308,110.809347 C132.104308,110.809347 131.84704,112.315621 133.081348,113 C133.081348,113 133.101583,112.360393 134.211593,112.581058 C134.605859,112.654468 135.006599,112.675938 135.405432,112.645018 C135.939579,112.602173 136.446744,112.368758 136.850758,111.979827 C136.850758,111.979827 139.943755,110.566297 141.146267,104.976135 C141.146267,104.976135 142.033697,103.757684 141.999009,103.444277 L140.14321,104.320538 C140.14321,104.320538 140.776263,105.801228 140.279071,107.03247 C140.279071,107.03247 140.218367,104.374905 139.862817,104.435667 C139.790551,104.435667 138.89734,104.950551 138.89734,104.950551 C138.89734,104.950551 139.990006,107.531363 139.16617,109.405411 C139.16617,109.405411 139.478361,106.226566 138.556243,105.136037 L137.264121,105.970723 C137.264121,105.970723 138.538899,108.634685 137.674594,110.809347 C137.674594,110.809347 137.897174,107.473799 136.989509,106.175397 L135.807233,107.198768 C135.807233,107.198768 137.003963,109.824353 136.275518,111.628044 C136.275518,111.628044 136.180127,107.745632 135.549965,107.451413 C135.549965,107.451413 134.515111,108.461991 134.356125,108.877735 C134.356125,108.877735 135.177071,110.796555 134.668316,111.791144 C134.668316,111.791144 134.356125,109.203935 134.090185,109.191143 C134.090185,109.191143 133.058223,110.905288 132.951269,112.069372 C133.002913,110.983991 133.309808,109.932334 133.841589,109.018449 C133.24608,109.143245 132.696502,109.457813 132.260403,109.923492 C132.260403,109.923492 132.422279,108.711438 134.095967,108.605903 C134.095967,108.605903 134.948709,107.304303 135.177071,107.224352 C135.177071,107.224352 133.512055,107.070847 132.503218,107.566542 C132.503218,107.566542 133.390648,106.424844 135.480589,106.942925 L136.63685,105.887574 C136.63685,105.887574 134.442845,105.567771 133.514946,105.922753 C133.514946,105.922753 134.584487,104.912174 136.951931,105.647722 L138.223818,104.806639 C138.223818,104.806639 136.353566,104.362113 135.240665,104.522014 C135.240665,104.522014 136.41716,103.821645 138.596712,104.579579 L139.507267,104.128656 C139.507267,104.128656 138.137098,103.831239 137.735297,103.783269 C137.333497,103.735298 137.313262,103.613773 137.313262,103.613773 C138.181028,103.454067 139.071849,103.564803 139.885942,103.933576 C139.885942,103.933576 141.840023,103.150058 141.805335,103.015741 Z" id="Path" fill="#004D8A" opacity="0.1"></path>
                    <path d="M72.60398,89.8842893 C72.60398,89.8842893 75.1692993,80.1304025 67.2417299,80.0962152 C67.2417299,80.0962152 65.9253546,79.6544107 65.0956571,80.6642496 C65.0956571,80.6642496 65.6614932,80.7720709 65.2774283,81.7345737 C65.1445977,82.0749253 65.0560567,82.4279048 65.0135668,82.7864892 C64.9567768,83.2753177 65.0792641,83.7674238 65.3624503,84.1881667 C65.3624503,84.1881667 66.104194,87.159828 70.9328578,89.0217185 C70.9328578,89.0217185 71.8827588,89.9894808 72.1700746,90 L71.7009877,88.2143734 C71.7009877,88.2143734 70.2526817,88.5746544 69.226554,87.9513945 C69.226554,87.9513945 71.63942,88.2695989 71.6423518,87.9513945 C71.6423518,87.8856498 71.3491724,87.0151897 71.3491724,87.0151897 C71.3491724,87.0151897 68.8307619,87.6305603 67.2769114,86.6286107 C67.2769114,86.6286107 70.0943649,87.3544324 71.2406961,86.6838363 L70.7129733,85.3899802 C70.7129733,85.3899802 68.0743592,86.1605083 66.2683744,85.0796651 C66.2683744,85.0796651 69.2441448,85.7476314 70.575179,85.1164821 L69.8568896,83.9120388 C69.8568896,83.9120388 67.2769114,84.6168222 65.7729013,83.7095451 C65.7729013,83.7095451 69.2910535,84.1671283 69.6721866,83.6464301 C69.6721866,83.6464301 68.9392382,82.5761061 68.5903548,82.3762421 C68.5903548,82.3762421 66.7257342,82.8443446 65.904832,82.2473825 C65.904832,82.2473825 68.2942437,82.3289059 68.3499478,82.1027441 C68.3499478,82.1027441 66.9808002,80.9377476 65.9370818,80.6747688 C66.9097278,80.8734143 67.8079701,81.2957572 68.5434461,81.9002504 C68.5326949,81.3491001 68.3432064,80.8126917 67.9981326,80.3565643 C67.9981326,80.3565643 69.0653054,80.672139 68.8776706,82.1974165 C68.8776706,82.1974165 69.9037983,83.1441405 69.936048,83.3597832 C69.936048,83.3597832 70.3611581,81.8897312 70.0885013,80.9140795 C70.0885013,80.9140795 70.9680393,81.8713227 70.1383418,83.672728 L70.8888809,84.869282 C70.8888809,84.869282 71.5690569,82.9495361 71.3960811,82.0659271 C71.3960811,82.0659271 72.1260977,83.1651788 71.0501295,85.1848566 L71.5925113,86.4445255 C71.5925113,86.4445255 72.3166643,84.8298351 72.363573,83.8147366 C72.363573,83.8147366 72.7945466,84.9665841 71.7303056,86.8153257 L71.9824398,87.6936752 C71.9824398,87.6936752 72.4867083,86.5076404 72.5981164,86.1552487 C72.7095246,85.802857 72.8238645,85.8002272 72.8238645,85.8002272 C72.8193966,86.6002823 72.566614,87.3834122 72.093848,88.0618456 C72.093848,88.0618456 72.4779129,89.8974382 72.60398,89.8842893 Z" id="Path" fill="#004D8A" opacity="0.1"></path>
                    <path d="M47,93.4281697 C47,93.4281697 38.5287746,87.657461 35.5005613,93.9084301 C35.5005613,93.9084301 34.5762762,94.780482 35.239652,95.8244166 C35.239652,95.8244166 35.5560739,95.4174591 36.3499043,96.0923514 C36.6310813,96.3305702 36.9422723,96.5375995 37.276965,96.7091069 C37.7302989,96.9389834 38.2536702,97.0277393 38.7674788,96.9618756 C38.7674788,96.9618756 41.9205955,97.515439 45.5511207,94.4038567 C45.5511207,94.4038567 46.8473403,94.0247037 46.9694681,93.8022673 L45.0570584,93.4964172 C45.0570584,93.4964172 44.857213,94.7779543 43.871864,95.3517392 C43.871864,95.3517392 45.090366,93.5671924 44.773944,93.4382804 C44.7101045,93.4104759 43.7552875,93.3118961 43.7552875,93.3118961 C43.7552875,93.3118961 43.4000068,95.5413157 41.8456535,96.3830354 C41.8456535,96.3830354 43.6137303,94.434189 43.3944555,93.2714531 L41.9428005,93.2006779 C41.9428005,93.2006779 41.6957694,95.5741756 39.9637757,96.595361 C39.9637757,96.595361 41.7318526,94.4999088 41.6291542,93.2057332 L40.1913775,93.3118961 C40.1913775,93.3118961 39.8999362,95.619674 38.4538325,96.458866 C38.4538325,96.458866 40.2274607,93.8502933 39.863853,93.3548668 C39.863853,93.3548668 38.5509796,93.5242218 38.2262308,93.7213813 C38.2262308,93.7213813 37.9736484,95.3744884 37.0854465,95.7940844 C37.0854465,95.7940844 38.0707955,93.9362347 37.87095,93.8073227 C37.87095,93.8073227 36.2250009,94.441772 35.5782789,95.1646904 C36.1377214,94.4725158 36.8859074,93.9253436 37.7488223,93.5773032 C37.2119183,93.3740859 36.6215913,93.3178669 36.0501362,93.4155312 C36.0501362,93.4155312 36.7551464,92.6926129 38.1485131,93.4281697 C38.1485131,93.4281697 39.4530596,92.9807691 39.6751101,93.0363782 C39.6751101,93.0363782 38.4121981,92.1339941 37.3657852,91.9772775 C37.3657852,91.9772775 38.6259216,91.6486783 40.0553715,92.9883522 L41.495924,92.8543848 C41.495924,92.8543848 39.894385,91.5905415 38.9756511,91.3782158 C38.9756511,91.3782158 40.3162808,91.2240269 41.8623072,92.8468017 L43.2834303,92.9049385 C43.2834303,92.9049385 41.9983132,91.7118704 41.029618,91.2821637 C41.029618,91.2821637 42.3036326,91.3832712 43.691448,92.9327431 L44.6379381,93.0717659 C44.6379381,93.0717659 43.6803455,92.2174078 43.3805773,91.9949713 C43.0808092,91.7725349 43.1224437,91.6790105 43.1224437,91.6790105 C43.8946206,91.9904047 44.5566836,92.4909434 45.0348533,93.1248473 C45.0348533,93.1248473 46.9639168,93.5318048 47,93.4281697 Z" id="Path" fill="#004D8A" opacity="0.1"></path>
                    <path d="M74,35.4298788 C74,35.4298788 65.5287746,29.6552448 62.5005613,35.9102556 C62.5005613,35.9102556 61.5762762,36.7825186 62.239652,37.8267059 C62.239652,37.8267059 62.5560739,37.4196499 63.3499043,38.0947056 C63.6325543,38.3317514 63.9446108,38.5379384 64.2797407,38.7090822 C64.7330046,38.9391908 65.2564413,39.0279793 65.7702544,38.961912 C65.7702544,38.961912 68.9233711,39.5156094 72.5538963,36.4007455 C72.5538963,36.4007455 73.8501159,36.024029 73.9694681,35.7990104 L72.0570584,35.4981429 C72.0570584,35.4981429 71.8599886,36.7799903 70.871864,37.3539141 C70.871864,37.3539141 72.0931416,35.5689353 71.7767197,35.439992 C71.7128802,35.4121807 70.7580631,35.3135771 70.7580631,35.3135771 C70.7580631,35.3135771 70.3916799,37.5485931 68.8373266,38.3854599 C68.8373266,38.3854599 70.6026278,36.4361417 70.3861286,35.2731243 L68.9344736,35.202332 C68.9344736,35.202332 68.6846669,37.5764044 66.9554488,38.5953087 C66.9554488,38.5953087 68.7235257,36.4993492 68.6208274,35.2048603 L67.1858262,35.3110488 C67.1858262,35.3110488 66.8916093,37.6219138 65.4455056,38.4613089 C65.4455056,38.4613089 67.2219094,35.8521047 66.8583017,35.3565582 C66.8583017,35.3565582 65.5454283,35.5259542 65.2206795,35.7231615 C65.2206795,35.7231615 64.9680971,37.3766688 64.0798952,37.7963664 C64.0798952,37.7963664 65.0652442,35.9380669 64.8653988,35.8065953 C64.8653988,35.8065953 63.2194497,36.4437266 62.5727277,37.16682 C63.1313247,36.4737398 63.8797476,35.9262619 64.743271,35.5790485 C64.2058156,35.3742703 63.6141105,35.3179984 63.0418093,35.4172373 C63.0418093,35.4172373 63.7495952,34.6941439 65.1429619,35.4298788 C65.1429619,35.4298788 66.4475084,34.9798417 66.6695588,35.0379926 C66.6695588,35.0379926 65.4066468,34.1353899 64.360234,33.9761071 C64.360234,33.9761071 65.6175947,33.6499566 67.0470446,34.9874266 L68.4875971,34.8534268 C68.4875971,34.8534268 66.8888337,33.5892774 65.9673242,33.374372 C65.9673242,33.374372 67.307954,33.2226741 68.856756,34.8458419 L70.277879,34.9014644 C70.277879,34.9014644 68.9927619,33.7081075 68.0212911,33.280825 C68.0212911,33.280825 69.2980813,33.3819569 70.6858967,34.931804 L71.6296112,35.0708604 C71.6296112,35.0708604 70.6692429,34.2264087 70.3694748,34.008975 C70.0697067,33.7915413 70.1113411,33.695466 70.1113411,33.695466 C70.8837508,34.0065935 71.5459074,34.5073242 72.0237508,35.1416528 C72.0237508,35.1416528 73.9528143,35.5259542 74,35.4298788 Z" id="Path" fill="#004D8A" opacity="0.1"></path>
                    <path d="M120,45.7139304 C120,45.7139304 116.668322,37.5340305 110.384558,40.7484525 C110.384558,40.7484525 109.101043,40.9749798 109,42.0419233 C109,42.0419233 109.505214,41.8878847 109.729146,42.7486884 C109.812342,43.0548898 109.937884,43.3520985 110.103277,43.63441 C110.328981,44.014345 110.696867,44.3234801 111.151936,44.5156011 C111.151936,44.5156011 113.369414,46.3844511 118.219464,45.7660317 C118.219464,45.7660317 119.500248,46.0877004 119.735104,45.976702 L118.369662,44.8644531 C118.369662,44.8644531 117.424777,45.718461 116.272344,45.6844819 C116.272344,45.6844819 118.356008,44.9324113 118.183962,44.6900271 C118.148461,44.6424564 117.4357,44.1282395 117.4357,44.1282395 C117.4357,44.1282395 115.780785,45.6074626 114.00571,45.5100559 C114.00571,45.5100559 116.630089,44.8893711 117.165343,43.9243649 L116.034757,43.2017429 C116.034757,43.2017429 114.379841,44.8372699 112.350794,44.7874339 C112.350794,44.7874339 115.081678,44.0602813 115.772592,43.0545002 L114.543694,42.4677946 C114.543694,42.4677946 112.905164,44.0376286 111.206554,43.9877926 C111.206554,43.9877926 114.243297,42.8846047 114.25149,42.3500004 C114.25149,42.3500004 113.085402,41.8674973 112.700348,41.8629667 C112.700348,41.8629667 111.482373,42.9661546 110.515641,42.8664826 C110.515641,42.8664826 112.449106,41.9490471 112.36718,41.7610295 C112.36718,41.7610295 110.646723,41.4688093 109.677259,41.7043976 C110.554108,41.4511536 111.495566,41.392583 112.408143,41.5345022 C112.096517,41.1355838 111.651423,40.8206961 111.127358,40.6283931 C111.127358,40.6283931 112.143247,40.4222533 112.823237,41.6092562 C112.823237,41.6092562 114.155909,41.8833542 114.297915,42.0260664 C114.297915,42.0260664 113.828203,40.7779011 113.07721,40.1753385 C113.07721,40.1753385 114.297915,40.5173947 114.631082,42.1733091 L115.881827,42.7396273 C115.881827,42.7396273 115.36569,41.0610602 114.743049,40.4743545 C114.743049,40.4743545 115.925521,40.9817756 116.182224,42.8959311 L117.301887,43.5959004 C117.301887,43.5959004 116.990566,42.1189426 116.466236,41.3532804 C116.466236,41.3532804 117.438431,42.0192706 117.613208,43.8065708 L118.293198,44.3457057 C118.293198,44.3457057 118.041956,43.2719664 117.938183,42.9684198 C117.834409,42.6648733 117.919067,42.6444858 117.919067,42.6444858 C118.353197,43.2321291 118.58287,43.9079448 118.582671,44.5971509 C118.582671,44.5971509 119.904419,45.7728275 120,45.7139304 Z" id="Path" fill="#004D8A" opacity="0.1"></path>
                    <path d="M140.814268,0.0807326724 C140.814268,0.0807326724 130.172301,-1.33152469 131.05164,7.65739301 C131.05164,7.65739301 130.734179,9.21689995 131.894457,10 C131.894457,10 131.942217,9.33068372 133.018213,9.62852946 C133.398033,9.72929638 133.786638,9.77536282 134.175681,9.7657393 C134.701294,9.75615502 135.20968,9.54096269 135.622517,9.1533149 C135.622517,9.1533149 138.68756,7.85818789 140.103493,2.08868152 C140.103493,2.08868152 141.019353,0.863832725 140.999688,0.535867746 L139.159538,1.34239387 C139.159538,1.34239387 139.721416,2.92867346 139.159538,4.18698807 C139.159538,4.18698807 139.218535,1.40263233 138.878599,1.44948447 C138.808364,1.44948447 137.920597,1.92804562 137.920597,1.92804562 C137.920597,1.92804562 138.864552,4.68897529 137.982404,6.6132596 C137.982404,6.6132596 138.426287,3.31018374 137.580661,2.11545418 L136.274295,2.9219803 C136.274295,2.9219803 137.398051,5.78330741 136.459715,8.00543747 C136.459715,8.00543747 136.822126,4.53168596 135.998975,3.1194286 L134.804984,4.12340303 C134.804984,4.12340303 135.850077,6.937878 135.060639,8.77849778 C135.060639,8.77849778 135.142111,4.71574794 134.543711,4.37439663 C134.543711,4.37439663 133.495809,5.37837106 133.321627,5.79334716 C133.321627,5.79334716 134.035212,7.83476182 133.495809,8.85546915 C133.495809,8.85546915 133.30758,6.13469846 133.060354,6.10792581 C133.060354,6.10792581 131.981548,7.8381084 131.824222,9.05961062 C131.921673,7.92713644 132.266503,6.8448387 132.824365,5.92051725 C132.240974,6.0147696 131.693798,6.311573 131.251107,6.77389551 C131.251107,6.77389551 131.459002,5.5155809 133.088447,5.50219457 C133.088447,5.50219457 133.976214,4.19368124 134.212203,4.12674961 C134.212203,4.12674961 132.602423,3.86571626 131.599471,4.32419791 C131.599471,4.32419791 132.512523,3.18301365 134.521236,3.84898335 L135.70118,2.81488969 C135.70118,2.81488969 133.588519,2.33967513 132.669848,2.66764011 C132.669848,2.66764011 133.754273,1.66366568 136.018641,2.58062899 L137.291294,1.77744945 C137.291294,1.77744945 135.496094,1.20183745 134.40886,1.30558147 C134.40886,1.30558147 135.580376,0.636265188 137.662133,1.56326824 L138.566757,1.14159898 C138.566757,1.14159898 137.249153,0.750048956 136.861457,0.679770747 C136.473762,0.609492537 136.459715,0.478975861 136.459715,0.478975861 C137.308791,0.360788526 138.168723,0.526494337 138.943215,0.957537004 C138.943215,0.957537004 140.842362,0.224635673 140.814268,0.0807326724 Z" id="Path" fill="#004D8A" opacity="0.1"></path>
                    <path d="M220.825217,61.0803 C220.825217,61.0803 210.171378,59.6713278 211.051698,68.6572908 C211.051698,68.6572908 210.736695,70.2168658 211.895455,71 C211.895455,71 211.943268,70.3306545 213.020464,70.63186 C213.400051,70.7301499 213.788021,70.7750804 214.176412,70.7657291 C214.699943,70.7529804 215.206009,70.5393391 215.619236,70.1566247 C215.619236,70.1566247 218.684887,68.8614412 220.102399,63.0883365 C220.102399,63.0883365 221.022094,61.866781 220.999594,61.535455 L219.157391,62.3420163 C219.157391,62.3420163 219.719896,63.928365 219.157391,65.1867345 C219.157391,65.1867345 219.216454,62.4056041 218.876138,62.4491115 C218.805825,62.4491115 217.917068,62.9276935 217.917068,62.9276935 C217.917068,62.9276935 218.862076,65.6887436 217.978943,67.6131119 C217.978943,67.6131119 218.423322,64.309892 217.576753,63.118457 L216.268929,63.9216716 C216.268929,63.9216716 217.393939,66.7831235 216.454556,69.0053505 C216.454556,69.0053505 216.817371,65.5314475 215.993302,64.1224752 L214.797979,65.1264934 C214.797979,65.1264934 215.844238,67.9410912 215.056731,69.785138 C215.056731,69.785138 215.135482,65.7188642 214.536415,65.377498 C214.536415,65.377498 213.487343,66.3815162 213.312967,66.7965104 C213.312967,66.7965104 214.027348,68.8380141 213.487343,69.858766 C213.487343,69.858766 213.298904,67.1378766 213.051402,67.1111028 C213.051402,67.1111028 211.971393,68.8413608 211.816704,70.0629163 C211.914072,68.9308899 212.258248,67.8487613 212.81515,66.923686 C212.231525,67.0196566 211.684135,67.3162583 211.240137,67.7771015 C211.240137,67.7771015 211.451076,66.518732 213.08234,66.5086918 C213.08234,66.5086918 213.968285,65.2001214 214.207349,65.1298402 C214.207349,65.1298402 212.595773,64.8721422 211.591702,65.3306438 C211.591702,65.3306438 212.505773,64.186063 214.516727,64.8520618 L215.697987,63.817923 C215.697987,63.817923 213.582969,63.3426877 212.663274,63.670667 C212.663274,63.670667 213.748908,62.6666488 216.015802,63.5869988 L217.289875,62.7804375 C217.289875,62.7804375 215.492673,62.2048004 214.404226,62.308549 C214.404226,62.308549 215.577048,61.6392035 217.661128,62.566247 L218.566761,62.1479061 C218.566761,62.1479061 217.247687,61.756339 216.862372,61.682711 C216.477056,61.609083 216.457368,61.4819073 216.457368,61.4819073 C217.307633,61.3658214 218.168293,61.5326484 218.943639,61.9638361 C218.943639,61.9638361 220.853343,61.2242093 220.825217,61.0803 Z" id="Path" fill="#004D8A" opacity="0.1" transform="translate(216.000000, 66.000000) rotate(270.000000) translate(-216.000000, -66.000000) "></path>
                    <path d="M172,41.4281697 C172,41.4281697 163.528775,35.657461 160.500561,41.9084301 C160.500561,41.9084301 159.576276,42.780482 160.239652,43.8244166 C160.239652,43.8244166 160.556074,43.4174591 161.349904,44.0923514 C161.631081,44.3305702 161.942272,44.5375995 162.276965,44.7091069 C162.730369,44.9388074 163.253675,45.0275522 163.767479,44.9618756 C163.767479,44.9618756 166.920595,45.515439 170.553896,42.4038567 C170.553896,42.4038567 171.84734,42.0247037 171.969468,41.8022673 L170.06261,41.4888342 C170.06261,41.4888342 169.862764,42.7703713 168.877415,43.3441562 C168.877415,43.3441562 170.095917,41.5596094 169.779495,41.4306974 C169.715656,41.4028928 168.763614,41.304313 168.763614,41.304313 C168.763614,41.304313 168.405558,43.5337327 166.851205,44.3754523 C166.851205,44.3754523 168.619282,42.4266059 168.400007,41.26387 L166.948352,41.1930948 C166.948352,41.1930948 166.701321,43.5665926 164.969327,44.587778 C164.969327,44.587778 166.740179,42.4923258 166.634706,41.1981502 L165.196929,41.304313 C165.196929,41.304313 164.919366,43.6120909 163.459384,44.4512829 C163.459384,44.4512829 165.235788,41.8427103 164.869404,41.3472837 C164.869404,41.3472837 163.556531,41.5166387 163.231782,41.7137983 C163.231782,41.7137983 162.981975,43.3669053 162.093773,43.7865013 C162.093773,43.7865013 163.076347,41.9286516 162.876501,41.7997396 C162.876501,41.7997396 161.230552,42.434189 160.58383,43.1571073 C161.143273,42.4649327 161.891459,41.9177606 162.754374,41.5697201 C162.21747,41.3665028 161.627143,41.3102839 161.055687,41.4079482 C161.055687,41.4079482 161.763473,40.6850298 163.15684,41.4205866 C163.15684,41.4205866 164.458611,40.9731861 164.680661,41.0287952 C164.680661,41.0287952 163.417749,40.126411 162.371336,39.9696945 C162.371336,39.9696945 163.631473,39.6410952 165.060923,40.9807691 L166.501475,40.8468017 C166.501475,40.8468017 164.902712,39.5829584 163.981202,39.3706327 C163.981202,39.3706327 165.321832,39.2164439 166.867859,40.8392187 L168.291757,40.8973555 C168.291757,40.8973555 167.003864,39.7042874 166.035169,39.2745806 C166.035169,39.2745806 167.311959,39.3756881 168.696999,40.92516 L169.643489,41.0641828 C169.643489,41.0641828 168.685897,40.2098247 168.386129,39.9873883 C168.08636,39.7649519 168.130771,39.6916489 168.130771,39.6916489 C168.901853,40.003551 169.562881,40.504033 170.040405,41.1374857 C170.040405,41.1374857 171.963917,41.5318048 172,41.4281697 Z" id="Path" fill="#004D8A" opacity="0.1" transform="translate(166.000000, 42.000000) rotate(90.000000) translate(-166.000000, -42.000000) "></path>
                    <path d="M164,87.6385841 C164,87.6385841 161.071121,77.011673 154.483928,80.8266848 C154.483928,80.8266848 153.164262,81.0384687 153,82.4136136 C153,82.4136136 153.523412,82.2424458 153.704379,83.3535861 C153.771483,83.7527698 153.883625,84.1422911 154.038471,84.5140459 C154.244978,85.0139661 154.602865,85.4296943 155.057454,85.697715 C155.057454,85.697715 157.212351,88.1927037 162.184763,87.6356829 C162.184763,87.6356829 163.47102,88.1056692 163.716021,87.9780186 L162.399139,86.4868277 C162.399139,86.4868277 161.388509,87.5370438 160.219185,87.4384048 C160.219185,87.4384048 162.379651,86.5680599 162.212604,86.2576369 C162.179195,86.1938116 161.483169,85.5004368 161.483169,85.5004368 C161.483169,85.5004368 159.718046,87.3165565 157.913946,87.1047725 C157.913946,87.1047725 160.62288,86.4375081 161.218679,85.2364322 L160.105037,84.2558436 C160.105037,84.2558436 158.328778,86.2692415 156.265756,86.1125794 C156.265756,86.1125794 159.072134,85.3089609 159.846115,84.0585655 L158.626677,83.2491447 C158.626677,83.2491447 156.85877,85.1784092 155.143761,85.0333517 C155.143761,85.0333517 158.298152,83.7655493 158.33713,83.0837792 C158.33713,83.0837792 157.173374,82.4107125 156.780815,82.3875033 C156.780815,82.3875033 155.480638,83.739439 154.49228,83.56537 C154.49228,83.56537 156.513541,82.4832412 156.441154,82.2395446 C156.441154,82.2395446 154.703872,81.7840642 153.704379,82.0364642 C154.609623,81.7567436 155.569205,81.7277458 156.488484,81.9523308 C156.194031,81.4273849 155.75849,81.0037907 155.235637,80.733848 C155.235637,80.733848 156.28246,80.5162618 156.9061,82.0683768 C156.9061,82.0683768 158.245254,82.4803401 158.38446,82.6718159 C158.38446,82.6718159 157.975196,81.0500733 157.242976,80.2464549 C157.242976,80.2464549 158.467983,80.7396503 158.715768,82.8748964 L159.957479,83.661108 C159.957479,83.661108 159.523159,81.4852457 158.921792,80.7193422 C158.921792,80.7193422 160.096684,81.4243216 160.255378,83.8844965 L161.369021,84.8331724 C161.369021,84.8331724 161.132372,82.9300183 160.642369,81.9320228 C160.642369,81.9320228 161.597317,82.8313792 161.675272,85.1232874 L162.337889,85.8485748 C162.337889,85.8485748 162.143002,84.4618252 162.059479,84.0672689 C161.975955,83.6727126 162.059479,83.6175907 162.059479,83.6175907 C162.471466,84.3892735 162.669095,85.2652602 162.63022,86.1473932 C162.63022,86.1473932 163.899772,87.7082117 164,87.6385841 Z" id="Path" fill="#004D8A" opacity="0.1"></path>
                    <path d="M137,71.9172913 C137,71.9172913 131.557406,63.8035748 126.075596,68.4208956 C126.075596,68.4208956 124.8431,68.8910408 125.01677,70.0639294 C125.01677,70.0639294 125.484558,69.8016379 125.932739,70.6800671 C126.093005,70.9923252 126.295205,71.2864221 126.534982,71.5560218 C126.856647,71.9209225 127.305633,72.1818588 127.812296,72.2983564 C127.812296,72.2983564 130.515386,73.8770545 135.224084,72.2983564 C135.224084,72.2983564 136.591035,72.3998088 136.798319,72.2389696 L135.154056,71.3036281 C135.154056,71.3036281 134.425762,72.3948599 133.260493,72.5754946 C133.260493,72.5754946 135.156857,71.380336 134.918761,71.1551612 C134.868341,71.1081467 134.0224,70.6924393 134.0224,70.6924393 C134.0224,70.6924393 132.742284,72.5853924 130.941158,72.8155161 C130.941158,72.8155161 133.417356,71.6574742 133.705872,70.5340746 L132.383739,69.9847471 C132.383739,69.9847471 131.142839,72.0459626 129.095214,72.3750643 C129.095214,72.3750643 131.635838,71.0858766 132.084018,69.8808202 L130.700261,69.4849085 C130.700261,69.4849085 129.445355,71.4644673 127.742268,71.7366566 C127.742268,71.7366566 130.504182,69.9847471 130.37533,69.4131495 C130.37533,69.4131495 129.081208,69.1162157 128.694652,69.1855002 C128.694652,69.1855002 127.756274,70.5934614 126.750669,70.6701693 C126.750669,70.6701693 128.456556,69.3290182 128.327704,69.1409601 C128.327704,69.1409601 126.523777,69.1533324 125.61341,69.5863609 C126.428922,69.151828 127.358774,68.912997 128.310897,68.8935153 C127.896863,68.5256812 127.370115,68.2728111 126.795487,68.1660274 C126.795487,68.1660274 127.761876,67.7527946 128.756277,68.8935153 C128.756277,68.8935153 130.156842,68.9355809 130.344517,69.0617778 C130.344517,69.0617778 129.551798,67.8245536 128.644232,67.3148172 C128.644232,67.3148172 129.95516,67.4484374 130.714266,69.1558068 L132.114831,69.5269741 C132.114831,69.5269741 131.165248,67.8295025 130.392136,67.3296639 C130.392136,67.3296639 131.708667,67.6488677 132.45937,69.6457476 L133.761895,70.1827029 C133.761895,70.1827029 133.070016,68.665866 132.36133,67.9556993 C132.36133,67.9556993 133.506992,68.4827569 134.142848,70.3583888 L134.963579,70.8087384 C134.963579,70.8087384 134.436967,69.7076088 134.252092,69.4032517 C134.067218,69.0988945 134.145649,69.0320844 134.145649,69.0320844 C134.732816,69.5772568 135.13718,70.2556886 135.31372,70.9918476 C135.31372,70.9918476 136.918767,71.9989481 137,71.9172913 Z" id="Path" fill="#004D8A"></path>
                    <path d="M109.998468,99.7689783 C109.998468,99.7689783 110.308883,88.5745962 102.092197,90.1523871 C102.092197,90.1523871 100.62083,89.9379015 100,91.2130621 C100,91.2130621 100.62083,91.2130621 100.446998,92.3442529 C100.390132,92.7476048 100.38388,93.1559081 100.428373,93.5606504 C100.484488,94.1096378 100.729925,94.6258869 101.126807,95.0297294 C101.126807,95.0297294 102.607486,98.1265479 108.073895,99.1784085 C108.073895,99.1784085 109.287618,100.045165 109.591824,99.9981546 L108.660579,98.1412387 C108.660579,98.1412387 107.248191,98.8287677 106.034468,98.3616006 C106.034468,98.3616006 108.610913,98.2176308 108.539517,97.8591755 C108.539517,97.7857216 108.005604,96.8925216 108.005604,96.8925216 C108.005604,96.8925216 105.540908,98.0824756 103.693939,97.3009255 C103.693939,97.3009255 106.798089,97.5212874 107.813146,96.5546334 L106.947088,95.2530294 C106.947088,95.2530294 104.407893,96.6280873 102.26603,95.8171557 C102.26603,95.8171557 105.509867,95.9405584 106.73911,94.9797807 L105.705428,93.8045175 C105.705428,93.8045175 103.200379,95.1031833 101.424805,94.4156543 C101.424805,94.4156543 105.187035,94.2011688 105.4602,93.5518359 C105.4602,93.5518359 104.442039,92.5322951 104.032291,92.3765727 C104.032291,92.3765727 102.213259,93.2580201 101.219931,92.7820385 C101.219931,92.7820385 103.703251,92.3883253 103.718772,92.1268292 C103.718772,92.1268292 102.020802,91.1307937 100.87537,91.0573397 C101.931588,91.0752135 102.964408,91.3548146 103.870875,91.8682713 C103.72945,91.2677124 103.405783,90.7193287 102.93963,90.2904805 C102.93963,90.2904805 104.122312,90.4168213 104.283727,92.1121385 C104.283727,92.1121385 105.578158,92.940699 105.66197,93.1698753 C105.66197,93.1698753 105.751991,91.4745582 105.233597,90.4638318 C105.233597,90.4638318 106.375925,91.3305884 105.947552,93.4695675 L107.012276,94.6272017 C107.012276,94.6272017 107.254399,92.3883253 106.86638,91.4569292 C106.86638,91.4569292 107.884542,92.5117279 107.257503,94.9386465 L108.117353,96.2049926 C108.117353,96.2049926 108.483643,94.2922517 108.288081,93.1669372 C108.288081,93.1669372 109.008244,94.3422004 108.350164,96.5781386 L108.821995,97.4889676 C108.821995,97.4889676 109.061015,96.0874663 109.092056,95.6790623 C109.123098,95.2706583 109.241055,95.2442149 109.241055,95.2442149 C109.427916,96.120695 109.353762,97.0290838 109.026869,97.86799 C109.026869,97.86799 109.861885,99.8071743 109.998468,99.7689783 Z" id="Path" fill="#004D8A"></path>
                    <g id="%" transform="translate(34.000000, 160.000000)" fill="#232323" font-family="SegoeUI-Semibold, Segoe UI" font-size="22" font-weight="500" letter-spacing="0.1142857" opacity="0.756975446">
                        <text>
                            <tspan x="0" y="24">%</tspan>
                        </text>
                    </g>
                    <g id="%" transform="translate(88.000000, 159.000000)" fill="#232323" font-family="SegoeUI-Semibold, Segoe UI" font-size="19" font-weight="500" letter-spacing="0.09870128">
                        <text>
                            <tspan x="0.967495063" y="21">%</tspan>
                        </text>
                    </g>
                </g>
            </g>
        </g>
    </g>
</svg>