<?xml version="1.0" encoding="UTF-8"?>
<svg width="263px" height="263px" viewBox="0 0 263 263" version="1.1" xmlns="http://www.w3.org/2000/svg" xmlns:xlink="http://www.w3.org/1999/xlink">
    <!-- Generator: Sketch 52.6 (67491) - http://www.bohemiancoding.com/sketch -->
    <title>Offers 2</title>
    <desc>Created with Sketch.</desc>
    <g id="Puste-strony" stroke="none" stroke-width="1" fill="none" fill-rule="evenodd">
        <g id="Pusta-lista---Oferty-wszystkie" transform="translate(-997.000000, -363.000000)">
            <g id="Offers-2" transform="translate(997.000000, 363.000000)">
                <circle id="Oval" fill="#F7F9FB" cx="131.5" cy="131.5" r="131.5"></circle>
                <g id="undraw_timeline_9u4u" transform="translate(29.000000, 38.000000)">
                    <path d="M154,58 C150.685045,39.9432437 150.533456,22.2573472 154,5 L109.466917,5 C106.177694,22.5254338 106.177694,40.4745662 109.466917,58 C122.506501,55.8023117 137.659762,56.1841601 154,58 Z" id="Path" fill="#FFFFFF"></path>
                    <rect id="Rectangle" fill="#3F3D56" transform="translate(130.000000, 2.000000) rotate(-180.000000) translate(-130.000000, -2.000000) " x="123" y="0" width="14" height="4"></rect>
                    <path d="M75.4669169,162 C88.5065011,159.802312 103.659762,160.18416 120,162 C116.685045,143.943244 116.533456,126.257347 120,109 L75.4669169,109 C72.1776944,126.525434 72.1776944,144.474566 75.4669169,162 Z" id="Path" fill="#000000" opacity="0.1"></path>
                    <path d="M118,161 C114.685045,142.943244 114.533456,125.257347 118,108 L73.4669169,108 C70.1776944,125.525434 70.1776944,143.474566 73.4669169,161 C86.5065011,158.802312 101.659762,159.18416 118,161 Z" id="Path" fill="#FFFFFF"></path>
                    <rect id="Rectangle" fill="#3F3D56" transform="translate(94.000000, 107.000000) rotate(-180.000000) translate(-94.000000, -107.000000) " x="87" y="105" width="14" height="4"></rect>
                    <path d="M37,72 C37,72 54.0391936,24.4206128 92,24" id="Path" stroke="#004D8A" stroke-width="2"></path>
                    <path d="M94,26.0820189 C92.6759099,26.5026288 91.0306181,27.2197687 90,28 L90.8457539,26.0168244 L90.1016753,24 C91.090699,24.8222923 92.6990179,25.615142 94,26.0820189 Z" id="Path" fill="#3F3D56"></path>
                    <path d="M38.0222557,92 C38.0222557,92 36.529257,129.847711 58,135" id="Path" stroke="#004D8A" stroke-width="2"></path>
                    <path d="M61,134.589238 C59.7072243,134.836441 58.071157,135.350027 57,136 L58.071157,134.118274 L57.6670288,132 C58.4709397,132.950453 59.8549701,133.94992 61,134.589238 Z" id="Path" fill="#3F3D56"></path>
                    <path d="M42,78.4026112 C42,78.4026112 161.493457,59.0102883 182,83" id="Path" stroke="#004D8A" stroke-width="2"></path>
                    <path d="M183,85 C181.871618,84.2684426 180.284974,83.4713115 179,83.1557377 L181.26137,82.6659836 L182.643063,81 C182.474957,82.1803279 182.682211,83.7909836 183,85 Z" id="Path" fill="#3F3D56"></path>
                    <g id="Group" opacity="0.1" transform="translate(9.000000, 120.000000)" fill="#004D8A">
                        <ellipse id="Oval" cx="10" cy="2" rx="10" ry="2"></ellipse>
                    </g>
                    <g id="Group" opacity="0.1" transform="translate(132.000000, 83.000000)" fill="#004D8A">
                        <ellipse id="Oval" cx="8" cy="3" rx="8" ry="3"></ellipse>
                    </g>
                    <g id="Group" opacity="0.1" transform="translate(92.000000, 166.000000)" fill="#004D8A">
                        <ellipse id="Oval" cx="8" cy="3" rx="8" ry="3"></ellipse>
                    </g>
                    <path d="M233,140.24396 C221.676479,146.625308 210.400618,156.36957 199.14999,168 C190.032859,151.544028 178.756999,137.352588 165,125.75604 L198.85001,98 C212.641941,109.919142 224.207187,124.225495 233,140.24396 Z" id="Path" fill="#000000" opacity="0.1"></path>
                    <path d="M234,138.24396 C222.676479,144.625308 211.400618,154.36957 200.14999,166 C191.032859,149.544028 179.756999,135.352588 166,123.75604 L199.85001,96 C213.641941,107.919142 225.207187,122.225495 234,138.24396 Z" id="Path" fill="#FFFFFF"></path>
                    <polygon id="Rectangle" fill="#3F3D56" transform="translate(182.888532, 108.812287) rotate(-39.150000) translate(-182.888532, -108.812287) " points="175.286235 106.298438 190.473895 106.350049 190.490828 111.326136 175.303169 111.274525"></polygon>
                    <polygon id="Rectangle" fill="#004D8A" transform="translate(194.563299, 123.209636) rotate(-39.150000) translate(-194.563299, -123.209636) " points="181.096846 121.343717 208.017365 121.435199 208.029753 125.075555 181.109234 124.984073"></polygon>
                    <path d="M0,106 C3.31495461,87.9459908 3.46940461,70.2600943 0,53 L44.5330831,53 C47.8223056,70.5254338 47.8223056,88.4745662 44.5330831,106 C31.4963591,103.802312 16.3402379,104.186907 0,106 Z" id="Path" fill="#FFFFFF"></path>
                    <rect id="Rectangle" fill="#3F3D56" x="15" y="50" width="14" height="4"></rect>
                    <rect id="Rectangle" fill="#004D8A" x="81" y="120" width="28" height="4"></rect>
                    <rect id="Rectangle" fill="#004D8A" x="81" y="128" width="28" height="3"></rect>
                    <rect id="Rectangle" fill="#004D8A" x="116" y="11" width="28" height="4"></rect>
                    <rect id="Rectangle" fill="#004D8A" x="116" y="19" width="28" height="3"></rect>
                    <rect id="Rectangle" fill="#004D8A" x="9" y="63" width="28" height="4"></rect>
                </g>
            </g>
        </g>
    </g>
</svg>