<?xml version="1.0" encoding="UTF-8"?><svg id="Warstwa_2" xmlns="http://www.w3.org/2000/svg" viewBox="0 0 71.3 17.11"><defs><style>.cls-1{fill:#046342;fill-rule:evenodd;}.cls-2{fill:#c7ad74;}</style></defs><g id="Warstwa_1-2"><path class="cls-2" d="m7.43,13.09h6.14l-.75,3.69H0l.59-2.91,7.19-5.6c1.69-1.32,2.19-2.09,2.19-3.01s-.71-1.53-2-1.53c-1.15,0-2.23.59-3.06,1.65L1.81,3.34C3.1,1.34,5.67,0,8.67,0c3.57,0,6.07,1.93,6.07,4.56,0,2-.92,3.62-3.86,5.85l-3.46,2.68Z"/><path class="cls-2" d="m28.61,3.93l.73-3.6h-10.46l-2.75,9.62h4.73c1.93,0,2.63.56,2.63,1.5,0,1.2-1.06,1.91-2.96,1.91-1.55,0-3.15-.47-4.32-1.36l-2.16,3.31c1.58,1.2,3.78,1.81,6.18,1.81.98,0,1.9-.11,2.75-.31l4.58-8.3c-.91-1.42-2.78-2.18-5.52-2.18h-.7l.68-2.4h6.6Z"/><path class="cls-1" d="m47.87,9.55l-.21-.38h-1.44l-.21.38-.29.53-3.24,5.88h1.72l2.75-5.18,1.01,1.9.33.62h-1.59l-.67,1.21h2.9l.33.62.02.04.43.8h1.69l-3.28-5.95-.25-.46Zm-3.35-.38h-7.38l-.8,1.46h3.07v5.33h1.46v-5.33h2.85l.8-1.46Zm9.07,5.33v-5.33h-1.46v6.78h5.72l-.8-1.46h-3.46Zm7.43-3.87h2.06l.8-1.46h-2.86c-1.24,0-2.28.55-2.85,1.48-.32.51-.5,1.14-.5,1.85,0,1.35.67,2.48,1.72,3.06,0,0,0,0,0,0,.48.26,1.03.4,1.63.4h2.86l-.8-1.46h-2.06c-1.1,0-1.89-.81-1.89-1.93s.8-1.94,1.89-1.94Zm-26.12,1.21h-3.31c-.33,0-.6-.27-.6-.6s.27-.6.6-.6h3.21l.8-1.46h-4.02c-1.14,0-2.06.92-2.06,2.06s.92,2.06,2.06,2.06h3.31c.33,0,.6.27.6.6s-.27.6-.6.6h-4.57l-.79,1.43-.02.03h5.37c1.14,0,2.06-.92,2.06-2.06s-.92-2.06-2.06-2.06Zm32.64-2.8c-2.07,0-3.76,1.43-3.76,3.53s1.68,3.53,3.76,3.53,3.76-1.43,3.76-3.53-1.68-3.53-3.76-3.53Zm0,5.87c-1.36,0-2.49-.99-2.49-2.35s1.12-2.35,2.49-2.35,2.49.99,2.49,2.35-1.12,2.35-2.49,2.35Zm-1.49-2.8c-.12,0-.22.1-.22.22v.47c0,.12.1.22.22.22h.77c.12,0,.26.09.26.22v.81c0,.12.1.22.22.22h.46c.12,0,.22-.1.22-.22v-.81c0-.14.14-.22.26-.22h.77c.12,0,.22-.1.22-.22v-.47c0-.12-.1-.22-.22-.22h-.77c-.12,0-.26-.09-.26-.22v-.81c0-.12-.1-.22-.22-.22h-.46c-.12,0-.22.1-.22.22v.81c0,.14-.14.22-.26.22h-.77Z"/><path class="cls-2" d="m31.18,2.65h1.23l-.67,3.37h2.07l-.2.97h-3.3l.87-4.35Z"/><path class="cls-2" d="m37.83,6.15h-1.85l-.5.84h-1.3l2.79-4.35h1.21l1.05,4.35h-1.22l-.17-.84Zm-.19-.91l-.29-1.41-.83,1.41h1.12Z"/><path class="cls-2" d="m40.56,3.63h-1.33l.2-.98h3.89l-.2.98h-1.33l-.68,3.37h-1.23l.68-3.37Z"/></g></svg>