<?xml version="1.0" encoding="utf-8"?>
<!-- Generator: Adobe Illustrator 27.0.0, SVG Export Plug-In . SVG Version: 6.00 Build 0)  -->
<svg version="1.1" id="Warstwa_1" xmlns="http://www.w3.org/2000/svg" xmlns:xlink="http://www.w3.org/1999/xlink" x="0px" y="0px"
	 viewBox="0 0 1055.2 180.1" style="enable-background:new 0 0 1055.2 180.1;" xml:space="preserve">
<style type="text/css">
	.st0{fill-rule:evenodd;clip-rule:evenodd;fill:#EDEDEE;}
</style>
<path class="st0" d="M463.3,14.2l-5.3-9.5h-36.2l-5.2,9.5l-7.3,13.2l-81.7,148H371l69.2-130.3l25.4,47.7l8.3,15.5h-40.1L417,138.8
	h73.1l8.3,15.5l0.6,1.1l10.8,20h42.5L469.7,25.7L463.3,14.2z M378.9,4.7H193.2L173,41.4h77.4v134.1h36.7V41.4h71.7L378.9,4.7z
	 M607.2,138.9V4.7h-36.7v170.8h144l-20.2-36.6H607.2z M794.3,41.4h51.9l20.2-36.7h-72.1c-31.3,0-57.3,13.8-71.8,37.2
	c-8,12.8-12.5,28.6-12.5,46.5c0,34.1,16.9,62.5,43.2,76.9c0,0,0.1,0,0.1,0c12,6.5,25.9,10.2,41,10.2h72.1l-20.2-36.6h-51.9
	c-27.7,0-47.7-20.4-47.7-48.6C746.6,61.8,766.8,41.4,794.3,41.4z M136.7,71.8H53.3C44.9,71.8,38,65,38,56.6
	c0-8.4,6.8-15.2,15.2-15.2h80.9l20.2-36.6H53.3C24.6,4.7,1.4,27.9,1.4,56.6c0,28.6,23.2,51.9,51.9,51.9h83.4
	c8.4,0,15.2,6.8,15.2,15.2c0,8.4-6.8,15.2-15.2,15.2H21.6L1.8,174.8l-0.4,0.7h135.3c28.6,0,51.9-23.2,51.9-51.9
	C188.6,95,165.3,71.8,136.7,71.8z M958.5,1.3c-52.2,0-94.6,36.1-94.6,88.8c0,52.7,42.3,88.8,94.6,88.8c52.2,0,94.6-36.1,94.6-88.8
	C1053.1,37.4,1010.8,1.3,958.5,1.3z M958.5,149.2c-34.3,0-62.6-25.1-62.6-59.1c0-34,28.3-59.1,62.6-59.1c34.3,0,62.6,25,62.6,59.1
	C1021.2,124.2,992.8,149.2,958.5,149.2z M921.1,78.8c-3,0-5.5,2.5-5.5,5.5V96c0,3,2.5,5.5,5.5,5.5h19.4c3.1,0,6.6,2.2,6.6,5.6v20.5
	c0,3,2.5,5.5,5.5,5.5h11.7c3,0,5.5-2.5,5.5-5.5v-20.5c0-3.4,3.5-5.6,6.6-5.6h19.4c3,0,5.5-2.5,5.5-5.5V84.3c0-3-2.5-5.5-5.5-5.5
	h-19.4c-3.1,0-6.6-2.2-6.6-5.6V52.7c0-3-2.5-5.5-5.5-5.5h-11.7c-3,0-5.5,2.5-5.5,5.5v20.5c0,3.4-3.5,5.6-6.6,5.6H921.1z"/>
</svg>
