<?xml version="1.0" standalone="no"?>
<!DOCTYPE svg PUBLIC "-//W3C//DTD SVG 20010904//EN"
 "http://www.w3.org/TR/2001/REC-SVG-20010904/DTD/svg10.dtd">
<svg version="1.0" xmlns="http://www.w3.org/2000/svg"
 width="500.000000pt" height="97.000000pt" viewBox="0 0 500.000000 97.000000"
 preserveAspectRatio="xMidYMid meet">

<g transform="translate(0.000000,97.000000) scale(0.100000,-0.100000)"
fill="#006547" stroke="none">
<path d="M4374 855 c-80 -17 -136 -47 -196 -103 -95 -88 -134 -187 -125 -317
3 -48 14 -103 28 -138 37 -95 133 -188 231 -223 225 -79 463 7 560 204 31 63
33 73 33 177 0 99 -3 116 -27 168 -33 71 -111 155 -178 191 -54 30 -162 56
-225 55 -22 0 -68 -7 -101 -14z m208 -141 c133 -45 212 -195 174 -327 -62
-213 -328 -276 -487 -117 -106 107 -104 266 5 375 31 31 69 58 96 68 59 20
155 21 212 1z"/>
<path d="M4442 647 c-6 -7 -12 -40 -14 -72 l-3 -60 -60 -3 c-73 -4 -87 -14
-83 -61 l3 -36 60 -3 c32 -2 65 -8 72 -13 7 -6 13 -38 15 -72 l3 -62 45 0 45
0 3 60 c3 73 16 85 88 85 55 0 64 8 64 55 0 33 -19 44 -85 47 l-60 3 -3 60
c-4 68 -14 85 -52 85 -15 0 -32 -6 -38 -13z"/>
<path d="M236 830 c-57 -29 -85 -58 -112 -115 -57 -121 -12 -253 111 -319 37
-19 59 -21 278 -26 236 -5 239 -5 258 -29 24 -30 24 -52 -2 -84 l-20 -27 -280
-2 -281 -3 -45 -82 -45 -83 334 0 c330 0 333 0 384 24 82 38 137 127 136 221
-1 65 -23 116 -71 164 -63 63 -102 71 -352 71 -196 0 -219 2 -240 18 -30 25
-30 75 0 105 20 21 31 22 221 25 l200 3 34 62 c60 108 84 97 -210 97 -237 -1
-262 -2 -298 -20z"/>
<path d="M932 770 l-43 -80 173 -2 173 -3 3 -312 2 -313 80 0 80 0 2 313 3
312 166 3 165 2 43 80 42 80 -423 0 -423 0 -43 -80z"/>
<path d="M1879 588 c-78 -145 -150 -277 -160 -294 -48 -87 -119 -222 -119
-228 0 -4 43 -5 96 -4 l95 3 155 294 c85 162 156 296 158 298 2 3 38 -60 80
-139 l75 -143 -91 -5 -92 -5 -32 -55 c-18 -30 -33 -61 -34 -67 0 -10 39 -13
163 -13 l162 0 45 -85 45 -85 98 0 98 0 -43 78 c-24 42 -120 219 -214 392
l-172 315 -85 3 -85 3 -143 -263z"/>
<path d="M2700 455 l0 -395 330 0 331 0 -44 83 -45 82 -201 3 -201 2 0 310 0
310 -85 0 -85 0 0 -395z"/>
<path d="M3617 839 c-97 -23 -190 -101 -235 -197 -25 -52 -27 -68 -27 -177 0
-104 3 -127 23 -170 53 -115 126 -183 233 -216 51 -16 93 -19 250 -19 104 0
189 3 189 8 -1 4 -20 41 -43 82 l-43 75 -154 5 c-167 5 -190 12 -242 67 -58
61 -76 177 -39 258 19 43 77 100 120 117 14 6 92 13 173 16 l148 4 40 75 c22
41 40 76 40 79 0 8 -395 2 -433 -7z"/>
</g>
</svg>

