<svg xmlns="http://www.w3.org/2000/svg" width="32.007" height="32" viewBox="0 0 32.007 32">
  <path id="instagram-brands_1_" data-name="instagram-brands (1)" d="M15.932,39.621a8.2,8.2,0,1,0,8.2,8.2A8.191,8.191,0,0,0,15.932,39.621Zm0,13.538a5.334,5.334,0,1,1,5.334-5.334,5.344,5.344,0,0,1-5.334,5.334ZM26.386,39.285a1.914,1.914,0,1,1-1.914-1.914A1.909,1.909,0,0,1,26.386,39.285Zm5.434,1.942a9.47,9.47,0,0,0-2.585-6.7,9.532,9.532,0,0,0-6.7-2.585c-2.642-.15-10.561-.15-13.2,0a9.519,9.519,0,0,0-6.7,2.578,9.5,9.5,0,0,0-2.585,6.7c-.15,2.642-.15,10.561,0,13.2a9.47,9.47,0,0,0,2.585,6.7,9.545,9.545,0,0,0,6.7,2.585c2.642.15,10.561.15,13.2,0a9.47,9.47,0,0,0,6.7-2.585,9.532,9.532,0,0,0,2.585-6.7C31.97,51.781,31.97,43.869,31.82,41.227Zm-3.413,16.03A5.4,5.4,0,0,1,25.365,60.3c-2.106.835-7.1.643-9.433.643S8.6,61.128,6.5,60.3a5.4,5.4,0,0,1-3.042-3.042c-.835-2.106-.643-7.1-.643-9.433s-.186-7.333.643-9.433A5.4,5.4,0,0,1,6.5,35.351c2.106-.835,7.1-.643,9.433-.643s7.333-.186,9.433.643a5.4,5.4,0,0,1,3.042,3.042c.835,2.106.643,7.1.643,9.433S29.242,55.158,28.407,57.258Z" transform="translate(0.075 -31.825)"/>
</svg>
