<?xml version="1.0" encoding="utf-8"?>
<!-- Generator: Adobe Illustrator 26.4.1, SVG Export Plug-In . SVG Version: 6.00 Build 0)  -->
<svg version="1.1" id="Warstwa_1" xmlns="http://www.w3.org/2000/svg" xmlns:xlink="http://www.w3.org/1999/xlink" x="0px" y="0px"
	 viewBox="0 0 64 64" style="enable-background:new 0 0 64 64;" xml:space="preserve">
<style type="text/css">
	
		.st0{clip-path:url(#SVGID_00000112618296321855926910000004993949705221479838_);fill-rule:evenodd;clip-rule:evenodd;fill:#006845;}
</style>
<g>
	<defs>
		<rect id="SVGID_1_" width="64" height="64"/>
	</defs>
	<clipPath id="SVGID_00000125571395725775416450000005854522688777821587_">
		<use xlink:href="#SVGID_1_"  style="overflow:visible;"/>
	</clipPath>
	
		<path style="clip-path:url(#SVGID_00000125571395725775416450000005854522688777821587_);fill-rule:evenodd;clip-rule:evenodd;fill:#006845;" d="
		M4.1,23.5c-2.2,0-4.1,1.8-4.1,4.1v8.7c0,2.2,1.8,4.1,4.1,4.1h14.5c2.3,0,5,1.6,5,4.2v15.3c0,2.2,1.8,4.1,4.1,4.1h8.7
		c2.2,0,4.1-1.8,4.1-4.1V44.6c0-2.5,2.6-4.2,5-4.2h14.5c2.2,0,4.1-1.8,4.1-4.1v-8.7c0-2.2-1.8-4.1-4.1-4.1H45.4c-2.3,0-5-1.6-5-4.2
		V4.1c0-2.2-1.8-4.1-4.1-4.1h-8.7c-2.2,0-4.1,1.8-4.1,4.1v15.3c0,2.5-2.6,4.2-5,4.2H4.1z"/>
</g>
</svg>
