<svg id="projekty" xmlns="http://www.w3.org/2000/svg" xmlns:xlink="http://www.w3.org/1999/xlink" viewBox="0 0 48 48">
  <defs>
    <style>
      .cls-1 {
        fill: #fff;
      }

      .cls-2 {
        fill: url(#linear-gradient);
      }

      .cls-3 {
        fill: #4aa8ff;
      }

      .cls-4 {
        fill: #152a94;
      }
    </style>
    <linearGradient id="linear-gradient" x1="21.2" y1="5.85" x2="20.2" y2="41.97" gradientUnits="userSpaceOnUse">
      <stop offset="0" stop-color="#0a85ff"/>
      <stop offset="1" stop-color="#152a94"/>
    </linearGradient>
  </defs>
  <g>
    <path class="cls-1" d="M42,48H6a6,6,0,0,1-6-6V6A6,6,0,0,1,6,0H42a6,6,0,0,1,6,6V42A6,6,0,0,1,42,48Z"/>
    <g>
      <path class="cls-2" d="M23.88,42H13.49A4.49,4.49,0,0,1,9,37.47v-27A4.48,4.48,0,0,1,13.46,6h9c12,0,11.7,10.13,9,15l-7.4,13.5c-2.94,5.34-.67,7.19-.23,7.48C23.92,41.94,23.91,42,23.88,42Z"/>
      <path class="cls-3" d="M30.71,42H28.07a.16.16,0,0,1-.09,0,3.42,3.42,0,0,1-1.51-3c0-2.18,1.62-4.92,2.63-6.75,3.33-6.05,5.09-9.28,5.31-9.68,0,0,.05,0,.07,0a11.66,11.66,0,0,1,4.18,6.25C40.42,34.78,35.3,42,30.71,42Z"/>
      <path class="cls-4" d="M11.07,41.27a5.09,5.09,0,0,0,1.11.51l.17,0L23.82,21c3.45-6.31,4.06-15-8.44-15H13.49A4.48,4.48,0,0,0,9,10.45V37.6A4.49,4.49,0,0,0,11.07,41.27Z"/>
    </g>
  </g>
</svg>
