<?xml version="1.0" encoding="UTF-8"?><svg width="2993" height="263" viewBox="0 0 2993 263" xmlns="http://www.w3.org/2000/svg" xmlns:xlink="http://www.w3.org/1999/xlink"><svg width="263" height="263" viewBox="0 0 263 263" id="ComplaintProducts" xmlns="http://www.w3.org/2000/svg"><defs><filter x="-23.8%" y="-8.5%" width="147.6%" height="123.7%" filterUnits="objectBoundingBox" id="aa"><feOffset dy="2" in="SourceAlpha" result="shadowOffsetOuter1"/><feGaussianBlur stdDeviation="2" in="shadowOffsetOuter1" result="shadowBlurOuter1"/><feColorMatrix values="0 0 0 0 0.948155825 0 0 0 0 0.948155825 0 0 0 0 0.948155825 0 0 0 0.5 0" in="shadowBlurOuter1"/></filter><filter x="-23.8%" y="-8.5%" width="147.6%" height="123.7%" filterUnits="objectBoundingBox" id="ac"><feOffset dy="2" in="SourceAlpha" result="shadowOffsetOuter1"/><feGaussianBlur stdDeviation="2" in="shadowOffsetOuter1" result="shadowBlurOuter1"/><feColorMatrix values="0 0 0 0 0.288655698 0 0 0 0 0.56455189 0 0 0 0 0.886238694 0 0 0 0.163185009 0" in="shadowBlurOuter1"/></filter><path id="ab" d="M50.175 70.28l-15.82-53.646 3.71-4.284 6.802-1.026 18.926 53.429z"/><path id="ad" d="M50.175 70.28l-15.82-53.646 3.71-4.284 6.802-1.026 18.926 53.429z"/></defs><g fill="none" fill-rule="evenodd"><g><circle cx="131.5" cy="131.5" r="131.5" fill="#F7F9FB"/><path d="M179.174 192c-30.796-5.847-66.583-4.83-105.174 0 7.829-48.038 8.187-95.089 0-141h105.174a429.462 429.462 0 010 141z" fill="#000" opacity=".1"/><g transform="matrix(-1 0 0 1 186 52)"><path d="M110 135c-7.758-45.994-8.113-91.043 0-135H5.774a397.46 397.46 0 000 135c30.518-5.598 65.983-4.625 104.226 0z" fill="#FFF"/><rect fill="#004D8A" x="22" y="18" width="66.484" height="4.553" rx="2"/><rect fill="#CDDCE7" x="22" y="29" width="66.484" height="4.621" rx="2"/></g><path d="M154.58 121.5c0 12.747-10.333 23.08-23.08 23.08-12.747 0-23.08-10.333-23.08-23.08 0-12.747 10.333-23.08 23.08-23.08 12.742.01 23.07 10.338 23.08 23.08zm3.42 0c0-14.636-11.864-26.5-26.5-26.5S105 106.864 105 121.5s11.864 26.5 26.5 26.5 26.5-11.864 26.5-26.5z" fill="#7FBA00" fill-rule="nonzero" opacity=".177"/><g transform="rotate(5 -1490.139 1658.842)"><use fill="#000" filter="url(#aa)" xlink:href="#ab"/><use fill="#FFF" xlink:href="#ab"/></g><g transform="rotate(5 -1490.139 1658.842)"><use fill="#000" filter="url(#ac)" xlink:href="#ad"/><use fill="#FFF" xlink:href="#ad"/></g><path fill="#004D8A" d="M151.989 152.216l7.101 56.88 23.533.288-6.997-58.023z"/><path fill="#004D8A" opacity=".07" d="M151.989 152.216l7.101 56.88 23.533.288-6.997-58.023z"/><path fill="#C1D4E2" d="M171.393 212.518l-14.758-.196 7.07-54.802 5.137-2.466 6.672 1.679z"/><path fill="#FFF" opacity=".2" d="M171.393 212.518l-14.758-.196 7.07-54.802 5.137-2.466 6.672 1.679z"/><path fill="#004D8A" d="M168.372 154.861l-23.012-6.44-11.818 56.846 22.54 7.5z"/><path d="M159.997 143.044c.383-1.99 1.316-3.622 3.197-4.234 1.277-.416 2.508-.182 3.648.7 3.738 2.879 5.296 11.637 5.361 12.01l-.276-.016c-.015-.088-1.592-8.97-5.202-11.752-1.053-.811-2.194-1.025-3.391-.636-1.713.558-2.608 2.006-3.008 3.799.536-.191 1.1-.3 1.692-.31 1.36-.02 2.343.515 2.91 1.592 1.866 3.521-1.259 11.598-1.393 11.942l-.24-.089c.032-.08 3.204-8.27 1.404-11.673-.526-.991-1.44-1.485-2.714-1.466a5.021 5.021 0 00-1.727.337c-.846 4.555 1.234 11.042 1.263 11.136l-.265.031c-.031-.091-2.053-6.4-1.318-11.033-5.06 2.306-7.435 12.279-7.464 12.393l-.254-.044c.026-.115 2.482-10.417 7.777-12.687z" fill="#004D8A"/><ellipse fill="#DDE7EF" transform="matrix(1 0 0 -1 0 445.382)" cx="135.708" cy="222.691" rx="45.708" ry="5.691"/></g><g fill="#7FBA00" stroke="#7FBA00"><path d="M127.523 129.535c-.127.687.295 1.36.978 1.553l.175.05.067.017a1.286 1.286 0 001.541-.952l2.205-9.496 3-8.474.021-.069a1.256 1.256 0 00-.875-1.555l-.196-.055a1.39 1.39 0 00-1.664.793c-1.567 3.765-2.618 6.572-3.152 8.414-.542 1.87-1.243 5.132-2.1 9.774z"/><path d="M140.754 118.5l-4.671.185-4.67.185-8.655.341c-.706.028-1.284.728-1.257 1.59.026.858.641 1.506 1.343 1.478l17.996-.71c.705-.028 1.283-.728 1.257-1.59-.027-.858-.642-1.506-1.343-1.478z"/></g></g></svg><svg width="263" height="263" viewBox="0 0 263 263" id="Complaints" x="263" xmlns="http://www.w3.org/2000/svg"><defs><filter x="-23.8%" y="-8.5%" width="147.6%" height="123.7%" filterUnits="objectBoundingBox" id="ba"><feOffset dy="2" in="SourceAlpha" result="shadowOffsetOuter1"/><feGaussianBlur stdDeviation="2" in="shadowOffsetOuter1" result="shadowBlurOuter1"/><feColorMatrix values="0 0 0 0 0.948155825 0 0 0 0 0.948155825 0 0 0 0 0.948155825 0 0 0 0.5 0" in="shadowBlurOuter1"/></filter><filter x="-23.8%" y="-8.5%" width="147.6%" height="123.7%" filterUnits="objectBoundingBox" id="bc"><feOffset dy="2" in="SourceAlpha" result="shadowOffsetOuter1"/><feGaussianBlur stdDeviation="2" in="shadowOffsetOuter1" result="shadowBlurOuter1"/><feColorMatrix values="0 0 0 0 0.288655698 0 0 0 0 0.56455189 0 0 0 0 0.886238694 0 0 0 0.163185009 0" in="shadowBlurOuter1"/></filter><path id="bb" d="M50.175 70.28l-15.82-53.646 3.71-4.284 6.802-1.026 18.926 53.429z"/><path id="bd" d="M50.175 70.28l-15.82-53.646 3.71-4.284 6.802-1.026 18.926 53.429z"/></defs><g fill="none" fill-rule="evenodd"><circle cx="131.5" cy="131.5" r="131.5" fill="#F7F9FB"/><path d="M179.174 192c-30.796-5.847-66.583-4.83-105.174 0 7.829-48.038 8.187-95.089 0-141h105.174a429.462 429.462 0 010 141z" fill="#000" opacity=".1"/><g transform="matrix(-1 0 0 1 186 52)"><path d="M110 135c-7.758-45.994-8.113-91.043 0-135H5.774a397.46 397.46 0 000 135c30.518-5.598 65.983-4.625 104.226 0z" fill="#FFF"/><rect fill="#004D8A" x="22" y="18" width="66.484" height="4.553" rx="2"/><rect fill="#CDDCE7" x="22" y="29" width="66.484" height="4.621" rx="2"/></g><path d="M132.303 129.308l-.842.91a.87.87 0 01-.657.308.87.87 0 01-.657-.308l-7.388-7.984a1.013 1.013 0 01-.285-.71c0-.27.103-.528.285-.712l7.381-7.984a.882.882 0 01.657-.302c.248 0 .486.11.658.302l.841.91c.178.186.28.443.28.711 0 .268-.102.525-.28.711l-4.601 4.72h10.918c.241-.001.474.101.645.286.172.184.268.434.268.696v1.315c0 .546-.409.988-.913.988h-10.905l4.601 4.721c.178.187.277.444.276.713a1.028 1.028 0 01-.282.709z" fill="#004D8A"/><path d="M154.58 121.5c0 12.747-10.333 23.08-23.08 23.08-12.747 0-23.08-10.333-23.08-23.08 0-12.747 10.333-23.08 23.08-23.08 12.742.01 23.07 10.338 23.08 23.08zm3.42 0c0-14.636-11.864-26.5-26.5-26.5S105 106.864 105 121.5s11.864 26.5 26.5 26.5 26.5-11.864 26.5-26.5z" fill="#CDDCE7" fill-rule="nonzero"/><g><g transform="rotate(5 -1490.139 1658.842)"><use fill="#000" filter="url(#ba)" xlink:href="#bb"/><use fill="#FFF" xlink:href="#bb"/></g><g transform="rotate(5 -1490.139 1658.842)"><use fill="#000" filter="url(#bc)" xlink:href="#bd"/><use fill="#FFF" xlink:href="#bd"/></g><path fill="#004D8A" d="M151.989 152.216l7.101 56.88 23.533.288-6.997-58.023z"/><path fill="#004D8A" opacity=".07" d="M151.989 152.216l7.101 56.88 23.533.288-6.997-58.023z"/><path fill="#C1D4E2" d="M171.393 212.518l-14.758-.196 7.07-54.802 5.137-2.466 6.672 1.679z"/><path fill="#FFF" opacity=".2" d="M171.393 212.518l-14.758-.196 7.07-54.802 5.137-2.466 6.672 1.679z"/><path fill="#004D8A" d="M168.372 154.861l-23.012-6.44-11.818 56.846 22.54 7.5z"/><path d="M159.997 143.044c.383-1.99 1.316-3.622 3.197-4.234 1.277-.416 2.508-.182 3.648.7 3.738 2.879 5.296 11.637 5.361 12.01l-.276-.016c-.015-.088-1.592-8.97-5.202-11.752-1.053-.811-2.194-1.025-3.391-.636-1.713.558-2.608 2.006-3.008 3.799.536-.191 1.1-.3 1.692-.31 1.36-.02 2.343.515 2.91 1.592 1.866 3.521-1.259 11.598-1.393 11.942l-.24-.089c.032-.08 3.204-8.27 1.404-11.673-.526-.991-1.44-1.485-2.714-1.466a5.021 5.021 0 00-1.727.337c-.846 4.555 1.234 11.042 1.263 11.136l-.265.031c-.031-.091-2.053-6.4-1.318-11.033-5.06 2.306-7.435 12.279-7.464 12.393l-.254-.044c.026-.115 2.482-10.417 7.777-12.687z" fill="#004D8A"/></g><ellipse fill="#DDE7EF" transform="matrix(1 0 0 -1 0 445.382)" cx="135.708" cy="222.691" rx="45.708" ry="5.691"/></g></svg><svg width="263" height="263" viewBox="0 0 263 263" id="Delivery" x="526" xmlns="http://www.w3.org/2000/svg"><g fill="none" fill-rule="evenodd"><g><circle cx="131.5" cy="131.5" r="131.5" fill="#F7F9FB"/><path d="M204.888 81.744a1.816 1.816 0 00-.994-1.429 1.856 1.856 0 00-2.459 1.038l-8.86 18.652-2 73.442h3.193l1.2-73.279 9.755-17.267a1.9 1.9 0 00.168-1.158l-.003.001z" fill="#004D8A"/><path d="M161.136 168.648l6.559 12.446a1.3 1.3 0 001.14.638c.469.023.915-.206 1.17-.6l7.8-13.324-16.669.84z" fill="#6D7286" opacity=".85"/><path d="M206.884 82.542a1.816 1.816 0 00-.994-1.429 1.856 1.856 0 00-2.459 1.038l-6.865 17.055-2 76.636h3.193l1.2-76.472 7.759-15.67a1.9 1.9 0 00.166-1.158z" fill="#004D8A"/><path d="M65.64 169.853l10.777-6.785 114.158-4.862 5.186 11.645z" fill="#FFF"/><path fill="#004D8A" d="M65.643 177.04v-7.185l132.228-1.277-.128 4.87H68.038v3.592z"/><path d="M76.085 174.642l7.855 15.621c.273.498.797.805 1.365.8a1.56 1.56 0 001.4-.752l9.336-16.723-19.956 1.054zM167.227 173.642l7.855 15.621c.273.498.797.805 1.365.8a1.56 1.56 0 001.4-.752l9.336-16.723-19.956 1.054z" fill="#004D8A"/><ellipse fill="#004D8A" opacity=".1" cx="131.5" cy="202" rx="65.5" ry="3"/><circle stroke="#F7F9FB" fill="#004D8C" cx="86.5" cy="191.5" r="7.5"/><circle stroke="#F7F9FB" fill="#004D8C" cx="178.5" cy="191.5" r="7.5"/></g><path fill="#B9B9B9" d="M174.397 159.946l1.259-72.102-6.402 3.223-11.7 2.461-1.476 71.594z"/><path d="M79.6 96.009v67.2l76.715 1.309V95.312z" fill="#FFF"/><path fill="#CDDCE7" d="M114.404 117.27l-35.98-21.335-14.644 23.151 36.858 22.44z"/><path fill="#004D8A" d="M103.572 120.18l-24.33-13.968-1.934 3.099 24.206 14.29zM94.105 123.108l-18.342-11.472-2.6 3.166 19.183 11.906zM98.995 125.759l-3.253-1.67-1.626 3.569 2.861 1.814zM170.886 119.765l.77-4.013-.061-24.448-4.008.4-.576 33.018z"/><path fill="#004D8A" d="M94.71 88.624l76.902 1.689-.027 1.537-3.527.659-.23-.725-78.126-.67z"/></g></svg><svg width="263" height="263" viewBox="0 0 263 263" id="Employees" x="789" xmlns="http://www.w3.org/2000/svg"><defs><filter x="-4.6%" y="-4.4%" width="109.1%" height="112.3%" filterUnits="objectBoundingBox" id="dc"><feOffset dy="2" in="SourceAlpha" result="shadowOffsetOuter1"/><feGaussianBlur stdDeviation="2" in="shadowOffsetOuter1" result="shadowBlurOuter1"/><feColorMatrix values="0 0 0 0 0 0 0 0 0 0.301960784 0 0 0 0 0.541176471 0 0 0 0.247084466 0" in="shadowBlurOuter1"/></filter><circle id="da" cx="131.5" cy="131.5" r="131.5"/><path d="M32.701 5.135c.068-3.001-1.698-1.485 1.267-1.771 47.017-4.485 103.384-4.485 150.402 0-.304 1.051-.008 4.05 0 5.763V113.8c-49.301-2.86-108.136-2.86-153.048 0l1.38-108.665z" id="dd"/></defs><g fill="none" fill-rule="evenodd"><mask id="db" fill="#fff"><use xlink:href="#da"/></mask><use fill="#F7F9FB" xlink:href="#da"/><g mask="url(#db)"><g transform="translate(106 219)"><circle fill="#DDE7EF" cx="3.5" cy="3.5" r="3.5"/><circle fill="#004D8A" cx="17.5" cy="3.5" r="3.5"/><circle fill="#DDE7EF" cx="31.5" cy="3.5" r="3.5"/><circle fill="#DDE7EF" cx="47.5" cy="3.5" r="3.5"/></g></g><g mask="url(#db)"><g transform="translate(26 65)"><use fill="#000" filter="url(#dc)" xlink:href="#dd"/><use fill="#FFF" xlink:href="#dd"/><rect fill="#004D8A" x="100.931" y="22.414" width="49.467" height="11.655" rx="2.25"/><rect fill="#C1D4E2" x="50.853" y="63.655" width="112.426" height="3.586" rx="1.793"/><rect fill="#C1D4E2" x="50.853" y="73.517" width="112.426" height="3.586" rx="1.793"/><rect fill="#C1D4E2" x="50.853" y="83.379" width="74.651" height="3.586" rx="1.793"/></g><g transform="translate(72 73)"><path d="M38.96 19.508a19.418 19.418 0 01-2.362 9.338c-.174.315-.355.634-.56.95a.547.547 0 01-.082.13 12.21 12.21 0 01-.69 1.02 19.275 19.275 0 01-5.572 5.167l-.115.079a20.137 20.137 0 01-2.879 1.43c-.22.09-.425.173-.646.244-.11.047-.228.086-.342.126a.15.15 0 00-.04 0c-.24.086-.488.161-.732.236l-.185.043c-.22.067-.441.122-.662.17-.761.195-1.535.335-2.316.421-.756.092-1.518.138-2.28.138h-.236a17.757 17.757 0 01-3.151-.291l-.19-.032a6.844 6.844 0 01-.578-.118l-.366-.083c-.389-.085-.773-.19-1.15-.315-.77-.23-1.524-.51-2.257-.839l-.083-.035a19.274 19.274 0 01-3.068-1.745 2.1 2.1 0 01-.236-.162A19.5 19.5 0 0123.499.416 19.5 19.5 0 0139 19.504l-.04.004z" fill="#E2E2E2"/><path d="M23.932 14.805a3.988 3.988 0 01-3.989 3.809 3.988 3.988 0 01-3.988-3.81v-.189a3.984 3.984 0 013.988-3.979 3.984 3.984 0 013.989 3.98c-.004.06 0 .124 0 .189z" fill="#004D8A"/><path d="M23.932 14.875c-.093 2.09-1.852 3.739-3.989 3.739-2.137 0-3.895-1.648-3.988-3.739v-.185a6.403 6.403 0 017.977 0c-.004.059 0 .122 0 .185z" fill="#000" opacity=".1"/><circle fill="#004D8A" cx="19.943" cy="19.943" r="6.648"/><path d="M16.11 13.737c0-1.998 1.45-3.687 3.39-3.95a3.879 3.879 0 00-3.817 1.805 4.058 4.058 0 000 4.294A3.879 3.879 0 0019.5 17.69c-1.941-.264-3.391-1.955-3.39-3.954zM12.925 22.948c-1.623-1.326-1.934-3.558-.728-5.22a4.591 4.591 0 00-.411.38c-1.065 1.064-1.423 2.579-.935 3.957.488 1.379 1.745 2.405 3.285 2.68 1.54.276 3.12-.242 4.128-1.352a4.29 4.29 0 00.35-.418c-1.636 1.31-4.068 1.298-5.69-.027z" fill="#004D8A"/><path d="M16.447 28.278c-.326.07-.641.19-.936.356-.52.41-.502 1.23-.347 1.899.355 1.525 1.223 2.989 2.551 3.612.823.33 1.7.47 2.575.41.947 0 2.02-.14 2.608-.951.265-.428.447-.911.532-1.419.291-1.23.586-2.501.48-3.772-.574.053-1.216.09-1.669-.303-.453-.394-.554-1.144-.755-1.768a.47.47 0 00-.147-.254.445.445 0 00-.264-.04 9.84 9.84 0 01-1.804-.083c-.378-.053-1.291-.475-1.57-.119-.204.259-.076 1.046-.235 1.41-.2.475-.567.843-1.019 1.022z" fill="#FFF"/><path d="M16.447 28.278c-.326.07-.641.19-.936.356-.52.41-.502 1.23-.347 1.899.355 1.525 1.223 2.989 2.551 3.612.823.33 1.7.47 2.575.41.947 0 2.02-.14 2.608-.951.265-.428.447-.911.532-1.419.291-1.23.586-2.501.48-3.772-.574.053-1.216.09-1.669-.303-.453-.394-.554-1.144-.755-1.768a.47.47 0 00-.147-.254.445.445 0 00-.264-.04 9.84 9.84 0 01-1.804-.083c-.378-.053-1.291-.475-1.57-.119-.204.259-.076 1.046-.235 1.41-.2.475-.567.843-1.019 1.022z" fill="#FFF" opacity=".05"/><circle fill="#FFF" cx="20.386" cy="23.045" r="4.432"/><path d="M30.136 32.914c-.03.04-.061.089-.096.13l-.189.259a15.433 15.433 0 00-2.283 3.994c-.208.097-.424.19-.64.284a8.18 8.18 0 01-.631.251c-.108.049-.224.09-.335.13a.14.14 0 00-.039 0c-.235.09-.478.166-.716.243l-.181.045a7.65 7.65 0 01-.647.174c-.745.2-1.501.346-2.265.434-.74.094-1.485.142-2.23.142h-.231a16.52 16.52 0 01-3.081-.3l-.185-.032a6.399 6.399 0 01-.566-.122l-.358-.085c-.38-.088-.755-.196-1.125-.325a3.65 3.65 0 01.828-1.824c-.866-1.091-2.291-1.52-3.212-2.55-.08-.099-.155-.202-.223-.309a1.32 1.32 0 01-.12-.247.724.724 0 01-.05-.215 1.974 1.974 0 01-.034-.454c-.023-1.152.027-2.466.874-3.188a3.891 3.891 0 011.379-.648c.86-.284 1.697-.639 2.503-1.063.074.181.123.372.146.568.078.47.07.965.174 1.431.202.832.69 1.555 1.37 2.028a5.075 5.075 0 002.258.863c.793.122 1.425-.312 2.172-.608.33-.111.636-.293.897-.535.338-.41.518-.938.505-1.48 0-.535-.058-1.07-.027-1.622 0-.056.007-.112.02-.166a.675.675 0 01.438-.637.785.785 0 01.42.081l1.44.58c.624.227 1.226.52 1.795.872 1.275.871 2.101 2.308 2.245 3.9z" fill="#004D8A"/><path d="M16.84 38.114l-.201-.03a8.298 8.298 0 01-.62-.11l-.391-.076c-.416-.08-.827-.177-1.23-.293a21.934 21.934 0 01-2.415-.78 7.95 7.95 0 01-.421-3.45c.051-.5.17-.991.354-1.466.885.733 2.393.319 3.396.905.271.167.494.388.648.644.28.47.472.976.565 1.498.063.286.122.575.173.865v.275c.033.205.063.417.075.626.068.472.068.926.068 1.392z" fill="#000" opacity=".1"/><path d="M15.225 38.555a7.65 7.65 0 01-.585-.235l-.368-.156a12.832 12.832 0 01-1.145-.547c-.763-.386-1.5-.817-2.206-1.292l-.08-.053a9.707 9.707 0 01.274-4.208c.157-.49.367-.963.626-1.41.715.952 2.28.802 3.14 1.62.329.331.547.748.626 1.195.082.434.121.873.117 1.313.002.476 0 .952-.034 1.43 0 .067-.005.134-.017.2-.008.043-.02.098-.027.141l-.033.169c-.038.615-.162 1.227-.288 1.833z" fill="#004D8A"/><path d="M29.973 36.042a22.12 22.12 0 01-3.076 1.424c-.236.09-.455.173-.69.243-.118.048-.244.087-.366.126a.171.171 0 00-.042 0c-.257.086-.522.16-.783.235l-.198.044c0-.35 0-.71.042-1.064.03-.279.063-.557.105-.836 0-.05 0-.102.022-.153a.392.392 0 000-.098c.05-.267.105-.538.16-.804a4.69 4.69 0 01.563-1.606c.158-.27.381-.5.653-.675 1.001-.627 2.524-.2 3.366-.969.166.456.28.927.34 1.405a8.548 8.548 0 01-.096 2.728z" fill="#000" opacity=".1"/><path d="M29.922 36.111l-.123.075a22.8 22.8 0 01-3.09 1.353c-.238.086-.457.164-.694.232-.119.044-.245.082-.368.119a.182.182 0 00-.042 0c-.258.082-.525.153-.787.224 0-.44 0-.877.042-1.313 0-.112 0-.227.034-.34v-.152-.116c.064-.402.14-.794.233-1.19.08-.402.203-.798.368-1.181.163-.396.458-.739.845-.984 1.007-.597 2.537-.19 3.383-.929.181.469.3.954.355 1.447.114.92.061 1.85-.156 2.755z" fill="#004D8A"/><ellipse fill="#004D8A" cx="20.386" cy="18.614" rx="5.318" ry="3.545"/><path d="M15.427 37.6v.484a.099.099 0 000 .03l-.354-.077a1.087 1.087 0 010-.195c-.001-.688.31-1.343.85-1.794a.561.561 0 01.118-.092c.205-.16.438-.284.687-.367a2.12 2.12 0 01.717-.132.452.452 0 01.1 0c.06-.003.121-.003.182 0h-.126c-.584.06-1.126.32-1.525.734a.783.783 0 00-.119.132 2.3 2.3 0 00-.53 1.277z" fill="#000" opacity=".05"/><path d="M19.5 38.21c0 .267-.026.531-.077.79a13.009 13.009 0 01-2.789-.314l-.167-.034a5.124 5.124 0 01-.512-.127v-.034-.28-.28c.029-.57.188-1.117.46-1.582a.938.938 0 01.108-.162c.162-.246.372-.442.61-.568.183-.106.383-.161.586-.161a.195.195 0 01.07 0 .811.811 0 01.142 0c.882.182 1.569 1.345 1.569 2.753z" fill="#004D8A"/><path d="M25.705 37.965c-.109.056-.225.102-.338.149a3.2 3.2 0 00-.69-1.762l-.116-.139a2.382 2.382 0 00-1.388-.755h-.128c.06-.005.12-.005.179 0a1.951 1.951 0 01.837.167c.187.076.365.179.531.306.043.026.082.06.116.102.535.46.893 1.155.997 1.932z" fill="#000" opacity=".05"/><path d="M25.705 38.018a.105.105 0 00-.035 0c-.214.098-.434.182-.65.266l-.165.05a6.023 6.023 0 01-.588.19c-.675.22-1.362.38-2.055.476a4.282 4.282 0 01-.053-.68c0-1.475.7-2.693 1.577-2.862a.716.716 0 01.14 0 .171.171 0 01.066 0c.206-.001.41.057.595.169.174.098.332.235.468.404a.77.77 0 01.105.125c.35.523.56 1.176.595 1.862z" fill="#004D8A"/><path d="M20.38 21.82c-2.848 0-5.174-1.42-5.312-3.206v.167c0 1.867 2.383 3.378 5.32 3.378 2.937 0 5.317-1.51 5.317-3.378v-.167c-.153 1.787-2.48 3.207-5.324 3.207z" fill="#000" opacity=".1"/></g></g><ellipse fill="#004D8A" opacity=".1" mask="url(#db)" cx="135.5" cy="190" rx="44.5" ry="2"/></g></svg><svg width="263" height="263" viewBox="0 0 263 263" id="Files" x="1052" xmlns="http://www.w3.org/2000/svg"><defs><linearGradient x1=".004%" y1="50%" x2="100.004%" y2="50%" id="ea"><stop stop-color="gray" stop-opacity=".25" offset="0%"/><stop stop-color="gray" stop-opacity=".12" offset="54%"/><stop stop-color="gray" stop-opacity=".1" offset="100%"/></linearGradient><linearGradient x1="0%" y1="49.988%" x2="100%" y2="49.988%" id="eb"><stop stop-color="gray" stop-opacity=".25" offset="0%"/><stop stop-color="gray" stop-opacity=".12" offset="54%"/><stop stop-color="gray" stop-opacity=".1" offset="100%"/></linearGradient></defs><g fill="none" fill-rule="evenodd"><circle fill="#F7F9FB" cx="131.5" cy="131.5" r="131.5"/><ellipse fill="#004D8A" opacity=".1" cx="129" cy="220.5" rx="56" ry="5.5"/><path d="M183.142 148.837c-.073.983-2.312.612-2.312.612-3.714.557-3.1-3.374-3.1-3.374v-.201l.128-3.667.037-1.022s4.09-2.019 3.986-1.595c-.04.16.047.542.165.955.205.686.497 1.464.497 1.464s.025 1.62-.098 2.098c-.123.477.64 1.753.64 1.753s0 .08.012.221c.06.917.076 1.837.045 2.756z" fill="#B77983"/><path d="M179.514 140.84c-1.673 2.548-3.479 2.505-4.555 2.146l.04-1.32s4.448-2.606 4.335-2.059c-.043.206.042.699.18 1.232zM189.534 125.915s2.937-1.362 3.578-.75c.64.614-3.578.75-3.578.75zM190.54 125.915s-.42.355.505.81c.924.453-.505-.81-.505-.81zM174.961 123.229c-.076.029 1.878 1.713 3.642.318-.008 0-3.202-.492-3.642-.318zM178.603 125.007s-.516.783-1.572.899c-1.056.116 1.572-.899 1.572-.899zM186.801 128.638s4.375 4.318 3.538 5.337c-.838 1.018-3.538-5.337-3.538-5.337zM183.158 147.225c0 .266 0 .514-.025.72-.073.96-2.31.598-2.31.598-2.04.3-2.776-.737-3.019-1.729a4.175 4.175 0 01-.112-.985 4.32 4.32 0 01.037-.592v-.197c.44-.14.917-.037 1.27.275.908.78 2.113.181 2.113.181s.884.078 1.225.39c.192.174.508-.247.75-.65.013.26.036.73.05 1.23.016.257.02.517.02.759zM176.78 146.555s-.593.752-1.712-.41a5.998 5.998 0 01-.109-1.166c.572.563 1.632 1.576 1.822 1.576z" fill="#000" opacity=".05"/><path d="M181.336 145.78a.746.746 0 01-.487.1.662.662 0 01-.424-.219 5.69 5.69 0 00.897-.682c.008.273.014.546.014.8zM185.891 147.595a.746.746 0 00.487.1.66.66 0 00.423-.218 5.637 5.637 0 01-.899-.683c-.008.271-.014.544-.01.801z" fill="#000" opacity=".05"/><path d="M84.535 192.184a2.976 2.976 0 01-.65-2.245l9.34-77.44.774-6.433c.18-1.48 1.414-2.596 2.886-2.607l27.357-.185a2.908 2.908 0 002.085-.904 2.987 2.987 0 00.822-2.143l-.01-.293a2.99 2.99 0 01.82-2.163 2.91 2.91 0 012.106-.906h28.746c1.614 0 2.923 1.324 2.927 2.96 0 .133-.009.266-.026.398-.11.835.135 1.677.675 2.318a2.911 2.911 0 002.152 1.04l27.609.714a2.91 2.91 0 012.187 1.08c.54.666.767 1.536.623 2.385l-13.802 81.693-.26 1.544a2.924 2.924 0 01-.424 1.106l-95.937.081z" fill="#004D8A"/><path fill="#F9FAFB" d="M167.61 80.66l13.376 9.31-31.366 45.743-13.376-9.311z"/><path fill="#004D8A" d="M168.574 82.827l9.424 6.6-6.551 9.496-9.425-6.6z"/><path fill="#004D8A" opacity=".5" d="M161.19 94.27l9.457 6.582-6.533 9.527-9.456-6.582z"/><path fill="#004D8A" opacity=".3" d="M153.301 105.772l9.456 6.583-6.533 9.527-9.456-6.582z"/><path transform="rotate(-73.71 133.364 -19.994)" d="M-11.167 20.425l54.827 1.11.422 16.23-54.827-1.11z" opacity=".5" fill="url(#ea)"/><path fill="#F9FAFB" d="M148.711 77.795l15.606 4.594-15.42 53.164-15.605-4.595z"/><path fill="#349FE3" d="M150.76 79.33l11.032 3.247-3.224 11.116-11.032-3.249z"/><path fill="#349FE3" opacity=".5" d="M146.868 92.748l11.031 3.248-3.223 11.116-11.032-3.249z"/><path fill="#349FE3" opacity=".3" d="M142.976 106.165l11.031 3.248-3.223 11.115-11.032-3.248z"/><path transform="rotate(-85.4 119.178 -3.615)" d="M-17.01 21.63l56.259-1.199-.34 16.11-56.26 1.2z" opacity=".5" fill="url(#eb)"/><path fill="#F9FAFB" d="M137.657 78.633l16.206 1.314-4.409 55.209-16.205-1.314z"/><path fill="#73B53B" opacity=".579" d="M139.964 79.719l11.456.928-.922 11.543-11.456-.929z"/><path fill="#73B53B" opacity=".5" d="M138.85 93.651l11.456.929-.922 11.542-11.456-.928z"/><path fill="#73B53B" opacity=".3" d="M137.738 107.588l11.456.928-.922 11.543-11.456-.928z"/><path fill="#004D8A" opacity=".3" d="M134.051 109.567l11.481-.528.524 11.568-11.482.528z"/><path d="M137.61 153.825l-14.55 5.628-21.264 8.22c-.804-1.5-1.987-3.527-3.45-5.947-5.038-8.347-13.371-21.33-20.792-32.74C69.195 116.125 62 105.272 62 105.272l5.208-1.5 42.546-12.354 27.856 62.407z" stroke="#E2E2E2" fill="#FFF"/><path d="M137.61 152.532l-14.497 5.595a109.22 109.22 0 01-24.632 2.258c-5.019-8.296-13.322-21.199-20.715-32.539l-10.3-25.067 42.39-12.268 27.754 62.021z" fill="#000" opacity=".1"/><path d="M147.63 148.662s-22.754 13.433-56.726 10.394L63.822 93.164 76.8 90.938l44.869-7.69 25.462 64.133.498 1.281z" fill="#004D8A"/><path d="M147.63 150.274c-5.275.263-11.378.237-17.517-.508-6.645-.794-13.329-2.43-19.058-5.432-4.79-2.506-8.886-5.233-12.457-8.504-9.29-8.492-15.039-20.638-20.2-42.149l44.173-7.71 25.06 64.303z" fill="#000" opacity=".1"/><path d="M164.027 144.01s-16.626 3.21-33.55 1.233c-6.69-.776-13.42-2.375-19.188-5.307-4.823-2.449-8.945-5.113-12.543-8.308-11.576-10.27-17.689-26.01-23.993-57.796 0 0 27.64 6.579 54.972-7.832-.009.01 9.204 56.705 34.302 78.01z" stroke="#B2C9DB" fill="#FFF"/><path d="M131.233 145.887c-6.723-.787-13.484-2.406-19.28-5.376-4.847-2.48-8.989-5.179-12.604-8.415 9.904-.8 11.327-6.181 11.327-6.181 7.341 11.582 20.557 19.972 20.557 19.972z" fill="#000" opacity=".1"/><path d="M88.418 85.012s23.436-1.31 29.98-6.303l.992 3.152s-15.485 6.752-30.972 6.834v-3.683z" fill="#004D8A"/><path d="M88.418 100.562s21.992-1.192 38.609-9.144l.562 1.272s-13.186 7.626-39.171 9.622v-1.75zM91.15 107.825s21.995-1.193 38.61-9.144l.562 1.272s-13.187 7.623-39.171 9.621v-1.75zM92.062 113.272s21.993-1.193 38.611-9.144l.56 1.272s-13.187 7.625-39.171 9.621v-1.75zM93.884 117.81s21.993-1.192 38.609-9.143l.562 1.272s-13.187 7.625-39.171 9.621v-1.75zM94.795 124.165s21.993-1.192 38.61-9.144l.56 1.272s-13.186 7.624-39.17 9.622v-1.75z" fill="#004D8A" opacity=".3"/><path d="M180.501 192.597c-.402.324-.907.5-1.428.495l-96.348-.402a2.876 2.876 0 01-.662-2.218l9.52-76.495 5.969-.064a2.25 2.25 0 012.2 1.635l1.114 4.041a2.25 2.25 0 002.23 1.635l23.824-.56c1.224-.03 2.202-1.013 2.201-2.216v-2.677c0-1.214.995-2.202 2.23-2.216l33.013-.35c1.09-.01 2.03.748 2.236 1.799l14.6 74.977.095.483c.157.8-.148 1.62-.794 2.133z" fill="#000" opacity=".1"/><path d="M130.969 114.463a2.224 2.224 0 00-2.209 2.213v2.68a2.223 2.223 0 01-2.176 2.213l-23.572.56a2.228 2.228 0 01-2.209-1.634l-1.107-4.039a2.228 2.228 0 00-2.18-1.635l-31.486.337a2.237 2.237 0 00-1.689.793 2.201 2.201 0 00-.488 1.79l12.668 73.99a2.227 2.227 0 002.191 1.845l99.473.424c.667.002 1.3-.291 1.725-.8.426-.51.6-1.18.475-1.83l-14.536-75.458a2.226 2.226 0 00-2.213-1.798l-32.667.349z" stroke="#B2C9DB" fill="#FFF"/><path d="M121.383 155.948l.553.537a.568.568 0 010 .84l-4.849 4.72a.6.6 0 01-.863 0l-4.849-4.716a.576.576 0 010-.84l.553-.537a.609.609 0 01.863 0l2.867 2.94v-6.975a.571.571 0 01.173-.412.604.604 0 01.423-.172h.799c.331 0 .6.262.6.584v6.966l2.867-2.94a.609.609 0 01.863.005z" fill="#004D8A" opacity=".241"/><path d="M116.658 143.339c7.449 0 13.488 6.018 13.488 13.441 0 7.424-6.04 13.441-13.488 13.441-7.45 0-13.489-6.017-13.489-13.44.007-7.422 6.042-13.436 13.489-13.442zm0-1.991c-8.553 0-15.487 6.909-15.487 15.432s6.934 15.433 15.487 15.433c8.552 0 15.486-6.91 15.486-15.433s-6.934-15.432-15.486-15.432z" fill="#004D8A" fill-rule="nonzero" opacity=".241"/></g></svg><svg width="264" height="263" viewBox="0 0 264 263" id="Inquiries" x="1315" xmlns="http://www.w3.org/2000/svg"><g fill="none" fill-rule="evenodd"><circle fill="#575988" cx="111.55" cy="187.55" r="1"/><circle fill="#F7F9FB" cx="131.6" cy="131.5" r="131.5"/><g opacity=".1" fill="#000"><path d="M190.532 72.957H73.17c-3.383.01-5.16-1.958-5.17 1.52L66 162c.01 3.478-.783 1.853 2.6 1.864l96.637-2.06s2.385 13.016-5.452 14.419c0 0 17.55 1.294 14.483-14.42h16.264c3.383-.01 6.124-2.827 6.134-6.305V79.263c-.01-3.479-2.75-6.296-6.134-6.306z"/><g opacity=".2" transform="translate(83.937 92.853)"><rect x=".375" y=".339" width="95.074" height="5.958" rx="2.979"/><rect x=".375" y="26.965" width="95.074" height="5.958" rx="2.979"/><rect x=".375" y="40.273" width="79.73" height="5.958" rx="2.979"/><rect x=".375" y="13.652" width="41.225" height="5.958" rx="2.979"/></g></g><path d="M72.535 72.315c-1.809.005-3.249-1.57-3.5 0-.218 1.366.647 5.77.642 7.388-.243 35.62-.424 62.23-.542 79.826 0 3.606-.1 2.968 2.365 2.968l96.378-.253s2.389 13.016-5.452 14.414c0 0 17.55 1.294 14.483-14.414h16.268c3.383-.01 6.122-2.828 6.13-6.306V79.703c-.008-3.478-2.747-6.296-6.13-6.306L72.535 72.315z" fill="#FFF"/><g transform="translate(87 92.618)"><rect fill="#004D8A" x=".027" y=".282" width="33.379" height="19.809" rx="2"/><rect fill="#C1D4E2" y="30" width="83.441" height="3.958" rx="1.979"/><rect fill="#C1D4E2" y="38" width="35.441" height="3.958" rx="1.979"/><rect fill="#C1D4E2" x="51" y="3" width="41.225" height="3.958" rx="1.979"/><rect fill="#C1D4E2" x="51" y="13" width="41.51" height="3.958" rx="1.979"/></g><text stroke="#C1D4E2" fill="#C1D4E2" font-family="ComicSansMS-Bold, Comic Sans MS" font-size="14" font-weight="bold" letter-spacing=".073" transform="translate(69 71.618)"><tspan x="31.002" y="36">?</tspan></text><ellipse fill="#DDE7EF" transform="matrix(1 0 0 -1 0 442.382)" cx="132.708" cy="221.191" rx="40.708" ry="3.191"/><g><path fill="#FFF" d="M220.429 134.666l-.712-.004.21-.191-.431.194-88.593 10.564 11.038 14.138 1.801 1.544 2.719 24.087 7.061-4.716 5.096 9.816 59.027-53.499z"/><path fill="#0B3878" opacity=".813" d="M147.768 181.857l70.78-46.339-64.302 9.657-10.78 13.712z"/><path fill="#C1D4E2" d="M218.497 135.228l-73.947 24.857-10.346-13.407zM157.882 192.259l61.71-56.576-72.257 27.872 12.012 25.066z"/></g><g opacity=".243"><path fill="#FFF" d="M61 105.686l-.28-.052.096-.062-.183.047L25 103.586l3.366 6.466.602.748-.602 9.875 3.11-1.396 1.325 4.307 26.968-17.32z"/><path fill="#0B3878" opacity=".813" d="M29.096 118.586L59 105.25l-25-.663-5 4.653z"/><path fill="#C1D4E2" d="M60 105.931l-29.948 4.655-3.052-6zM33.133 124.586l27.867-18-30 5.96 2.952 10.709z"/></g><g opacity=".243"><path fill="#FFF" d="M172.662 42.918l-.17-.116.082-.011-.135-.024L149.508 31l.38 5.123.184.656-3.209 6.138 2.45.02-.352 3.144 22.724-3.154z"/><path fill="#0B3878" opacity=".813" d="M147.838 42.298l23.91.216-16.557-7.89-4.701 1.546z"/><path fill="#C1D4E2" d="M171.575 41.9l-21.16-6.023-.4-4.557zM148.716 47.94l23.555-5.638-22.203-3.093-.472 8.017z"/></g></g></svg><svg width="263" height="263" viewBox="0 0 263 263" id="Orders" x="1579" xmlns="http://www.w3.org/2000/svg"><defs><filter x="-12.5%" y="-5.7%" width="125%" height="115.8%" filterUnits="objectBoundingBox" id="ga"><feOffset dy="2" in="SourceAlpha" result="shadowOffsetOuter1"/><feGaussianBlur stdDeviation="2" in="shadowOffsetOuter1" result="shadowBlurOuter1"/><feColorMatrix values="0 0 0 0 0.288655698 0 0 0 0 0.56455189 0 0 0 0 0.886238694 0 0 0 0.215919384 0" in="shadowBlurOuter1"/></filter><filter x="-15.6%" y="-5.4%" width="131.1%" height="115%" filterUnits="objectBoundingBox" id="gc"><feOffset dy="2" in="SourceAlpha" result="shadowOffsetOuter1"/><feGaussianBlur stdDeviation="2" in="shadowOffsetOuter1" result="shadowBlurOuter1"/><feColorMatrix values="0 0 0 0 0.948155825 0 0 0 0 0.948155825 0 0 0 0 0.948155825 0 0 0 0.5 0" in="shadowBlurOuter1"/></filter><path id="gb" d="M7.887 98.864l50.325 5.269 5.765-81.12-50.324-7.374z"/><path id="gd" d="M75.606 110.753L51.424 25.894l5.673-6.777 10.395-1.621 28.929 84.513z"/></defs><g fill="none" fill-rule="evenodd"><circle cx="131.5" cy="131.5" r="131.5" fill="#F7F9FB"/><g transform="rotate(-10 453.371 -265.542)"><path fill="#4A90E2" d="M15.18 16.43h-4.804L.777 98.601l21.33-1.043z"/><path fill="#000" opacity=".2" d="M15.18 16.43h-4.804L.777 98.601l21.33-1.043z"/><use fill="#000" filter="url(#ga)" xlink:href="#gb"/><use fill="#FFF" xlink:href="#gb"/><circle fill="#000" opacity=".2" cx="27.242" cy="23.145" r="1.185"/><circle fill="#000" opacity=".2" cx="48.572" cy="25.516" r="1.185"/><path d="M48.965 25.91h-.52c0-.226.368-22.564-12.287-24.623-2.493-.403-4.531.169-6.056 1.7-5.225 5.253-3.064 20.088-3.043 20.235l-.513.08c-.094-.622-2.219-15.253 3.195-20.689C31.388.95 33.585.328 36.245.76c13.096 2.124 12.727 24.924 12.72 25.15z" fill="#004D8A"/></g><g transform="rotate(5 -661.845 1336.358)"><use fill="#000" filter="url(#gc)" xlink:href="#gd"/><use fill="#FFF" xlink:href="#gd"/></g><path fill="#FFF" opacity=".2" d="M179.618 179.69l-16.693-86.644 6.241-6.256 10.497-.71 21.453 86.713z"/><path fill="#004D8A" d="M131.989 88.413l10.8 90.808 36.53.367-10.632-92.633z"/><path fill="#004D8A" opacity=".07" d="M131.989 88.413l10.8 90.808 36.53.367-10.632-92.633z"/><path fill="#C1D4E2" d="M162.36 183.783l-23.02-.275 11.167-87.086 8.02-3.931 10.403 2.65z"/><path fill="#FFF" opacity=".2" d="M162.36 183.783l-23.02-.275 11.167-87.086 8.02-3.931 10.403 2.65z"/><path fill="#004D8A" d="M157.482 92.041L122.64 82.01l-18.22 89.722 34.12 11.707z"/><path d="M146.957 73.008c.87-2.758 2.394-5.033 4.927-6.115 1.923-.822 3.699-.607 5.26.644 5.125 4.087 6.326 17.77 6.374 18.352l-.402.01c-.012-.138-1.225-14.013-6.172-17.963-1.444-1.15-3.09-1.344-4.894-.576-2.341 1.001-3.785 3.076-4.636 5.613.158-.007.318-.01.479-.007 2.107.035 3.658.96 4.59 2.748 3.067 5.848-1.379 18.885-1.57 19.44l-.376-.157c.045-.13 4.558-13.35 1.599-19-.864-1.647-2.304-2.5-4.28-2.534a7.227 7.227 0 00-.602.015c-2.203 7.375.218 18.16.25 18.31l-.393.084c-.035-.147-2.428-10.817-.308-18.35-9.256 1.216-13.013 20.272-13.055 20.472l-.396-.084c.037-.202 3.918-19.858 13.605-20.902z" fill="#004D8A"/><ellipse fill="#DDE7EF" transform="matrix(1 0 0 -1 0 407.382)" cx="131.708" cy="203.691" rx="57.708" ry="5.691"/></g></svg><svg width="263" height="263" viewBox="0 0 263 263" id="Payments" x="1842" xmlns="http://www.w3.org/2000/svg"><defs><linearGradient x1="49.984%" y1="100%" x2="49.984%" y2="0%" id="hc"><stop stop-opacity=".12" offset="0%"/><stop stop-opacity=".09" offset="55%"/><stop stop-opacity=".02" offset="100%"/></linearGradient><linearGradient x1="49.992%" y1="100.085%" x2="49.992%" y2=".085%" id="hd"><stop stop-opacity=".12" offset="0%"/><stop stop-opacity=".09" offset="55%"/><stop stop-opacity=".02" offset="100%"/></linearGradient><linearGradient x1="50%" y1="100%" x2="50%" y2="0%" id="he"><stop stop-opacity=".12" offset="0%"/><stop stop-opacity=".09" offset="55%"/><stop stop-opacity=".02" offset="100%"/></linearGradient><linearGradient x1="49.984%" y1="100%" x2="49.984%" y2="0%" id="hf"><stop stop-opacity=".12" offset="0%"/><stop stop-opacity=".09" offset="55%"/><stop stop-opacity=".02" offset="100%"/></linearGradient><linearGradient x1="50.008%" y1="100%" x2="50.008%" y2="0%" id="hg"><stop stop-opacity=".12" offset="0%"/><stop stop-opacity=".09" offset="55%"/><stop stop-opacity=".02" offset="100%"/></linearGradient><linearGradient x1="50.056%" y1="66.346%" x2="50.056%" y2="32.346%" id="hh"><stop stop-color="gray" stop-opacity=".25" offset="0%"/><stop stop-color="gray" stop-opacity=".12" offset="54%"/><stop stop-color="gray" stop-opacity=".1" offset="100%"/></linearGradient><linearGradient x1="53.579%" y1="60.808%" x2="50.293%" y2="33.002%" id="hi"><stop stop-color="gray" stop-opacity=".25" offset="0%"/><stop stop-color="gray" stop-opacity=".12" offset="54%"/><stop stop-color="gray" stop-opacity=".1" offset="100%"/></linearGradient><filter x="-4.8%" y="-5.7%" width="109.7%" height="115.9%" filterUnits="objectBoundingBox" id="ha"><feOffset dy="2" in="SourceAlpha" result="shadowOffsetOuter1"/><feGaussianBlur stdDeviation="2" in="shadowOffsetOuter1" result="shadowBlurOuter1"/><feColorMatrix values="0 0 0 0 0.288655698 0 0 0 0 0.56455189 0 0 0 0 0.886238694 0 0 0 0.27513587 0" in="shadowBlurOuter1"/></filter><rect id="hb" x=".533" y=".5" width="145" height="88" rx="5"/></defs><g fill="none" fill-rule="evenodd"><circle fill="#F7F9FB" cx="131.5" cy="131.5" r="131.5"/><g transform="rotate(-14 409.06 -139.918)"><use fill="#000" filter="url(#ha)" xlink:href="#hb"/><use fill="#FCFCFC" xlink:href="#hb"/></g><path fill="#E0E0E0" d="M63.737 103.977l3.881-.968 2.903 11.644-3.881.968zM67.737 102.977l3.88-.968 2.904 11.643-3.881.968zM73.737 102.977l3.881-.968 2.903 11.644-3.88.968zM81.737 100.976l3.88-.967 2.904 11.643-3.881.968zM86.737 98.976l3.881-.968 2.904 11.644-3.882.968zM92.737 97.977l3.881-.968 2.903 11.644-3.881.968zM100.737 95.976l3.882-.968 2.903 11.644-3.882.968zM106.737 93.976l3.881-.967 2.903 11.643-3.881.968zM111.738 92.977l3.88-.968 2.904 11.644-3.881.967zM121.737 89.977l3.88-.968 2.904 11.644-3.881.967z"/><path fill="#E0E0E0" d="M125.738 89.977l3.88-.968 2.904 11.644-3.881.967zM130.737 87.977l3.881-.968 2.904 11.644-3.882.967z"/><path fill="#004D8A" d="M77.06 162.744l34.93-8.71 1.21 4.852-34.93 8.709z"/><path fill="#C1D4E2" d="M75.445 152.888l60.159-14.999 1.21 4.852-60.159 14.999z"/><path d="M115.877 43.653a.949.949 0 01.228-.66.843.843 0 01.602-.293h1.235v-7.818h-11v9h8.936l-.001-.229z" fill="url(#hc)" transform="rotate(-14 409.06 -139.918)"/><path d="M117.93 51.828a.842.842 0 01-.602-.293.949.949 0 01-.228-.66v-.229h-8.935v9h11v-7.818h-1.235z" fill="url(#hd)" transform="rotate(-14 409.06 -139.918)"/><path fill="url(#he)" d="M107.083 45.022h10v4h-10z" transform="rotate(-14 409.06 -139.918)"/><path d="M121.383 51.595a.949.949 0 01-.228.66.843.843 0 01-.602.294h-1.231v7.818h11v-9h-8.939v.228z" fill="url(#hf)" transform="rotate(-14 409.06 -139.918)"/><path d="M119.07 35.845v7.817h1.23c.23.01.447.115.603.294a.948.948 0 01.228.66v.229h8.938v-9h-11z" fill="url(#hg)" transform="rotate(-14 409.06 -139.918)"/><path fill="url(#he)" d="M121.151 46.468h10v4h-10z" transform="rotate(-14 409.06 -139.918)"/><path d="M168.882 109.166a.836.836 0 01.603-1.016l1.196-.298-1.683-6.75-10.673 2.662 1.935 7.762 8.672-2.162-.05-.198zM172.056 116.412a.836.836 0 01-1.01-.614l-.048-.196-8.673 2.162 1.935 7.762 10.674-2.66-1.684-6.752-1.194.298zM160.78 112.462l8.732-2.177.968 3.881-8.733 2.178zM177.376 114.461a.837.837 0 01-.603 1.016l-1.196.298 1.683 6.751 10.674-2.66-1.936-7.763-8.67 2.162.048.196zM171.325 101.764l1.683 6.75 1.196-.297a.836.836 0 011.01.614l.048.196 8.672-2.162-1.936-7.762-10.673 2.66zM175.78 109.462l8.732-2.177.967 3.881-8.732 2.178z" fill="#004D8A"/><path d="M.565.745L.61.595S.055.515.565.745z" opacity=".2" transform="rotate(-14 726.615 -179.56)" fill="url(#hh)"/><path d="M.315.655l.05.12c.4-.26-.05-.12-.05-.12z" opacity=".2" transform="rotate(-14 671.878 -777.381)" fill="url(#hi)"/><g transform="translate(143 147)"><path d="M4.032 27.844l-2.254-1.31s-1.054 4.583-.708 7.843c.066.673.525 1.232 1.152 1.405 5.187 1.34 29.863 7.05 46.84-.99.501-.241.843-.738.9-1.31.213-2.005-.525-6.143-.818-6.947-.617-1.736-45.112 1.309-45.112 1.309z" fill="#9BC2E1"/><ellipse fill="#004D8A" cx="25.5" cy="26.5" rx="23.5" ry="5.5"/><path d="M11.03 17.844l-2.253-1.31s-1.05 4.583-.71 7.843c.07.672.527 1.23 1.153 1.405 5.187 1.34 29.866 7.05 46.839-.99.502-.237.846-.733.905-1.304.207-2.005-.53-6.149-.824-6.953-.611-1.736-45.11 1.309-45.11 1.309z" fill="#9BC2E1"/><ellipse fill="#004D8A" cx="32.5" cy="16.5" rx="23.5" ry="5.5"/><path d="M3.026 6.826L.778 5.522s-1.054 4.58-.708 7.851c.066.673.525 1.231 1.152 1.401 5.187 1.347 29.865 7.065 46.843-.992.5-.237.843-.734.899-1.304.207-2.008-.53-6.15-.824-6.956C47.529 3.82 3.026 6.826 3.026 6.826z" fill="#9BC2E1"/><ellipse fill="#004D8A" cx="24.5" cy="5.5" rx="23.5" ry="5.5"/></g><ellipse fill="#DDE7EF" transform="matrix(1 0 0 -1 0 436.146)" cx="128.708" cy="218.073" rx="57.708" ry="1.691"/></g></svg><svg width="263" height="263" viewBox="0 0 263 263" id="Pending" x="2105" xmlns="http://www.w3.org/2000/svg"><g fill="none" fill-rule="evenodd"><circle cx="131.5" cy="131.5" r="131.5" fill="#F7F9FB"/><path d="M124.252 123.652c.78.468 1.763.513 2.682.424.148-.016.324-.023.417.086.134.16-.032.387-.202.51a4.117 4.117 0 01-1.861.687c-.6.069-1.205.096-1.809.081-1.649-.002-3.307-.004-4.936-.258a.701.701 0 01-.267-.078.492.492 0 01-.199-.298c-.105-.402.119-.83.449-1.102.33-.272.75-.428 1.16-.568l1.445-.503c.338-.118.883-.438 1.251-.406.673.061 1.305 1.1 1.87 1.425z" fill="#3F3D56"/><path d="M124.252 123.652c.78.468 1.763.513 2.682.424.148-.016.324-.023.417.086.134.16-.032.387-.202.51a4.117 4.117 0 01-1.861.687c-.6.069-1.205.096-1.809.081-1.649-.002-3.307-.004-4.936-.258a.701.701 0 01-.267-.078.492.492 0 01-.199-.298c-.105-.402.119-.83.449-1.102.33-.272.75-.428 1.16-.568l1.445-.503c.338-.118.883-.438 1.251-.406.673.061 1.305 1.1 1.87 1.425z" fill="#000" opacity=".05"/><path d="M120.055 124.878c.695.772 1.61 1.2 2.56 1.197.242.005.576.066.573.356a.547.547 0 01-.076.239c-.31.594-.793 1.032-1.355 1.227-.522.178-1.073.139-1.613.095l-1.574-.125a11.173 11.173 0 01-.892-.095c-.296-.048-.615-.131-.922-.19-.758-.144-1.526-.2-2.293-.17-.202.006-.439-.008-.56-.192-.123-.184-.05-.518 0-.783.103-.546.02-1.12.115-1.669.169-.96.874-1.687 1.645-2.023.714-.311 1.978-.659 2.638-.11.714.592 1.13 1.542 1.754 2.243z" fill="#3F3D56"/><path fill="#FFF" d="M216.32 124.3l-3.818 30.918-113.626 41.396-37.577-34.585-2.228-31.953 108.146-27.858z"/><path fill="#000" opacity=".1" d="M98.603 197.907l-37.39-35.008-2.208-32.355 39.238 31.903z"/><path fill="#B8C9D6" d="M62.394 132.061l105.57-26.595 43.199 19.973-112.607 35.847z"/><path d="M117.735 114.634c.654-.436 1.528-.852 2.359-1.209.134-.057.292-.128.365-.193.105-.094-.065-.08-.229-.04-.526.134-1.121.34-1.73.6-.543.23-1.086.473-1.625.726-1.474.68-2.957 1.364-4.39 2.097-.083.04-.162.085-.232.13-.085.06-.138.114-.15.154-.055.14.185.153.506.083.32-.07.712-.205 1.092-.34l1.34-.473c.313-.111.83-.258 1.157-.418.595-.292 1.063-.805 1.537-1.117z" fill="#3F3D56"/><path d="M117.735 114.634c.654-.436 1.528-.852 2.359-1.209.134-.057.292-.128.365-.193.105-.094-.065-.08-.229-.04-.526.134-1.121.34-1.73.6-.543.23-1.086.473-1.625.726-1.474.68-2.957 1.364-4.39 2.097-.083.04-.162.085-.232.13-.085.06-.138.114-.15.154-.055.14.185.153.506.083.32-.07.712-.205 1.092-.34l1.34-.473c.313-.111.83-.258 1.157-.418.595-.292 1.063-.805 1.537-1.117z" fill="#000" opacity=".05"/><path fill="#FFF" d="M193.932 67.475L84.801 100.789 55.444 128.25l2.43 11.814 102.259-35.639 41.584-28.011z"/><path fill="#000" opacity=".1" d="M55.443 127.7l2.443 11.839 31.455-27.213-4.56-12.112z"/><path fill="#B8C9D6" opacity=".679" d="M159.95 102.607l36.552-24.831-107.51 34.851-28.858 25.037z"/><path d="M187.366 90.318l-1.271.1-33.39 2.589a6.935 6.935 0 00-4.216 1.833l-18.492 17.376-41.527 39.008 11.954 9.556 29.39-9.304 12.814-4.054 36.53-39.92 11.515-12.584s.356-3.63-3.307-4.6zm-34.122 19.063c-1.54.776-3.209.725-3.725-.113-.35-.568-.08-1.352.608-2.04a4.846 4.846 0 011.244-.888c1.274-.643 2.632-.717 3.36-.25.152.094.277.218.368.363.515.842-.315 2.153-1.855 2.928z" fill="#004D8A" fill-rule="nonzero"/><path d="M187.251 89.443l-1.299.103c1.562 1.627.727 2.074.727 2.074l-12.728 13.35-45.499 47.708 13.09-4.193 37.322-41.277 11.764-13.011s.364-3.753-3.377-4.754z" fill="#000" opacity=".1"/><path d="M151.31 107.55a6.363 6.363 0 00-1.612.949l5.967-1.205c-.941-.502-2.706-.426-4.356.257z" fill="#DFE6F5"/><path d="M149.064 109.556c.606.694 2.542.746 4.324.115 1.783-.63 2.738-1.704 2.133-2.398a1.262 1.262 0 00-.43-.3l-5.333.906c-.795.563-1.103 1.207-.694 1.677z" fill="#DFE6F5"/><g><path fill="#C1D4E2" d="M206.213 133.541l-28.837 10.954-2.512 20.984 28.301-10.633z"/><path fill="#004D8A" d="M201.438 142.12l-19.97 5.747.324 2.052 20.047-5.57zM194.922 148.558l-11.746 3.396.492 2.486 12.243-3.59z"/></g><ellipse fill="#004D8A" opacity=".1" cx="131.5" cy="214.5" rx="49.5" ry="3.5"/></g></svg><svg width="282" height="263" viewBox="0 0 282 263" id="Promotions" x="2368" xmlns="http://www.w3.org/2000/svg"><defs><linearGradient x1=".042%" y1="50.012%" x2="100%" y2="50.012%" id="ja"><stop stop-color="gray" stop-opacity=".25" offset="0%"/><stop stop-color="gray" stop-opacity=".12" offset="54%"/><stop stop-color="gray" stop-opacity=".1" offset="100%"/></linearGradient></defs><g fill="none" fill-rule="evenodd"><circle fill="#F7F9FB" cx="131.5" cy="131.5" r="131.5"/><g transform="translate(61)"><ellipse fill="#004D8A" opacity=".1" cx="67.5" cy="221" rx="38.5" ry="7"/><path d="M.87 62.093L0 62c.287.013.592.067.87.093z" fill="url(#ja)" fill-rule="nonzero"/><path d="M93.817 173.7c-5.64 7.98-25.917 3.753-25.917 3.753l-15.713-14.536-2.116-1.968 3.548-7.449s1.128.307 3.063.853c10.158 2.916 41.895 12.64 37.135 19.348z" fill="#EFB7B9"/><path d="M56.521 154.341c-.678 2.353-2.535 5.877-4.382 8.445l-2.068-1.941 3.468-7.345s1.114.302 2.982.841zM17.698 127.5s-2.939 5.955-1.132 5.552c1.806-.404 1.132-5.552 1.132-5.552z" fill="#000" opacity=".1"/><path fill="#004D8A" d="M18.743 140.094l44.228-7.023v40.858l-42.022-2.147z"/><path fill="#285C85" d="M18.743 140.094l44.228-7.023v40.858l-42.022-2.147z"/><path fill="#004D8A" d="M62.971 133.071l52.522 3.873-2.907 35.555-49.615 1.43z"/><path fill="#E8E8E8" d="M79.043 121L62.97 133.045l52.273 3.74 8.542-12.326z"/><path fill="#D5D5D5" d="M4 127.645l38.977-4.788 19.994 11.464-43.295 7.108z"/><path stroke="#F8F8F8" fill="#FFF" d="M73.107 143.157V199l-20.887-2.073-9.086-.896-2.768-.28-9.08-.903-12.543-1.243V139.57l44.583 2.936z"/><path fill="#004D8A" d="M115.493 136.786v54.143l-16.239 3.091-7.897 1.504L73.107 199v-55.519z"/><path stroke="#F6F6F6" fill="#FFF" d="M115.493 136.786v54.143l-16.239 3.091-7.897 1.504L73.107 199v-55.519z"/><path fill="#004D8A" d="M4 152.043l15.613-12.472 52.573 3.805-7.74 13.838z"/><path stroke="#EBEBEB" fill="#FFF" d="M4 152.043l15.613-12.472 52.573 3.805-7.74 13.838z"/><path fill="#004D8A" d="M115.73 136.786l-43.544 6.561 14.172 12.01L133 147.955z"/><path stroke="#E8E8E8" fill="#E7E7E7" d="M72.186 143.347l14.172 12.01L133 147.955l-17.27-11.17z"/><path fill="#FFF" opacity=".166" d="M98.907 193.725l-8.293 1.56v-12.008l7.768-1.92z"/><path fill="#FFF" opacity=".209" d="M52.836 197.143L42.7 196.17v-7.384h10.136z"/><path fill="#FFF" opacity=".1" d="M39.936 192.5v3.714l-9.215-.818V192.5z"/><path d="M40 190s.694 3.301 2.545 2.978C44.396 192.654 40 190 40 190z" fill="#000" opacity=".1"/><path d="M90.78 61.016s-10.956-.733-9.676 7.793c0 0-.257 1.507.975 2.191 0 0 .02-.64 1.124-.419a4.56 4.56 0 001.19.064 2.35 2.35 0 001.46-.668s3.082-1.41 4.282-7c0 0 .888-1.223.865-1.536l-1.852.88s.632 1.48.133 2.711c0 0-.058-2.657-.415-2.596-.072 0-.96.515-.96.515s1.087 2.577.265 4.454c0 0 .311-3.178-.605-4.269l-1.304.844s1.272 2.664.41 4.839c0 0 .222-3.336-.684-4.634l-1.182 1.02s1.197 2.629.467 4.433c0 0-.095-3.883-.723-4.177 0 0-1.033 1.01-1.188 1.426 0 0 .816 1.92.308 2.914 0 0-.311-2.587-.576-2.6 0 0-1.03 1.714-1.136 2.878a6.703 6.703 0 01.885-3.051c-.594.125-1.14.44-1.575.905 0 0 .159-1.212 1.828-1.318 0 0 .865-1.301 1.079-1.381 0 0-1.661-.154-2.667.342 0 0 .885-1.142 2.972-.64l1.154-1.055s-2.186-.32-3.114.035c0 0 1.067-1.01 3.428-.275l1.269-.84s-1.863-.448-2.973-.285c0 0 1.17-.7 3.345.057l.908-.45s-1.367-.298-1.765-.346c-.398-.048-.42-.17-.42-.17a4.29 4.29 0 012.563.32s1.946-.777 1.905-.911z" fill="#004D8A"/><path d="M141.805 103.016s-10.984-.733-9.7 7.793c0 0-.258 1.507.976 2.191 0 0 .02-.64 1.13-.419.395.073.796.095 1.194.064a2.357 2.357 0 001.446-.665s3.093-1.414 4.295-7.004c0 0 .888-1.218.853-1.532l-1.856.877s.633 1.48.136 2.711c0 0-.06-2.657-.416-2.596-.072 0-.966.515-.966.515s1.093 2.58.27 4.454c0 0 .311-3.178-.61-4.269l-1.293.835s1.275 2.664.41 4.838c0 0 .223-3.335-.684-4.634l-1.183 1.024s1.197 2.625.469 4.429c0 0-.096-3.882-.726-4.177 0 0-1.035 1.011-1.194 1.427 0 0 .821 1.919.312 2.913 0 0-.312-2.587-.578-2.6 0 0-1.032 1.714-1.139 2.878a6.71 6.71 0 01.89-3.05 3.02 3.02 0 00-1.58.904s.161-1.212 1.835-1.317c0 0 .853-1.302 1.081-1.382 0 0-1.665-.153-2.674.343 0 0 .888-1.142 2.978-.624l1.156-1.055s-2.194-.32-3.122.035c0 0 1.07-1.01 3.437-.275l1.272-.841s-1.87-.445-2.983-.285c0 0 1.176-.7 3.356.058l.91-.451s-1.37-.298-1.772-.346c-.402-.048-.422-.17-.422-.17a4.318 4.318 0 012.573.32s1.954-.783 1.92-.917zM72.604 89.884s2.565-9.754-5.362-9.788c0 0-1.317-.442-2.146.568 0 0 .565.108.181 1.07-.132.34-.22.694-.263 1.052-.057.49.065.981.348 1.402 0 0 .742 2.972 5.57 4.834 0 0 .95.967 1.238.978l-.469-1.786s-1.448.36-2.474-.263c0 0 2.412.319 2.415 0 0-.065-.293-.936-.293-.936s-2.518.616-4.072-.386c0 0 2.817.725 3.964.055l-.528-1.294s-2.639.77-4.445-.31c0 0 2.976.668 4.307.036l-.718-1.204s-2.58.705-4.084-.202c0 0 3.518.457 3.9-.064 0 0-.734-1.07-1.083-1.27 0 0-1.864.468-2.685-.129 0 0 2.39.082 2.445-.144 0 0-1.37-1.165-2.413-1.428.973.198 1.871.62 2.606 1.225a2.64 2.64 0 00-.545-1.543s1.067.315.88 1.84c0 0 1.026.947 1.058 1.163 0 0 .425-1.47.153-2.446 0 0 .879.957.05 2.759l.75 1.196s.68-1.92.507-2.803c0 0 .73 1.1-.346 3.119l.543 1.26s.724-1.615.77-2.63c0 0 .432 1.152-.633 3l.252.879s.505-1.186.616-1.539c.112-.352.226-.355.226-.355a3.988 3.988 0 01-.73 2.262s.384 1.835.51 1.822zM47 93.428s-8.471-5.77-11.5.48c0 0-.924.872-.26 1.916 0 0 .316-.407 1.11.268.281.239.592.446.927.617.453.23.977.319 1.49.253 0 0 3.154.553 6.784-2.558 0 0 1.296-.38 1.418-.602l-1.912-.306s-.2 1.282-1.185 1.856c0 0 1.218-1.785.902-1.914-.064-.028-1.019-.126-1.019-.126s-.355 2.23-1.91 3.071c0 0 1.769-1.949 1.55-3.112l-1.452-.07s-.247 2.373-1.98 3.394c0 0 1.769-2.095 1.666-3.39l-1.438.107s-.291 2.308-1.737 3.147c0 0 1.773-2.609 1.41-3.104 0 0-1.313.17-1.638.366 0 0-.252 1.653-1.14 2.073 0 0 .985-1.858.785-1.987 0 0-1.646.635-2.293 1.358a5.36 5.36 0 012.17-1.588 3.262 3.262 0 00-1.698-.161s.705-.723 2.099.012c0 0 1.304-.447 1.526-.392 0 0-1.263-.902-2.31-1.059 0 0 1.26-.328 2.69 1.011l1.44-.134s-1.6-1.263-2.52-1.476c0 0 1.341-.154 2.887 1.469l1.421.058s-1.285-1.193-2.253-1.623c0 0 1.274.101 2.661 1.65l.947.14s-.958-.855-1.257-1.077c-.3-.222-.259-.316-.259-.316a4.49 4.49 0 011.913 1.446s1.929.407 1.965.303zM74 35.43s-8.471-5.775-11.5.48c0 0-.924.873-.26 1.917 0 0 .316-.407 1.11.268.283.237.595.443.93.614.453.23.976.319 1.49.253 0 0 3.153.554 6.784-2.561 0 0 1.296-.377 1.415-.602l-1.912-.3s-.197 1.281-1.185 1.855c0 0 1.221-1.785.905-1.914-.064-.028-1.019-.126-1.019-.126s-.366 2.235-1.92 3.071c0 0 1.765-1.949 1.548-3.112l-1.452-.07s-.25 2.373-1.979 3.392c0 0 1.769-2.096 1.666-3.39l-1.435.106s-.294 2.31-1.74 3.15c0 0 1.776-2.609 1.412-3.104 0 0-1.313.169-1.637.366 0 0-.253 1.654-1.141 2.073 0 0 .985-1.858.785-1.99 0 0-1.646.638-2.292 1.36a5.336 5.336 0 012.17-1.587 3.24 3.24 0 00-1.701-.162s.708-.723 2.101.013c0 0 1.305-.45 1.527-.392 0 0-1.263-.903-2.31-1.062 0 0 1.258-.326 2.687 1.011l1.44-.134s-1.598-1.264-2.52-1.479c0 0 1.341-.151 2.89 1.472l1.42.055s-1.284-1.193-2.256-1.62c0 0 1.277.101 2.665 1.65l.944.14s-.96-.845-1.26-1.062c-.3-.217-.259-.314-.259-.314a4.481 4.481 0 011.913 1.447s1.929.384 1.976.288zM120 45.714s-3.332-8.18-9.615-4.966c0 0-1.284.227-1.385 1.294 0 0 .505-.154.73.707.082.306.208.603.373.885a2.2 2.2 0 001.049.882s2.217 1.868 7.067 1.25c0 0 1.281.322 1.516.21l-1.365-1.112s-.945.854-2.098.82c0 0 2.084-.752 1.912-.994-.036-.048-.748-.562-.748-.562s-1.655 1.48-3.43 1.382c0 0 2.624-.62 3.16-1.586l-1.131-.722s-1.655 1.635-3.684 1.585c0 0 2.73-.727 3.422-1.732l-1.23-.587s-1.638 1.57-3.336 1.52c0 0 3.036-1.103 3.044-1.638 0 0-1.166-.483-1.55-.487 0 0-1.219 1.103-2.185 1.003 0 0 1.933-.917 1.851-1.105 0 0-1.72-.292-2.69-.057a6.366 6.366 0 012.731-.17 2.869 2.869 0 00-1.28-.906s1.015-.206 1.695.981c0 0 1.333.274 1.475.417 0 0-.47-1.248-1.22-1.85 0 0 1.22.341 1.553 1.997l1.25.567s-.515-1.679-1.138-2.266c0 0 1.183.508 1.44 2.422l1.119.7s-.311-1.477-.836-2.243c0 0 .972.666 1.147 2.454l.68.539s-.251-1.074-.355-1.378c-.104-.303-.019-.324-.019-.324.434.588.664 1.264.664 1.953 0 0 1.321 1.176 1.417 1.117zM140.814.08s-10.642-1.412-9.762 7.577c0 0-.318 1.56.842 2.343 0 0 .048-.67 1.124-.371.38.1.769.146 1.158.137a2.171 2.171 0 001.447-.613s3.065-1.295 4.48-7.064c0 0 .916-1.225.897-1.553l-1.84.806s.561 1.587 0 2.845c0 0 .059-2.784-.281-2.738-.07 0-.958.479-.958.479s.944 2.761.061 4.685c0 0 .444-3.303-.401-4.498l-1.307.807s1.124 2.861.186 5.083c0 0 .362-3.473-.461-4.886l-1.194 1.004s1.045 2.815.256 4.655c0 0 .081-4.062-.517-4.404 0 0-1.048 1.004-1.222 1.42 0 0 .713 2.04.174 3.061 0 0-.188-2.72-.436-2.747 0 0-1.078 1.73-1.236 2.952a7.302 7.302 0 011-3.14 2.806 2.806 0 00-1.573.854s.208-1.258 1.837-1.272c0 0 .888-1.308 1.124-1.375 0 0-1.61-.261-2.613.197 0 0 .914-1.141 2.922-.475l1.18-1.034s-2.112-.475-3.031-.147c0 0 1.084-1.004 3.349-.087l1.272-.804s-1.795-.575-2.882-.471c0 0 1.171-.67 3.253.257l.905-.421S137.249.75 136.86.68c-.387-.07-.401-.201-.401-.201a3.956 3.956 0 012.483.479s1.9-.733 1.871-.877zM211.08 61.175s-1.409 10.654 7.577 9.773c0 0 1.56.315 2.343-.843 0 0-.67-.048-.368-1.125.098-.38.143-.768.134-1.156a2.202 2.202 0 00-.61-1.443s-1.295-3.066-7.068-4.483c0 0-1.221-.92-1.553-.898l.807 1.843s1.586-.563 2.845 0c0 0-2.781-.06-2.738.28 0 .071.479.96.479.96s2.76-.945 4.685-.062c0 0-3.303-.444-4.495.402l.804 1.308s2.861-1.125 5.083-.186c0 0-3.474-.362-4.883.462l1.004 1.195s2.815-1.046 4.66-.259c0 0-4.067-.078-4.409.52 0 0 1.005 1.05 1.42 1.224 0 0 2.041-.714 3.062-.174 0 0-2.721.188-2.748.436 0 0 1.73 1.08 2.952 1.234a7.318 7.318 0 01-3.14-.998c.097.583.393 1.13.854 1.575 0 0-1.258-.211-1.268-1.842 0 0-1.309-.886-1.38-1.125 0 0-.257 1.611.202 2.615 0 0-1.145-.914-.479-2.925l-1.034-1.181s-.475 2.115-.147 3.035c0 0-1.004-1.086-.084-3.353l-.807-1.274s-.575 1.797-.471 2.886c0 0-.67-1.173.257-3.257l-.418-.906s-.392 1.32-.465 1.705c-.074.385-.201.405-.201.405a3.98 3.98 0 01.482-2.487s-.74-1.91-.884-1.881zM166.572 48s5.77-8.471-.48-11.5c0 0-.872-.924-1.916-.26 0 0 .407.316-.268 1.11a4.867 4.867 0 00-.617.927c-.23.453-.319.977-.253 1.49 0 0-.553 3.154 2.558 6.787 0 0 .38 1.293.602 1.415l.313-1.906s-1.281-.2-1.855-1.186c0 0 1.784 1.219 1.913.902.028-.063.127-1.015.127-1.015s-2.23-.358-3.071-1.913c0 0 1.948 1.768 3.111 1.549l.07-1.452s-2.373-.247-3.394-1.979c0 0 2.096 1.771 3.39 1.666l-.106-1.438s-2.308-.278-3.147-1.738c0 0 2.608 1.777 3.104 1.41 0 0-.17-1.312-.367-1.637 0 0-1.653-.25-2.073-1.138 0 0 1.858.982 1.987.783 0 0-.634-1.646-1.357-2.293a5.36 5.36 0 011.587 2.17c.203-.537.26-1.127.162-1.698 0 0 .723.707-.013 2.1 0 0 .448 1.303.392 1.525 0 0 .903-1.263 1.06-2.31 0 0 .328 1.26-1.012 2.69l.134 1.44s1.264-1.598 1.476-2.52c0 0 .155 1.34-1.468 2.887l-.058 1.424s1.193-1.288 1.622-2.257c0 0-.1 1.277-1.65 2.662l-.14.946s.855-.957 1.078-1.257c.222-.3.295-.255.295-.255a4.491 4.491 0 01-1.445 1.91s-.395 1.923-.291 1.959zM164 87.639s-2.929-10.627-9.516-6.812c0 0-1.32.211-1.484 1.587 0 0 .523-.172.704.94.067.399.18.788.334 1.16.207.5.565.916 1.02 1.184 0 0 2.154 2.495 7.127 1.938 0 0 1.286.47 1.531.342l-1.317-1.491s-1.01 1.05-2.18.951c0 0 2.16-.87 1.994-1.18-.034-.064-.73-.758-.73-.758s-1.765 1.817-3.57 1.605c0 0 2.71-.667 3.306-1.869l-1.114-.98s-1.776 2.013-3.84 1.857c0 0 2.807-.804 3.581-2.054l-1.22-.81s-1.767 1.93-3.482 1.784c0 0 3.154-1.267 3.193-1.95 0 0-1.164-.672-1.556-.695 0 0-1.3 1.351-2.289 1.177 0 0 2.022-1.082 1.95-1.325 0 0-1.738-.456-2.738-.204a5.22 5.22 0 012.784-.084 3.04 3.04 0 00-1.252-1.218s1.046-.218 1.67 1.334c0 0 1.34.412 1.478.604 0 0-.409-1.622-1.141-2.426 0 0 1.225.494 1.473 2.629l1.241.786s-.434-2.176-1.035-2.942c0 0 1.175.705 1.333 3.165l1.114.95s-.237-1.904-.727-2.902c0 0 .955.9 1.033 3.191l.663.726s-.195-1.387-.279-1.782c-.083-.394 0-.45 0-.45.412.772.61 1.648.571 2.53 0 0 1.27 1.561 1.37 1.492z" fill="#004D8A" opacity=".1"/><path d="M137 71.917s-5.443-8.113-10.924-3.496c0 0-1.233.47-1.06 1.643 0 0 .469-.262.917.616.16.312.362.606.602.876.322.365.77.626 1.277.742 0 0 2.703 1.58 7.412 0 0 0 1.367.102 1.574-.059l-1.644-.935s-.728 1.09-1.894 1.271c0 0 1.897-1.195 1.659-1.42-.05-.047-.897-.463-.897-.463s-1.28 1.893-3.08 2.124c0 0 2.475-1.159 2.764-2.282l-1.322-.55s-1.241 2.062-3.289 2.391c0 0 2.54-1.29 2.989-2.494l-1.384-.396s-1.255 1.98-2.958 2.252c0 0 2.762-1.752 2.633-2.324 0 0-1.294-.297-1.68-.227 0 0-.939 1.407-1.944 1.484 0 0 1.706-1.341 1.577-1.529 0 0-1.804.012-2.715.445a6.012 6.012 0 012.698-.692 3.146 3.146 0 00-1.516-.728s.967-.413 1.961.728c0 0 1.4.042 1.589.168 0 0-.793-1.237-1.7-1.747 0 0 1.31.133 2.07 1.84l1.4.372s-.95-1.697-1.723-2.197c0 0 1.317.319 2.067 2.316l1.303.537s-.692-1.517-1.4-2.227c0 0 1.145.527 1.78 2.402l.822.45s-.527-1.1-.712-1.405c-.185-.304-.106-.37-.106-.37a3.935 3.935 0 011.168 1.959s1.605 1.007 1.686.925zM109.998 99.769s.31-11.194-7.906-9.617c0 0-1.471-.214-2.092 1.061 0 0 .62 0 .447 1.131a4.886 4.886 0 00-.019 1.217c.056.549.302 1.065.699 1.469 0 0 1.48 3.097 6.947 4.148 0 0 1.214.867 1.518.82l-.931-1.857s-1.413.688-2.627.22c0 0 2.577-.143 2.506-.502 0-.073-.534-.966-.534-.966s-2.465 1.19-4.312.408c0 0 3.104.22 4.12-.746l-.867-1.302s-2.54 1.375-4.681.564c0 0 3.244.124 4.473-.837l-1.034-1.175s-2.505 1.298-4.28.61c0 0 3.762-.214 4.035-.863 0 0-1.018-1.02-1.428-1.175 0 0-1.819.881-2.812.405 0 0 2.483-.394 2.499-.655 0 0-1.698-.996-2.844-1.07a6.3 6.3 0 012.996.811 3.118 3.118 0 00-.931-1.578s1.182.127 1.344 1.822c0 0 1.294.829 1.378 1.058 0 0 .09-1.695-.428-2.706 0 0 1.142.867.714 3.006l1.064 1.157s.242-2.239-.146-3.17c0 0 1.019 1.055.392 3.482l.86 1.266s.366-1.913.17-3.038c0 0 .72 1.175.062 3.411l.472.911s.239-1.402.27-1.81c.031-.408.15-.435.15-.435a4.581 4.581 0 01-.215 2.624s.835 1.94.971 1.901z" fill="#004D8A"/><g fill="#232323" font-family="SegoeUI-Semibold, Segoe UI" font-size="22" font-weight="500" letter-spacing=".114" opacity=".757"><text transform="translate(34 160)"><tspan x="0" y="24">%</tspan></text></g><g fill="#232323" font-family="SegoeUI-Semibold, Segoe UI" font-size="19" font-weight="500" letter-spacing=".099"><text transform="translate(88 159)"><tspan x=".967" y="21">%</tspan></text></g></g></g></svg><svg width="263" height="263" viewBox="0 0 263 263" id="Quotes" x="2650" xmlns="http://www.w3.org/2000/svg"><g fill="none" fill-rule="evenodd"><circle fill="#F7F9FB" cx="131.5" cy="131.5" r="131.5"/><path d="M183 96c-3.315-18.057-3.467-35.743 0-53h-44.533a143.567 143.567 0 000 53c13.04-2.198 28.193-1.816 44.533 0z" fill="#FFF"/><path fill="#3F3D56" d="M166 42h-14v-4h14z"/><path d="M104.467 200c13.04-2.198 28.193-1.816 44.533 0-3.315-18.057-3.467-35.743 0-53h-44.533a143.567 143.567 0 000 53z" fill="#000" opacity=".1"/><path d="M147 199c-3.315-18.057-3.467-35.743 0-53h-44.533a143.567 143.567 0 000 53c13.04-2.198 28.193-1.816 44.533 0z" fill="#FFF"/><path fill="#3F3D56" d="M130 147h-14v-4h14z"/><path d="M66 110s17.04-47.58 55-48" stroke="#004D8A" stroke-width="2"/><path d="M123 64.082c-1.324.42-2.97 1.138-4 1.918l.846-1.983-.744-2.017c.989.822 2.597 1.615 3.898 2.082z" fill="#3F3D56"/><path d="M67.022 130S65.53 167.848 87 173" stroke="#004D8A" stroke-width="2"/><path d="M90 172.59c-1.293.246-2.929.76-4 1.41l1.071-1.882-.404-2.118c.804.95 2.188 1.95 3.333 2.59z" fill="#3F3D56"/><path d="M71 116.403S190.493 97.01 211 121" stroke="#004D8A" stroke-width="2"/><path d="M212 123c-1.128-.732-2.715-1.529-4-1.844l2.261-.49 1.382-1.666c-.168 1.18.04 2.791.357 4z" fill="#3F3D56"/><ellipse cx="10" cy="2" rx="10" ry="2" opacity=".1" transform="translate(38 158)" fill="#004D8A"/><ellipse cx="8" cy="3" rx="8" ry="3" opacity=".1" transform="translate(161 121)" fill="#004D8A"/><ellipse cx="8" cy="3" rx="8" ry="3" opacity=".1" transform="translate(121 204)" fill="#004D8A"/><path d="M262 178.244c-11.324 6.381-22.6 16.126-33.85 27.756-9.117-16.456-20.393-30.647-34.15-42.244L227.85 136A153.358 153.358 0 01262 178.244z" fill="#000" opacity=".1"/><path d="M263 176.244c-11.324 6.381-22.6 16.126-33.85 27.756-9.117-16.456-20.393-30.647-34.15-42.244L228.85 134A153.358 153.358 0 01263 176.244z" fill="#FFF"/><path fill="#3F3D56" d="M204.406 149.663l11.81-9.55 3.155 3.849-11.81 9.549z"/><path fill="#004D8A" d="M211.942 168.265l20.935-16.926 2.308 2.816-20.935 16.925z"/><path d="M29 144c3.315-18.054 3.47-35.74 0-53h44.533a143.567 143.567 0 010 53c-13.037-2.198-28.193-1.813-44.533 0z" fill="#FFF"/><path fill="#3F3D56" d="M44 88h14v4H44z"/><path fill="#004D8A" d="M110 158h28v4h-28zM110 166h28v3h-28zM145 49h28v4h-28zM145 57h28v3h-28zM38 101h28v4H38z"/></g></svg><svg width="16" height="21" viewBox="0 0 16 21" id="file-alt" x="2913" xmlns="http://www.w3.org/2000/svg"><g fill-rule="nonzero" fill="none"><path d="M9.333 5.464c0 .53.45.965 1 .965H16v13.178c0 .535-.446.964-1 .964H1c-.554 0-1-.43-1-.964V.964C0 .43.446 0 1 0h8.333v5.464zM12 14.946v-.321a.493.493 0 00-.5-.482h-7c-.275 0-.5.217-.5.482v.321c0 .266.225.483.5.483h7c.275 0 .5-.217.5-.483zm0-2.571v-.321a.493.493 0 00-.5-.483h-7c-.275 0-.5.217-.5.483v.321c0 .265.225.482.5.482h7c.275 0 .5-.217.5-.482zm0-2.893A.493.493 0 0011.5 9h-7c-.275 0-.5.217-.5.482v.322c0 .265.225.482.5.482h7c.275 0 .5-.217.5-.482v-.322z" fill="#148BE7"/><path d="M16 4.898v.245h-5.333V0h.254c.267 0 .52.1.708.281l4.08 3.938c.187.18.291.426.291.679z" fill="#1C71B4"/></g></svg><svg width="16" height="21" viewBox="0 0 16 21" id="file-archive" x="2929" xmlns="http://www.w3.org/2000/svg"><g fill-rule="nonzero" fill="none"><path d="M9.333 5.464c0 .53.45.965 1 .965H16v13.178c0 .535-.446.964-1 .964H1c-.554 0-1-.43-1-.964V.964C0 .43.446 0 1 0h4.35v1.286h1.333V0h2.65v5.464zm-3.991 11.25c1.375 0 2.408-1.213 2.141-2.515l-.72-3.524a.5.5 0 00-.492-.39H5.35V9h1.333V7.714H5.35V6.43h1.333V5.143H5.35V3.857h1.333V2.571H5.35v1.286H4.017v1.286H5.35v1.286H4.017v1.285H5.35V9H4.017v1.286L3.2 14.187c-.275 1.306.758 2.527 2.142 2.527z" fill="#F9BC3D"/><path fill="#F9BC3D" d="M3.996 1.286h1.333V2.57H3.996zM6.704 14.585c0 .598-.604 1.085-1.35 1.085-.746 0-1.354-.482-1.354-1.085 0-.599.604-1.085 1.35-1.085.746 0 1.354.486 1.354 1.085z"/><path d="M16 4.898v.245h-5.333V0h.254c.267 0 .52.1.708.281l4.08 3.938c.187.18.291.426.291.679z" fill="#E0980F"/></g></svg><svg width="16" height="21" viewBox="0 0 16 21" id="file-excel" x="2945" xmlns="http://www.w3.org/2000/svg"><g fill-rule="nonzero" fill="none"><path d="M9.333 5.464c0 .53.45.965 1 .965H16v13.178c0 .535-.446.964-1 .964H1c-.554 0-1-.43-1-.964V.964C0 .43.446 0 1 0h8.333v5.464zm2.505 4.28c.212-.322-.025-.744-.421-.74h-1.45a.505.505 0 00-.442.253A366.26 366.26 0 008 12.01c-.692-1.402-.438-.791-1.525-2.752a.505.505 0 00-.442-.253h-1.45c-.396 0-.637.422-.42.743l2.512 3.757-2.513 3.757c-.212.321.026.743.421.743h1.454c.184 0 .35-.096.438-.253C7.583 15.79 7.733 15.58 8 14.987c0 0 .704 1.305 1.52 2.76a.505.505 0 00.443.253h1.454c.396 0 .633-.422.42-.743L9.334 13.5l2.505-3.757z" fill="#39C171"/><path d="M16 4.898v.245h-5.333V0h.254c.267 0 .52.1.708.281l4.08 3.938c.187.18.291.426.291.679z" fill="#1B985A"/></g></svg><svg width="16" height="22" viewBox="0 0 16 22" id="file-image" x="2961" xmlns="http://www.w3.org/2000/svg"><g fill-rule="nonzero" fill="none"><path d="M16 5.333h-5.333V0h.252a1 1 0 01.707.293l4.081 4.08a1 1 0 01.293.708v.252z" fill="#50B2F4"/><path d="M10.333 6.667H16v13.666a1 1 0 01-1 1H1a1 1 0 01-1-1V1a1 1 0 011-1h8.333v5.667c0 .55.45 1 1 1zm-5.644.666a2 2 0 100 4 2 2 0 000-4zm-2 10h10.667v-4.666L11.71 11.02a.5.5 0 00-.708 0L6.69 15.333l-1.646-1.646c-.195-.195-.492-.216-.687-.02L2.71 15.313l-.02 2.02z" fill="#50B6FB"/></g></svg><svg width="16" height="21" viewBox="0 0 16 21" id="file-pdf" x="2977" xmlns="http://www.w3.org/2000/svg"><g fill-rule="nonzero" fill="none"><path d="M7.58 10.29c-.21-.643-.205-1.885-.084-1.885.35 0 .316 1.483.083 1.885zM7.508 12.186c-.32.812-.72 1.74-1.183 2.52.763-.282 1.625-.692 2.62-.88a5.26 5.26 0 01-1.437-1.64zM3.587 17.2c0 .033.55-.217 1.455-1.615-.28.253-1.213.985-1.454 1.615z" fill="#F2453B"/><path d="M10.333 6.429H16v13.178c0 .535-.446.964-1 .964H1c-.554 0-1-.43-1-.964V.964C0 .43.446 0 1 0h8.333v5.464c0 .53.45.965 1 .965zM10 13.33c-.833-.49-1.387-1.165-1.78-2.161.188-.744.484-1.873.26-2.58-.197-1.181-1.768-1.065-1.993-.273-.208.735-.016 1.772.338 3.094-.483 1.109-1.196 2.595-1.7 3.447-.004 0-.004.004-.008.004-1.13.559-3.067 1.788-2.271 2.732.233.277.667.402.896.402.745 0 1.487-.723 2.545-2.483 1.075-.342 2.255-.767 3.292-.932.904.474 1.963.783 2.667.783 1.216 0 1.3-1.285.82-1.743-.579-.547-2.262-.39-3.066-.29z" fill="#F2453B"/><path d="M15.708 4.219L11.625.28A1.018 1.018 0 0010.917 0h-.25v5.143H16v-.245a.944.944 0 00-.292-.68z" fill="#CB351B"/><path d="M12.62 14.476c.172-.108-.103-.478-1.782-.361 1.545.635 1.783.361 1.783.361z" fill="#F2453B"/></g></svg></svg>