<?xml version="1.0" standalone="no"?>
<!DOCTYPE svg PUBLIC "-//W3C//DTD SVG 20010904//EN"
 "http://www.w3.org/TR/2001/REC-SVG-20010904/DTD/svg10.dtd">
<svg version="1.0" xmlns="http://www.w3.org/2000/svg"
 width="377.000000pt" height="200.000000pt" viewBox="0 0 377.000000 200.000000"
 preserveAspectRatio="xMidYMid meet">

<g transform="translate(0.000000,200.000000) scale(0.100000,-0.100000)"
fill="#2e2e2e" stroke="none">
<path d="M2265 1809 c-588 -103 -1081 -191 -1094 -194 -14 -4 -41 -23 -62 -44
-52 -51 -57 -88 -31 -230 11 -64 18 -118 16 -120 -2 -2 -240 -45 -528 -96
-289 -50 -532 -97 -540 -105 -10 -7 -16 -28 -16 -51 0 -42 18 -59 63 -59 13 0
252 40 533 89 280 49 510 88 513 86 6 -7 41 -209 39 -224 -2 -11 -87 -29 -333
-72 -286 -50 -332 -61 -347 -80 -22 -26 -23 -48 -2 -77 22 -32 48 -30 400 32
170 30 309 54 310 53 8 -8 42 -233 36 -238 -4 -3 -63 -15 -132 -27 -99 -17
-129 -26 -142 -43 -22 -26 -23 -48 -2 -77 19 -28 60 -28 199 -3 55 10 102 17
105 14 3 -3 15 -59 27 -125 25 -139 47 -176 118 -203 43 -17 49 -17 192 8 81
15 578 101 1103 192 604 105 968 173 990 184 53 27 80 73 80 139 0 58 -225
1344 -240 1371 -27 51 -97 92 -153 90 -18 -1 -513 -86 -1102 -190z m998 19
c-11 -13 -194 -231 -407 -486 -224 -267 -398 -467 -413 -473 -16 -6 -32 -5
-46 3 -72 37 -1064 613 -1076 623 -11 11 0 15 55 24 38 7 474 84 969 171 495
87 909 159 919 159 19 1 19 0 -1 -21z m257 -636 c57 -320 101 -585 98 -587 -7
-7 -808 457 -808 467 0 16 594 718 601 710 3 -4 53 -269 109 -590z m-1902 -24
c218 -125 398 -230 400 -232 2 -3 -132 -167 -299 -365 -166 -199 -303 -360
-305 -358 -3 2 -214 1182 -214 1194 0 2 5 1 11 -3 7 -4 190 -110 407 -236z
m1483 -424 c428 -247 427 -246 414 -251 -25 -8 -1958 -343 -1965 -341 -8 3
575 701 590 706 5 2 52 -22 105 -52 119 -69 162 -82 224 -66 60 15 93 41 171
138 36 45 70 81 76 82 6 0 179 -97 385 -216z"/>
</g>
</svg>
