<svg xmlns="http://www.w3.org/2000/svg" viewBox="0 0 47.37 48.29"><defs><style>.cls-1{fill:#1d1d1b;}</style></defs><g id="Warstwa_2" data-name="Warstwa 2"><g id="Layer_1" data-name="Layer 1"><path class="cls-1" d="M8.76,41.88a1.61,1.61,0,0,1-.64-.6,1.65,1.65,0,0,1-.23-.86,1.71,1.71,0,0,1,.23-.87,1.76,1.76,0,0,1,.64-.6,2.14,2.14,0,0,1,1.85,0,1.76,1.76,0,0,1,.64.6,1.71,1.71,0,0,1,.23.87,1.65,1.65,0,0,1-.23.86,1.61,1.61,0,0,1-.64.6,2.05,2.05,0,0,1-1.85,0Zm1.37-.65a.82.82,0,0,0,.31-.33,1,1,0,0,0,.12-.48,1,1,0,0,0-.12-.49.8.8,0,0,0-.31-.32.84.84,0,0,0-.45-.12.83.83,0,0,0-.44.12.8.8,0,0,0-.31.32,1,1,0,0,0-.12.49,1,1,0,0,0,.12.48.82.82,0,0,0,.31.33.93.93,0,0,0,.44.11A.94.94,0,0,0,10.13,41.23Z"/><path class="cls-1" d="M12.34,42a1.67,1.67,0,0,1-.6-.26l.3-.67a2.1,2.1,0,0,0,.5.23,1.87,1.87,0,0,0,.56.09c.35,0,.53-.09.53-.27a.21.21,0,0,0-.15-.2,2.41,2.41,0,0,0-.48-.14,3.92,3.92,0,0,1-.61-.17,1,1,0,0,1-.42-.29.77.77,0,0,1-.18-.54,1,1,0,0,1,.16-.53,1.13,1.13,0,0,1,.49-.38,2,2,0,0,1,.78-.13,2.59,2.59,0,0,1,.63.07,2.1,2.1,0,0,1,.55.21l-.28.68a1.86,1.86,0,0,0-.9-.25.7.7,0,0,0-.4.08.24.24,0,0,0-.12.21.21.21,0,0,0,.14.19,2.41,2.41,0,0,0,.48.14,3.92,3.92,0,0,1,.61.17,1.07,1.07,0,0,1,.42.28.77.77,0,0,1,.18.54.89.89,0,0,1-.16.52,1.13,1.13,0,0,1-.49.38,2,2,0,0,1-.78.14A2.73,2.73,0,0,1,12.34,42Z"/><path class="cls-1" d="M17.19,39a1.07,1.07,0,0,1,.5.41,1.21,1.21,0,0,1,0,1.27,1.07,1.07,0,0,1-.5.41,1.78,1.78,0,0,1-.76.15h-.56V42H15V38.8h1.48A1.78,1.78,0,0,1,17.19,39Zm-.39,1.4a.47.47,0,0,0,.14-.35.45.45,0,0,0-.14-.35.61.61,0,0,0-.43-.13h-.5v.95h.5A.67.67,0,0,0,16.8,40.35Z"/><path class="cls-1" d="M19.72,41.18h-.5V42h-.91V38.8h1.48a1.81,1.81,0,0,1,.76.15,1.07,1.07,0,0,1,.5.41,1.27,1.27,0,0,1,0,1.25,1.18,1.18,0,0,1-.47.41l.7,1h-1Zm.44-1.53a.61.61,0,0,0-.43-.13h-.51v.95h.51a.67.67,0,0,0,.43-.12A.47.47,0,0,0,20.3,40,.45.45,0,0,0,20.16,39.65Z"/><path class="cls-1" d="M24.46,41.31V42H21.57v-.57l1.63-1.93H21.61V38.8h2.78v.57l-1.63,1.94Z"/><path class="cls-1" d="M27.46,41.33V42h-2.6V38.8H27.4v.71H25.77v.54h1.44v.69H25.77v.59ZM26.58,43a.49.49,0,0,1-.18-.4.59.59,0,0,1,.19-.43,1.25,1.25,0,0,1,.55-.32l.32.2a1.92,1.92,0,0,0-.41.24.35.35,0,0,0-.12.24.15.15,0,0,0,.07.14.24.24,0,0,0,.18.06.55.55,0,0,0,.28-.07l.12.38a1,1,0,0,1-.23.07l-.27,0A.76.76,0,0,1,26.58,43Z"/><path class="cls-1" d="M28.66,39.53h-1V38.8h2.9v.73h-1V42h-.91Z"/><path class="cls-1" d="M32.25,38.8h1.53a2.2,2.2,0,0,1,.94.2,1.58,1.58,0,0,1,.64.56,1.62,1.62,0,0,1,.22.86,1.58,1.58,0,0,1-.22.85,1.61,1.61,0,0,1-.64.57,2.19,2.19,0,0,1-.94.19H32.25Zm1.49,2.5a.93.93,0,0,0,.67-.23.89.89,0,0,0,.25-.65.86.86,0,0,0-.25-.65.93.93,0,0,0-.67-.24h-.58V41.3Z"/><path class="cls-1" d="M36.77,41.88a1.54,1.54,0,0,1-.64-.6,1.56,1.56,0,0,1-.23-.86,1.62,1.62,0,0,1,.23-.87,1.68,1.68,0,0,1,.64-.6,2.12,2.12,0,0,1,1.84,0,1.6,1.6,0,0,1,.88,1.47,1.65,1.65,0,0,1-.23.86,1.57,1.57,0,0,1-.65.6,2,2,0,0,1-1.84,0Zm1.37-.65a.9.9,0,0,0,.31-.33,1,1,0,0,0,.12-.48,1,1,0,0,0-.12-.49.85.85,0,0,0-.76-.44.83.83,0,0,0-.44.12.8.8,0,0,0-.31.32,1,1,0,0,0-.12.49,1,1,0,0,0,.12.48.82.82,0,0,0,.31.33.93.93,0,0,0,.44.11A1,1,0,0,0,38.14,41.23Z"/><path class="cls-1" d="M2.6,46.49v.71H0V44H2.54v.71H.91v.55H2.34v.68H.91v.59Z"/><path class="cls-1" d="M3.1,44H4v2.51H5.56v.73H3.1Z"/><path class="cls-1" d="M8.52,46.49v.71H5.92V44H8.46v.71H6.83v.55H8.26v.68H6.83v.59Z"/><path class="cls-1" d="M10.27,46l-.34.37v.81H9V44h.9v1.35L11.18,44h1L10.87,45.4l1.39,1.8H11.2Z"/><path class="cls-1" d="M13,44.69H12V44h2.89v.73h-1V47.2H13Z"/><path class="cls-1" d="M16.61,46.34h-.5v.86h-.92V44h1.48a1.78,1.78,0,0,1,.76.15,1,1,0,0,1,.5.42,1.19,1.19,0,0,1,0,1.24,1,1,0,0,1-.46.41l.69,1h-1ZM17,44.81a.64.64,0,0,0-.42-.13h-.51v1h.51a.64.64,0,0,0,.42-.12.51.51,0,0,0,0-.7Z"/><path class="cls-1" d="M19.32,47.05a1.63,1.63,0,0,1-.64-.61,1.72,1.72,0,0,1,0-1.72,1.54,1.54,0,0,1,.64-.6,2,2,0,0,1,1.84,0,1.57,1.57,0,0,1,.65.6,1.66,1.66,0,0,1-.65,2.33,2.12,2.12,0,0,1-1.84,0Zm1.37-.66a.9.9,0,0,0,.31-.33,1,1,0,0,0,0-1,.9.9,0,0,0-.31-.33,1,1,0,0,0-.45-.11.93.93,0,0,0-.44.11.82.82,0,0,0-.31.33,1,1,0,0,0,0,1,.8.8,0,0,0,.75.44A.86.86,0,0,0,20.69,46.39Z"/><path class="cls-1" d="M25.6,44V47.2h-.76l-1.42-1.73V47.2h-.9V44h.75l1.43,1.73V44Z"/><path class="cls-1" d="M28.41,46.57H27l-.25.63h-.93L27.28,44h.9l1.44,3.24h-1Zm-.27-.68-.41-1-.42,1Z"/><path class="cls-1" d="M31.29,46.34h-.5v.86h-.92V44h1.48a1.82,1.82,0,0,1,.77.15,1.07,1.07,0,0,1,.49.42,1.11,1.11,0,0,1,.18.63,1.2,1.2,0,0,1-.16.61,1.11,1.11,0,0,1-.47.41l.69,1h-1Zm.43-1.53a.62.62,0,0,0-.42-.13h-.51v1h.51a.62.62,0,0,0,.42-.12.48.48,0,0,0,0-.7Z"/><path class="cls-1" d="M36,46.47v.73h-2.9v-.58l1.63-1.93H33.17V44H36v.58l-1.63,1.93Z"/><path class="cls-1" d="M39,46.49v.71h-2.6V44H39v.71H37.34v.55h1.43v.68H37.34v.59Zm-.89,1.65a.48.48,0,0,1-.18-.39.65.65,0,0,1,.19-.44A1.38,1.38,0,0,1,38.7,47l.33.21a1.29,1.29,0,0,0-.42.24.31.31,0,0,0-.12.23.21.21,0,0,0,.07.15.36.36,0,0,0,.19,0A.55.55,0,0,0,39,47.8l.11.38a.93.93,0,0,1-.22.08,1.24,1.24,0,0,1-.27,0A.78.78,0,0,1,38.14,48.14Z"/><path class="cls-1" d="M39.53,44h1.53a2.21,2.21,0,0,1,.95.2,1.45,1.45,0,0,1,.63.57,1.56,1.56,0,0,1,.23.85,1.62,1.62,0,0,1-.23.86A1.49,1.49,0,0,1,42,47a2.21,2.21,0,0,1-.95.2H39.53ZM41,46.47a.91.91,0,0,0,.66-.24.83.83,0,0,0,.26-.65.84.84,0,0,0-.26-.65.91.91,0,0,0-.66-.24h-.58v1.78Z"/><path class="cls-1" d="M46.06,46.47v.73h-2.9v-.58l1.63-1.93H43.2V44H46v.58l-1.63,1.93Z"/><path class="cls-1" d="M46.46,44h.91V47.2h-.91Z"/><path class="cls-1" d="M23.69,21.41a3.92,3.92,0,1,1,3.92-3.92A3.93,3.93,0,0,1,23.69,21.41Zm0-6.29a2.38,2.38,0,1,0,2.38,2.37A2.38,2.38,0,0,0,23.69,15.12Z"/><path class="cls-1" d="M38.28,33.9h-31V28.38h31l2,2.76ZM8.83,32.36H37.49l.88-1.22-.88-1.22H8.83Z"/><rect class="cls-1" x="33.21" y="30.33" width="5.26" height="1.54" transform="translate(-8.77 47.29) rotate(-60.9)"/><rect class="cls-1" x="30.03" y="30.33" width="5.26" height="1.54" transform="translate(-10.4 44.52) rotate(-60.9)"/><rect class="cls-1" x="26.86" y="30.33" width="5.26" height="1.54" transform="translate(-12.03 41.75) rotate(-60.9)"/><rect class="cls-1" x="23.69" y="30.33" width="5.26" height="1.54" transform="translate(-13.66 38.98) rotate(-60.9)"/><rect class="cls-1" x="20.52" y="30.33" width="5.26" height="1.54" transform="translate(-15.29 36.21) rotate(-60.9)"/><rect class="cls-1" x="17.35" y="30.33" width="5.26" height="1.54" transform="translate(-16.91 33.44) rotate(-60.9)"/><path class="cls-1" d="M38.51,26.66H8.75l-.21-.43q-.85-1.8.91-3.92a17.09,17.09,0,0,1-.57-2.24l-2.65.28,0-2.75v0c0-1.37,1-2.39,2.76-3a15.55,15.55,0,0,1,.62-2.22L7.14,11.24,8.5,8.82c.73-1.16,2.05-1.58,3.91-1.25A14.75,14.75,0,0,1,14.06,6L12.48,3.8l2.39-1.41c1.21-.64,2.56-.35,4,.87a14.14,14.14,0,0,1,2.24-.57L20.83,0l2.75,0h0c1.37.06,2.39,1,3,2.76a15.55,15.55,0,0,1,2.22.62L29.94.94,32.36,2.3c1.16.73,1.58,2.05,1.25,3.91a14.75,14.75,0,0,1,1.61,1.65l2.16-1.57,1.41,2.38q1,1.83-.86,4a15.61,15.61,0,0,1,.56,2.24l2.66-.29,0,2.75v0c-.06,1.38-1,2.4-2.76,3a15.68,15.68,0,0,1-.62,2.23l2.44,1.08-1.36,2.41-.12.18ZM9.8,25.12H37.7l.37-.65-2.27-1,.3-.7a14,14,0,0,0,.89-3l.08-.47.45-.14c1.84-.56,2.1-1.27,2.12-1.76v-1l-2.46.26-.1-.75a13.44,13.44,0,0,0-.74-3.08l-.17-.45.32-.34c1.31-1.41,1.18-2.15,1-2.59l-.52-.87-2,1.46-.46-.6A12.84,12.84,0,0,0,32.27,7.1l-.36-.31.1-.46c.44-1.87,0-2.45-.46-2.72l-.88-.49-1,2.26L29,5.08a13.55,13.55,0,0,0-3-.88l-.47-.08-.14-.46c-.57-1.83-1.27-2.09-1.76-2.12h-1L22.81,4l-.76.09A13.38,13.38,0,0,0,19,4.86L18.53,5l-.35-.32c-1.4-1.31-2.14-1.18-2.58-1l-.87.52,1.46,2-.61.46a14,14,0,0,0-2.29,2.19l-.3.36-.46-.1c-1.88-.43-2.45.05-2.72.46l-.5.89,2.27,1-.3.7a13.34,13.34,0,0,0-.89,3l-.08.47-.45.14c-1.84.57-2.1,1.28-2.12,1.77v1l2.46-.27.09.76a13.59,13.59,0,0,0,.75,3.08l.17.44-.33.35C10,24,9.76,24.67,9.8,25.12Z"/></g></g></svg>