<svg xmlns="http://www.w3.org/2000/svg" viewBox="0 0 51.4 43.18"><defs><style>.cls-1{fill:#1d1d1b;}</style></defs><g id="Warstwa_2" data-name="Warstwa 2"><g id="Layer_1" data-name="Layer 1"><path class="cls-1" d="M2.6,41.38v.71H0V38.85H2.54v.71H.91v.55H2.34v.68H.91v.59Z"/><path class="cls-1" d="M3.1,38.85H4v2.51H5.56v.73H3.1Z"/><path class="cls-1" d="M8.52,41.38v.71H5.92V38.85H8.46v.71H6.83v.55H8.26v.68H6.83v.59Z"/><path class="cls-1" d="M10.27,40.91l-.34.37v.81H9V38.85h.9V40.2l1.25-1.35h1l-1.32,1.44,1.39,1.8H11.2Z"/><path class="cls-1" d="M13,39.58H12v-.73h2.89v.73h-1v2.51H13Z"/><path class="cls-1" d="M16.61,41.23h-.5v.86h-.92V38.85h1.48a1.78,1.78,0,0,1,.76.15,1,1,0,0,1,.5.42,1.19,1.19,0,0,1,0,1.24,1,1,0,0,1-.46.41l.69,1h-1ZM17,39.7a.64.64,0,0,0-.42-.13h-.51v1h.51A.64.64,0,0,0,17,40.4a.51.51,0,0,0,0-.7Z"/><path class="cls-1" d="M19.32,41.93a1.54,1.54,0,0,1-.64-.6,1.72,1.72,0,0,1,0-1.72,1.54,1.54,0,0,1,.64-.6,2,2,0,0,1,1.84,0,1.57,1.57,0,0,1,.65.6,1.72,1.72,0,0,1,0,1.72,1.57,1.57,0,0,1-.65.6,2,2,0,0,1-1.84,0Zm1.37-.65A.9.9,0,0,0,21,41a1,1,0,0,0,0-1,.9.9,0,0,0-.31-.33,1,1,0,0,0-.45-.11.93.93,0,0,0-.44.11.82.82,0,0,0-.31.33,1,1,0,0,0,0,1,.8.8,0,0,0,.75.44A.86.86,0,0,0,20.69,41.28Z"/><path class="cls-1" d="M25.6,38.85v3.24h-.76l-1.42-1.73v1.73h-.9V38.85h.75l1.43,1.73V38.85Z"/><path class="cls-1" d="M28.41,41.46H27l-.25.63h-.93l1.42-3.24h.9l1.44,3.24h-1Zm-.27-.68-.41-1-.42,1Z"/><path class="cls-1" d="M31.29,41.23h-.5v.86h-.92V38.85h1.48a1.82,1.82,0,0,1,.77.15,1.07,1.07,0,0,1,.49.42,1.11,1.11,0,0,1,.18.63,1.2,1.2,0,0,1-.16.61,1.11,1.11,0,0,1-.47.41l.69,1h-1Zm.43-1.53a.62.62,0,0,0-.42-.13h-.51v1h.51a.62.62,0,0,0,.42-.12.48.48,0,0,0,0-.7Z"/><path class="cls-1" d="M36,41.36v.73h-2.9v-.58l1.63-1.93H33.17v-.73H36v.58l-1.63,1.93Z"/><path class="cls-1" d="M39,41.38v.71h-2.6V38.85H39v.71H37.34v.55h1.43v.68H37.34v.59ZM38.14,43a.48.48,0,0,1-.18-.39.65.65,0,0,1,.19-.44,1.38,1.38,0,0,1,.55-.32l.33.21a1.29,1.29,0,0,0-.42.24.31.31,0,0,0-.12.23.21.21,0,0,0,.07.15.36.36,0,0,0,.19,0,.55.55,0,0,0,.28-.07l.11.38a.93.93,0,0,1-.22.08,1.24,1.24,0,0,1-.27,0A.78.78,0,0,1,38.14,43Z"/><path class="cls-1" d="M39.53,38.85h1.53a2.21,2.21,0,0,1,.95.2,1.45,1.45,0,0,1,.63.57,1.56,1.56,0,0,1,.23.85,1.62,1.62,0,0,1-.23.86,1.49,1.49,0,0,1-.63.56,2.21,2.21,0,0,1-.95.2H39.53ZM41,41.36a.91.91,0,0,0,.66-.24.94.94,0,0,0,0-1.3.91.91,0,0,0-.66-.24h-.58v1.78Z"/><path class="cls-1" d="M46.06,41.36v.73h-2.9v-.58l1.63-1.93H43.2v-.73H46v.58l-1.63,1.93Z"/><path class="cls-1" d="M46.46,38.85h.91v3.24h-.91Z"/><path class="cls-1" d="M50.19,41.46H48.82l-.25.63h-.93l1.42-3.24H50l1.44,3.24h-.95Zm-.27-.68-.41-1-.42,1Z"/><path class="cls-1" d="M38.4,34H18.72V23.61l10.55-2h7.29L38.4,26ZM20.26,32.41h16.6v-6.1l-1.32-3.16H29.41l-9.15,1.74Z"/><rect class="cls-1" x="18.72" y="25.72" width="19.68" height="1.54"/><rect class="cls-1" x="34.28" y="10.36" width="1.54" height="12.88" transform="translate(-2.41 6.45) rotate(-10.17)"/><rect class="cls-1" x="27.79" y="10.36" width="1.54" height="12.88" transform="translate(-2.52 5.3) rotate(-10.17)"/><polygon class="cls-1" points="28.63 15.53 24.55 15.53 23.37 10.65 24.87 10.29 25.76 13.99 28.63 13.99 28.63 15.53"/><path class="cls-1" d="M36.35,11.82H20.12V0H36.35l3.47,3.15V8.67ZM21.66,10.28H35.75L38.28,8V3.83L35.75,1.54H21.66ZM39.05,8.33Z"/><rect class="cls-1" x="29.91" y="2.7" width="5.77" height="1.54"/><rect class="cls-1" x="29.91" y="5.14" width="5.77" height="1.54"/><rect class="cls-1" x="29.91" y="7.58" width="5.77" height="1.54"/><path class="cls-1" d="M21.66,10.84H17V1h4.63ZM18.57,9.29h1.55V2.5H18.57Z"/><path class="cls-1" d="M18.57,9.72H12.75L9,8.09V3.71l3.75-1.63h5.82Zm-5.5-1.54h4V3.62h-4l-2.53,1.1V7.08Z"/><rect class="cls-1" x="17.03" y="3.03" width="4.63" height="1.54"/><rect class="cls-1" x="17.03" y="5.13" width="4.63" height="1.54"/><rect class="cls-1" x="17.03" y="7.23" width="4.63" height="1.54"/><rect class="cls-1" x="12.58" y="4.08" width="3.43" height="1.54"/><rect class="cls-1" x="12.58" y="6.18" width="3.43" height="1.54"/><rect class="cls-1" x="5.78" y="5.13" width="4.76" height="1.54"/></g></g></svg>