<svg xmlns="http://www.w3.org/2000/svg" viewBox="0 0 31.71 47.31"><defs><style>.cls-1{fill:#1d1d1b;}</style></defs><g id="Warstwa_2" data-name="Warstwa 2"><g id="Layer_1" data-name="Layer 1"><path class="cls-1" d="M4.13,38.84v3.24H3.38L2,40.35v1.73h-.9V38.84h.76l1.42,1.73V38.84Z"/><path class="cls-1" d="M6.94,41.45H5.58l-.26.63H4.39l1.43-3.24h.9l1.43,3.24h-1Zm-.26-.67-.42-1-.42,1Z"/><path class="cls-1" d="M9.82,41.22h-.5v.86H8.41V38.84H9.89a1.81,1.81,0,0,1,.76.15,1.21,1.21,0,0,1,.5.42,1.19,1.19,0,0,1,.17.63,1.07,1.07,0,0,1-.63,1l.7,1h-1Zm.44-1.53a.67.67,0,0,0-.43-.13H9.32v.95h.51a.67.67,0,0,0,.43-.12.51.51,0,0,0,0-.7Z"/><path class="cls-1" d="M14.56,41.35v.73h-2.9v-.57l1.64-1.94H11.71v-.73h2.78v.58l-1.63,1.93Z"/><path class="cls-1" d="M17.56,41.37v.71H15V38.84H17.5v.71H15.87v.55H17.3v.68H15.87v.59ZM16.68,43a.48.48,0,0,1-.18-.39.64.64,0,0,1,.18-.44,1.36,1.36,0,0,1,.56-.32l.32.21a1.22,1.22,0,0,0-.41.24.31.31,0,0,0-.12.23.2.2,0,0,0,.06.15.36.36,0,0,0,.19,0,.55.55,0,0,0,.28-.07l.11.38a.79.79,0,0,1-.22.08l-.27,0A.75.75,0,0,1,16.68,43Z"/><path class="cls-1" d="M18.07,38.84H19.6a2.2,2.2,0,0,1,.94.2,1.54,1.54,0,0,1,.64.57,1.56,1.56,0,0,1,.22.85,1.62,1.62,0,0,1-.22.86,1.52,1.52,0,0,1-.64.56,2.2,2.2,0,0,1-.94.2H18.07Zm1.49,2.51a.93.93,0,0,0,.67-.24.86.86,0,0,0,.25-.65.87.87,0,0,0-.25-.65.93.93,0,0,0-.67-.24H19v1.78Z"/><path class="cls-1" d="M24.59,41.35v.73h-2.9v-.57l1.63-1.94H21.73v-.73h2.79v.58l-1.63,1.93Z"/><path class="cls-1" d="M25,38.84h.92v3.24H25Z"/><path class="cls-1" d="M28.72,41.45H27.36l-.26.63h-.93l1.43-3.24h.9l1.43,3.24H29Zm-.26-.67-.42-1-.42,1Z"/><path class="cls-1" d="M.88,47.09a1.71,1.71,0,0,1-.65-.6A1.71,1.71,0,0,1,0,45.62a1.68,1.68,0,0,1,.23-.86,1.57,1.57,0,0,1,.65-.6,1.87,1.87,0,0,1,.92-.22,1.87,1.87,0,0,1,.92.22,1.54,1.54,0,0,1,.64.6,1.58,1.58,0,0,1,.23.86,1.62,1.62,0,0,1-.23.87,1.68,1.68,0,0,1-.64.6,2,2,0,0,1-.92.22A2,2,0,0,1,.88,47.09Zm1.36-.66a.74.74,0,0,0,.31-.32,1,1,0,0,0,.12-.49,1,1,0,0,0-.12-.48.74.74,0,0,0-.31-.32.83.83,0,0,0-.44-.12.87.87,0,0,0-.45.12.8.8,0,0,0-.31.32,1,1,0,0,0-.12.48,1,1,0,0,0,.12.49.8.8,0,0,0,.31.32.87.87,0,0,0,.45.12A.83.83,0,0,0,2.24,46.43Z"/><path class="cls-1" d="M6.24,45.55h.81v1.34a2,2,0,0,1-.64.31,2.57,2.57,0,0,1-.72.11,1.94,1.94,0,0,1-.91-.22,1.54,1.54,0,0,1-.64-.6,1.74,1.74,0,0,1,0-1.73,1.54,1.54,0,0,1,.64-.6,1.91,1.91,0,0,1,.93-.22,2.09,2.09,0,0,1,.81.15,1.67,1.67,0,0,1,.6.44l-.58.53a1,1,0,0,0-.78-.36.88.88,0,0,0-.93.92A1,1,0,0,0,5,46.1a.78.78,0,0,0,.32.33,1,1,0,0,0,.48.12,1.17,1.17,0,0,0,.49-.11Z"/><path class="cls-1" d="M9.05,46.38h-.5v.86H7.63V44H9.11a1.94,1.94,0,0,1,.76.14,1.15,1.15,0,0,1,.5.42,1.11,1.11,0,0,1,.18.63,1.15,1.15,0,0,1-.17.62,1,1,0,0,1-.47.4l.7,1h-1Zm.43-1.53a.67.67,0,0,0-.43-.12h-.5v.94h.5a.67.67,0,0,0,.43-.12.45.45,0,0,0,.14-.35A.47.47,0,0,0,9.48,44.85Z"/><path class="cls-1" d="M11.76,47.09a1.68,1.68,0,0,1-.64-.6,1.63,1.63,0,0,1-.24-.87,1.59,1.59,0,0,1,.24-.86,1.54,1.54,0,0,1,.64-.6,2,2,0,0,1,1.84,0,1.54,1.54,0,0,1,.64.6,1.59,1.59,0,0,1,.24.86,1.63,1.63,0,0,1-.24.87,1.68,1.68,0,0,1-.64.6,2,2,0,0,1-1.84,0Zm1.36-.66a.76.76,0,0,0,.32-.32,1,1,0,0,0,.11-.49,1,1,0,0,0-.11-.48.76.76,0,0,0-.32-.32.87.87,0,0,0-.88,0,.76.76,0,0,0-.32.32,1.06,1.06,0,0,0-.11.48,1.07,1.07,0,0,0,.11.49.76.76,0,0,0,.32.32.87.87,0,0,0,.88,0Z"/><path class="cls-1" d="M15,44h1.53a2,2,0,0,1,.94.2,1.52,1.52,0,0,1,.64.56,1.77,1.77,0,0,1,0,1.71,1.52,1.52,0,0,1-.64.56,2.16,2.16,0,0,1-.94.2H15Zm1.49,2.5a1,1,0,0,0,.67-.23,1,1,0,0,0,0-1.31,1,1,0,0,0-.67-.23h-.58v1.77Z"/><path class="cls-1" d="M19.48,47.09a1.76,1.76,0,0,1-.64-.6,1.71,1.71,0,0,1-.23-.87,1.68,1.68,0,0,1,.23-.86,1.61,1.61,0,0,1,.64-.6,2.05,2.05,0,0,1,1.85,0,1.61,1.61,0,0,1,.64.6,1.68,1.68,0,0,1,.23.86,1.71,1.71,0,0,1-.23.87,1.76,1.76,0,0,1-.64.6,2.05,2.05,0,0,1-1.85,0Zm1.37-.66a.8.8,0,0,0,.31-.32,1,1,0,0,0,.12-.49,1,1,0,0,0-.12-.48.8.8,0,0,0-.31-.32.84.84,0,0,0-.45-.12.83.83,0,0,0-.44.12.74.74,0,0,0-.31.32,1,1,0,0,0-.12.48,1,1,0,0,0,.12.49.74.74,0,0,0,.31.32.83.83,0,0,0,.44.12A.84.84,0,0,0,20.85,46.43Z"/><path class="cls-1" d="M27.64,44l-1.05,3.23h-1l-.62-2-.65,2h-1L22.32,44h.94l.66,2.06L24.6,44h.84l.65,2.08L26.77,44Z"/><path class="cls-1" d="M30.57,46.53v.71H28V44h2.54v.7H28.88v.55h1.43v.68H28.88v.59Z"/><path class="cls-1" d="M28.27,33.94H4.09a2.87,2.87,0,0,1,0-5.74H28.27a2.87,2.87,0,0,1,0,5.74ZM4.09,29.74a1.33,1.33,0,0,0,0,2.66H28.27a1.33,1.33,0,1,0,0-2.66Z"/><path class="cls-1" d="M28.27,29.74H4.09a2.87,2.87,0,0,1,0-5.74H28.27a2.87,2.87,0,0,1,0,5.74ZM4.09,25.54a1.33,1.33,0,0,0,0,2.66H28.27a1.33,1.33,0,0,0,0-2.66Z"/><path class="cls-1" d="M23.73,25.54H18V16h5.74ZM19.53,24h2.66V17.53H19.53Z"/><path class="cls-1" d="M23.73,17.54H18.09l-1.3-9.83h6.94ZM19.44,16h2.75V9.25H18.55Z"/><rect class="cls-1" x="17.99" y="13.09" width="2.68" height="1.54"/><rect class="cls-1" x="17.99" y="10.47" width="2.68" height="1.54"/><path class="cls-1" d="M13.94,10.88h-3.8V0h3.8L17.4,1.64V9.23ZM11.68,9.33h1.91l2.27-1.07V2.62L13.59,1.54H11.68Z"/><rect class="cls-1" x="13" y="0.52" width="1.54" height="9.83"/><path class="cls-1" d="M26,9.25H15.86V1.36h9.26ZM17.4,7.71h6.89L23.74,2.9H17.4Z"/><polygon class="cls-1" points="30.3 11.35 27.93 6.08 24.69 6.08 24.69 4.54 28.92 4.54 31.71 10.72 30.3 11.35"/><rect class="cls-1" x="6.28" y="4.59" width="1.54" height="1.54"/><rect class="cls-1" x="3.63" y="4.59" width="1.54" height="1.54"/><rect class="cls-1" x="0.98" y="4.59" width="1.54" height="1.54"/><rect class="cls-1" x="6.53" y="1.56" width="1.54" height="1.54" transform="translate(0.51 -1.23) rotate(10)"/><rect class="cls-1" x="3.93" y="1.1" width="1.54" height="1.54" transform="translate(0.39 -0.79) rotate(10)"/><rect class="cls-1" x="1.32" y="0.64" width="1.54" height="1.54" transform="translate(0.28 -0.34) rotate(10)"/><rect class="cls-1" x="6.55" y="7.62" width="1.54" height="1.54" transform="translate(-1.35 1.4) rotate(-10)"/><rect class="cls-1" x="3.94" y="8.08" width="1.54" height="1.54" transform="translate(-1.47 0.95) rotate(-10)"/><rect class="cls-1" x="1.33" y="8.54" width="1.54" height="1.54" transform="translate(-1.58 0.51) rotate(-10)"/></g></g></svg>