<svg xmlns="http://www.w3.org/2000/svg" viewBox="0 0 33.37 47.68"><defs><style>.cls-1{fill:#1d1d1b;}</style></defs><g id="Warstwa_2" data-name="Warstwa 2"><g id="Layer_1" data-name="Layer 1"><path class="cls-1" d="M5.26,39.22v3.23H4.51L3.08,40.73v1.72H2.19V39.22h.75l1.43,1.72V39.22Z"/><path class="cls-1" d="M8.08,41.82H6.71l-.25.63H5.52L7,39.22h.9l1.43,3.23H8.33Zm-.27-.67-.42-1-.41,1Z"/><path class="cls-1" d="M11,41.59h-.5v.86H9.54V39.22H11a1.78,1.78,0,0,1,.76.14,1.15,1.15,0,0,1,.5.42,1.11,1.11,0,0,1,.18.63,1.15,1.15,0,0,1-.17.62,1,1,0,0,1-.47.4l.7,1h-1Zm.43-1.53a.67.67,0,0,0-.43-.12h-.5v.94H11a.67.67,0,0,0,.43-.12.42.42,0,0,0,.14-.35A.43.43,0,0,0,11.39,40.06Z"/><path class="cls-1" d="M15.69,41.72v.73H12.8v-.57l1.63-1.94H12.84v-.72h2.79v.57L14,41.72Z"/><path class="cls-1" d="M18.69,41.74v.71H16.1V39.22h2.53v.7H17v.55h1.44v.68H17v.59Zm-.88,1.65a.48.48,0,0,1-.18-.39.61.61,0,0,1,.19-.44,1.43,1.43,0,0,1,.55-.32l.32.21a1.92,1.92,0,0,0-.41.24.31.31,0,0,0-.12.23.18.18,0,0,0,.07.15.27.27,0,0,0,.19,0,.63.63,0,0,0,.27-.06l.12.37a.87.87,0,0,1-.23.08,1.24,1.24,0,0,1-.27,0A.76.76,0,0,1,17.81,43.39Z"/><path class="cls-1" d="M19.2,39.22h1.53a2,2,0,0,1,.94.2,1.46,1.46,0,0,1,.64.56,1.59,1.59,0,0,1,.23.85,1.62,1.62,0,0,1-.23.86,1.46,1.46,0,0,1-.64.56,2.16,2.16,0,0,1-.94.2H19.2Zm1.49,2.5a.93.93,0,0,0,.67-.24.82.82,0,0,0,.25-.65.85.85,0,0,0-.25-.65.93.93,0,0,0-.67-.23h-.57v1.77Z"/><path class="cls-1" d="M25.72,41.72v.73H22.83v-.57l1.63-1.94H22.87v-.72h2.78v.57L24,41.72Z"/><path class="cls-1" d="M26.13,39.22H27v3.23h-.91Z"/><path class="cls-1" d="M29.86,41.82H28.49l-.25.63H27.3l1.43-3.23h.9l1.43,3.23h-.95Zm-.27-.67-.42-1-.41,1Z"/><path class="cls-1" d="M2.92,46.23a.83.83,0,0,1,.16.5.74.74,0,0,1-.35.65,1.67,1.67,0,0,1-1,.23H0V44.38H1.65a1.66,1.66,0,0,1,1,.23.72.72,0,0,1,.32.61.82.82,0,0,1-.11.42.89.89,0,0,1-.32.29A.89.89,0,0,1,2.92,46.23ZM.91,45v.62h.62c.31,0,.47-.1.47-.31S1.84,45,1.53,45Zm1.24,1.58c0-.21-.16-.32-.48-.32H.91V47h.76Q2.15,47,2.15,46.62Z"/><path class="cls-1" d="M3.92,47.29a1.55,1.55,0,0,1-.4-1.12V44.38h.92v1.76c0,.52.2.78.61.78s.61-.26.61-.78V44.38h.9v1.79a1.51,1.51,0,0,1-.4,1.12A1.51,1.51,0,0,1,5,47.68,1.54,1.54,0,0,1,3.92,47.29Z"/><path class="cls-1" d="M7.18,44.38H8.71a2.13,2.13,0,0,1,.94.2,1.46,1.46,0,0,1,.64.56,1.62,1.62,0,0,1,.23.86,1.59,1.59,0,0,1-.23.85,1.46,1.46,0,0,1-.64.56,2,2,0,0,1-.94.2H7.18Zm1.5,2.5a1,1,0,0,0,.66-.23,1,1,0,0,0,0-1.31,1,1,0,0,0-.66-.23H8.1v1.77Z"/><path class="cls-1" d="M11.71,47.46a1.54,1.54,0,0,1-.64-.6,1.59,1.59,0,0,1-.24-.86,1.63,1.63,0,0,1,.24-.87,1.68,1.68,0,0,1,.64-.6,2,2,0,0,1,1.84,0,1.68,1.68,0,0,1,.64.6,1.63,1.63,0,0,1,.24.87,1.59,1.59,0,0,1-.24.86,1.54,1.54,0,0,1-.64.6,2,2,0,0,1-1.84,0Zm1.36-.66a.76.76,0,0,0,.32-.32A1.06,1.06,0,0,0,13.5,46a1.07,1.07,0,0,0-.11-.49.76.76,0,0,0-.32-.32.87.87,0,0,0-.88,0,.76.76,0,0,0-.32.32,1.07,1.07,0,0,0-.11.49,1.06,1.06,0,0,0,.11.48.76.76,0,0,0,.32.32.87.87,0,0,0,.88,0Z"/><path class="cls-1" d="M19.87,44.38l-1.05,3.23h-1l-.62-2-.65,2h-1l-1-3.23h.94l.65,2.06.68-2.06h.85l.65,2.08L19,44.38Z"/><path class="cls-1" d="M20.2,44.38h.91v2.51h1.54v.72H20.2Z"/><path class="cls-1" d="M25.22,47H23.85l-.25.63h-.94l1.43-3.23H25l1.43,3.23h-1ZM25,46.31l-.42-1-.41,1Z"/><path class="cls-1" d="M29.76,44.38v3.23H29l-1.43-1.72v1.72h-.9V44.38h.76l1.42,1.72V44.38Z"/><path class="cls-1" d="M33,46.91v.7H30.41V44.38h2.53v.71H31.31v.54h1.44v.69H31.31v.59Z"/><rect class="cls-1" x="24.66" y="15.79" width="1.54" height="7.84"/><path class="cls-1" d="M33.37,20H17.5L25.43,0ZM19.76,18.46H31.1L25.43,4.18Z"/><path class="cls-1" d="M11.41,19.94H6.77l-.23-.25c-4.85-5.32-5-8.23-5-18.52V.4h15.2v.77c0,10.29-.2,13.2-5.05,18.52Zm-4-1.54h3.28c4.14-4.62,4.41-7.24,4.42-16.46H3C3,11.16,3.31,13.78,7.45,18.4Z"/><polygon class="cls-1" points="12.53 34.31 5.83 34.31 5.83 21.32 7.51 18.57 8.83 19.37 7.37 21.75 7.37 32.77 10.99 32.77 10.99 21.77 9.52 19.56 10.8 18.7 12.53 21.3 12.53 34.31"/><path class="cls-1" d="M28.78,34.31h-6.7V25l1.34-2h4l1.34,2Zm-5.16-1.54h3.62V25.51l-.61-.9H24.24l-.62.9Z"/></g></g></svg>