<svg xmlns="http://www.w3.org/2000/svg" viewBox="0 0 32.6 47.28"><defs><style>.cls-1{fill:#1d1d1b;}</style></defs><g id="Warstwa_2" data-name="Warstwa 2"><g id="Layer_1" data-name="Layer 1"><path class="cls-1" d="M4,41.42H2.59l-.26.63H1.4l1.43-3.23h.9l1.43,3.23h-1Zm-.27-.67-.41-1-.42,1Z"/><path class="cls-1" d="M6.66,40.88l-.34.36v.81h-.9V38.82h.9v1.34l1.25-1.34h1L7.26,40.25l1.39,1.8H7.59Z"/><path class="cls-1" d="M9.48,41.9a1.54,1.54,0,0,1-.64-.6,1.74,1.74,0,0,1,0-1.73,1.54,1.54,0,0,1,.64-.6,1.91,1.91,0,0,1,.91-.22,2.08,2.08,0,0,1,.8.16,1.75,1.75,0,0,1,.59.45l-.58.53a1,1,0,0,0-.77-.38.88.88,0,0,0-.46.12.71.71,0,0,0-.32.32,1,1,0,0,0-.12.49,1,1,0,0,0,.12.48.71.71,0,0,0,.32.32.88.88,0,0,0,.46.12A1,1,0,0,0,11.2,41l.58.53a1.63,1.63,0,0,1-.59.45,2.08,2.08,0,0,1-.8.16A1.8,1.8,0,0,1,9.48,41.9Z"/><path class="cls-1" d="M14.78,41.35v.7h-2.6V38.82h2.54v.71H13.09v.54h1.44v.68H13.09v.6Z"/><path class="cls-1" d="M15.66,42a1.84,1.84,0,0,1-.6-.26l.3-.67a2.39,2.39,0,0,0,.51.23,1.87,1.87,0,0,0,.56.09c.35,0,.53-.09.53-.27a.21.21,0,0,0-.15-.2,2.35,2.35,0,0,0-.49-.14c-.24-.06-.44-.11-.61-.17a1.1,1.1,0,0,1-.42-.29.81.81,0,0,1-.17-.54.92.92,0,0,1,.16-.53,1.16,1.16,0,0,1,.48-.38,2.07,2.07,0,0,1,.79-.14,2.72,2.72,0,0,1,.63.08,1.52,1.52,0,0,1,.54.21l-.28.68a1.82,1.82,0,0,0-.89-.25.68.68,0,0,0-.4.08.24.24,0,0,0-.13.21.21.21,0,0,0,.15.19,2.55,2.55,0,0,0,.48.13,6.18,6.18,0,0,1,.61.17,1.1,1.1,0,0,1,.42.29.76.76,0,0,1,.18.53,1,1,0,0,1-.16.53,1.13,1.13,0,0,1-.49.38,2,2,0,0,1-.78.14A2.8,2.8,0,0,1,15.66,42Z"/><path class="cls-1" d="M19,41.9a1.57,1.57,0,0,1-.65-.6,1.68,1.68,0,0,1-.23-.86A1.6,1.6,0,0,1,19,39a2,2,0,0,1,1.84,0,1.68,1.68,0,0,1,.64.6,1.63,1.63,0,0,1,.24.87,1.59,1.59,0,0,1-.24.86,1.54,1.54,0,0,1-.64.6,2,2,0,0,1-1.84,0Zm1.36-.66a.82.82,0,0,0,.32-.32,1.06,1.06,0,0,0,.11-.48,1.07,1.07,0,0,0-.11-.49.82.82,0,0,0-.32-.32.87.87,0,0,0-.88,0,.76.76,0,0,0-.32.32,1,1,0,0,0-.11.49,1,1,0,0,0,.11.48.76.76,0,0,0,.32.32.87.87,0,0,0,.88,0Z"/><path class="cls-1" d="M23.6,41.19h-.5v.86h-.91V38.82h1.47a2,2,0,0,1,.77.14,1.21,1.21,0,0,1,.5.42,1.2,1.2,0,0,1,.17.64,1.13,1.13,0,0,1-.16.61,1.18,1.18,0,0,1-.47.41l.7,1h-1ZM24,39.66a.62.62,0,0,0-.42-.12H23.1v1h.51a.57.57,0,0,0,.42-.13.41.41,0,0,0,.15-.34A.45.45,0,0,0,24,39.66Z"/><path class="cls-1" d="M25.6,38.82h.92v3.23H25.6Z"/><path class="cls-1" d="M29.34,41.42H28l-.25.63h-.94l1.43-3.23h.9l1.43,3.23h-.95Zm-.27-.67-.42-1-.41,1Z"/><path class="cls-1" d="M4.68,47.22V45.5l-.84,1.4h-.4L2.6,45.55v1.67H1.76V44h.75l1.14,1.87L4.75,44h.76v3.24Z"/><path class="cls-1" d="M8.33,46.59H7l-.25.63H5.78L7.2,44h.9l1.44,3.24h-1Zm-.27-.68-.41-1-.42,1Z"/><path class="cls-1" d="M9.79,44h.92v2.51h1.54v.73H9.79Z"/><path class="cls-1" d="M14.82,46.59H13.45l-.26.63h-.93L13.69,44h.9L16,47.22h-.95Zm-.27-.68-.42-1-.41,1Z"/><path class="cls-1" d="M17.69,46.36h-.5v.86h-.91V44h1.48a1.81,1.81,0,0,1,.76.15,1.07,1.07,0,0,1,.5.41,1.14,1.14,0,0,1,.17.64,1.07,1.07,0,0,1-.63,1l.7,1h-1Zm.44-1.53a.61.61,0,0,0-.43-.13h-.51v.95h.51a.67.67,0,0,0,.43-.12.51.51,0,0,0,0-.7Z"/><path class="cls-1" d="M20.07,47.18a1.84,1.84,0,0,1-.6-.26l.3-.67a2.14,2.14,0,0,0,1.07.32c.35,0,.53-.09.53-.26a.21.21,0,0,0-.15-.21,3.6,3.6,0,0,0-.49-.14,4.68,4.68,0,0,1-.61-.17,1.1,1.1,0,0,1-.42-.29.8.8,0,0,1-.17-.53.93.93,0,0,1,.16-.54,1.07,1.07,0,0,1,.48-.37,1.89,1.89,0,0,1,.79-.14,2.7,2.7,0,0,1,.63.07,2,2,0,0,1,.54.21l-.28.68a1.86,1.86,0,0,0-.9-.25.76.76,0,0,0-.39.08.23.23,0,0,0-.13.21.2.2,0,0,0,.15.19,2.41,2.41,0,0,0,.48.14,4.27,4.27,0,0,1,.61.17,1.07,1.07,0,0,1,.42.28.77.77,0,0,1,.18.54.94.94,0,0,1-.16.52,1.06,1.06,0,0,1-.49.38,2.07,2.07,0,0,1-.79.14A2.78,2.78,0,0,1,20.07,47.18Z"/><path class="cls-1" d="M23.93,46l-.34.37v.81h-.9V44h.9v1.35L24.84,44h1l-1.32,1.43,1.39,1.81H24.86Z"/><path class="cls-1" d="M26.16,44h.92v3.24h-.92Z"/><path class="cls-1" d="M30.32,46.51v.71H27.73V44h2.53v.71H28.63v.54h1.44v.69H28.63v.59Z"/><path class="cls-1" d="M29.3,8.15H10.83V0H29.3ZM12.37,6.61H27.76V1.54H12.37Z"/><polygon class="cls-1" points="21.83 19.75 20.29 19.75 20.29 16 31.06 10.76 31.06 4.84 27.99 4.84 27.99 3.3 32.6 3.3 32.6 11.73 21.83 16.97 21.83 19.75"/><rect class="cls-1" y="21.24" width="13.21" height="1.54"/><rect class="cls-1" x="0.33" y="18.14" width="12.55" height="1.54"/><rect class="cls-1" x="3.01" y="26.63" width="1.54" height="7.29"/><rect class="cls-1" x="6.04" y="29.98" width="1.54" height="3.7"/><rect class="cls-1" x="9.13" y="28.61" width="1.54" height="5.07"/><path class="cls-1" d="M13.33,33.91H0V18.61l2.25-3.28h8.82l2.26,3.28ZM1.54,32.37H11.79V19.09l-1.53-2.22H3.06L1.54,19.09Z"/><polygon class="cls-1" points="9 16.85 7.46 16.85 7.46 1.54 5.87 1.54 5.87 16.85 4.33 16.85 4.33 0 9 0 9 16.85"/><path class="cls-1" d="M24.41,33.92h-6.7v-13l1.34-2h4l1.34,2Zm-5.16-1.54h3.62v-11l-.62-.89H19.86l-.61.89Z"/></g></g></svg>