<svg xmlns="http://www.w3.org/2000/svg" viewBox="0 0 53.45 47.3"><defs><style>.cls-1{fill:#1d1d1b;}</style></defs><g id="Warstwa_2" data-name="Warstwa 2"><g id="Layer_1" data-name="Layer 1"><path class="cls-1" d="M34.34,5.06H28.92V0h5.42ZM30.46,3.52H32.8v-2H30.46Z"/><path class="cls-1" d="M36.93,33.93H26.33V3.52h10.6Zm-9.06-1.54h7.52V5.06H27.87Z"/><path class="cls-1" d="M41.52,15.26H38.85L37.43,5.06h-2V3.52H43.1ZM39,5.06l1.19,8.6,1.16-8.6Z"/><path class="cls-1" d="M22.15,15.83h-9v-4h9Zm-7.49-1.54h5.95v-.9H14.66Z"/><path class="cls-1" d="M19.62,13.39h-4v-5h4Zm-2.43-1.54h.89V9.94h-.89Z"/><path class="cls-1" d="M24.26,33.93H11V14.29H24.26ZM12.55,32.39H22.72V15.83H12.55Z"/><path class="cls-1" d="M.87,41.92a1.54,1.54,0,0,1-.64-.6A1.66,1.66,0,0,1,0,40.45a1.71,1.71,0,0,1,.23-.87A1.59,1.59,0,0,1,.87,39a1.83,1.83,0,0,1,.91-.22,1.91,1.91,0,0,1,.8.16,1.53,1.53,0,0,1,.59.45l-.58.53a1,1,0,0,0-1.23-.27A.78.78,0,0,0,1,40a1,1,0,0,0-.12.48,1,1,0,0,0,.12.49.76.76,0,0,0,.32.32.88.88,0,0,0,.46.12A1,1,0,0,0,2.59,41l.58.52a1.66,1.66,0,0,1-.59.46,2.07,2.07,0,0,1-.8.15A1.94,1.94,0,0,1,.87,41.92Z"/><path class="cls-1" d="M6.65,38.84v3.23H5.74V40.81H4.49v1.26H3.58V38.84h.91v1.21H5.74V38.84Z"/><path class="cls-1" d="M9.9,41.36v.71H7.3V38.84H9.84v.7H8.2v.55H9.64v.68H8.2v.59Z"/><path class="cls-1" d="M13.32,42.07V40.36l-.83,1.39h-.4l-.83-1.35v1.67H10.4V38.84h.76l1.13,1.86,1.11-1.86h.75v3.23Z"/><path class="cls-1" d="M14.81,38.84h.91v3.23h-.91Z"/><path class="cls-1" d="M18.54,41.44H17.18l-.26.63H16l1.43-3.23h.9l1.43,3.23H18.8Zm-.27-.67-.41-1-.42,1Z"/><path class="cls-1" d="M22,39.56h-1v-.72h2.89v.72H23v2.51H22Z"/><path class="cls-1" d="M26.88,41.36v.71h-2.6V38.84h2.54v.7H25.19v.55h1.44v.68H25.19v.59Z"/><path class="cls-1" d="M28.08,41.92a1.52,1.52,0,0,1-.63-.6,1.66,1.66,0,0,1-.23-.87,1.71,1.71,0,0,1,.23-.87,1.56,1.56,0,0,1,.63-.59,1.87,1.87,0,0,1,.92-.22,1.91,1.91,0,0,1,.8.16,1.53,1.53,0,0,1,.59.45l-.58.53a1,1,0,0,0-.77-.38,1,1,0,0,0-.47.11.82.82,0,0,0-.31.33,1,1,0,0,0-.12.48,1,1,0,0,0,.12.49.8.8,0,0,0,.31.32.94.94,0,0,0,.47.12,1,1,0,0,0,.77-.38l.58.52a1.66,1.66,0,0,1-.59.46,2.07,2.07,0,0,1-.8.15A2,2,0,0,1,28.08,41.92Z"/><path class="cls-1" d="M33.87,38.84v3.23H33V40.81H31.71v1.26h-.92V38.84h.92v1.21H33V38.84Z"/><path class="cls-1" d="M37.59,38.84v3.23h-.75l-1.43-1.72v1.72h-.89V38.84h.75l1.43,1.72V38.84Z"/><path class="cls-1" d="M38.24,38.84h.92v3.23h-.92Z"/><path class="cls-1" d="M40.51,41.92a1.61,1.61,0,0,1-.64-.6,1.66,1.66,0,0,1-.23-.87,1.71,1.71,0,0,1,.23-.87,1.65,1.65,0,0,1,.64-.59,1.83,1.83,0,0,1,.91-.22,1.91,1.91,0,0,1,.8.16,1.53,1.53,0,0,1,.59.45l-.58.53A1,1,0,0,0,41,39.64a.78.78,0,0,0-.32.33,1,1,0,0,0-.12.48,1,1,0,0,0,.12.49.76.76,0,0,0,.32.32.88.88,0,0,0,.46.12,1,1,0,0,0,.77-.38l.58.52a1.66,1.66,0,0,1-.59.46,2.07,2.07,0,0,1-.8.15A1.94,1.94,0,0,1,40.51,41.92Z"/><path class="cls-1" d="M46,41.34v.73h-2.9V41.5l1.63-1.94H43.1v-.72h2.78v.57l-1.63,1.93Z"/><path class="cls-1" d="M49.43,38.84v3.23h-.75l-1.43-1.72v1.72h-.9V38.84h.76l1.42,1.72V38.84Z"/><path class="cls-1" d="M52.24,41.44H50.87l-.25.63h-.93l1.43-3.23H52l1.43,3.23h-1ZM52,40.77l-.41-1-.42,1Z"/><path class="cls-1" d="M8.46,44h.92v3.23H8.46Z"/><path class="cls-1" d="M14.29,45.85a.77.77,0,0,1,.16.5.73.73,0,0,1-.34.65,1.73,1.73,0,0,1-1,.23H11.37V44H13a1.65,1.65,0,0,1,.94.23.72.72,0,0,1,.32.61.76.76,0,0,1-.43.71A.84.84,0,0,1,14.29,45.85Zm-2-1.19v.62h.63c.3,0,.46-.1.46-.31s-.16-.31-.46-.31Zm1.25,1.58c0-.21-.16-.32-.48-.32h-.77v.65h.77Q13.53,46.57,13.53,46.24Z"/><path class="cls-1" d="M15.3,46.9a1.47,1.47,0,0,1-.4-1.11V44h.91v1.76c0,.52.21.78.62.78s.61-.26.61-.78V44h.9v1.79a1.39,1.39,0,0,1-1.52,1.51A1.49,1.49,0,0,1,15.3,46.9Z"/><path class="cls-1" d="M18.56,44h1.53a2.2,2.2,0,0,1,.94.2A1.57,1.57,0,0,1,21,47a2.06,2.06,0,0,1-.94.2H18.56Zm1.49,2.5a1,1,0,0,0,.67-.23,1,1,0,0,0,0-1.31,1,1,0,0,0-.67-.23h-.58V46.5Z"/><path class="cls-1" d="M23.08,47.08a1.54,1.54,0,0,1-.64-.6,1.58,1.58,0,0,1-.23-.86,1.62,1.62,0,0,1,.23-.87,1.68,1.68,0,0,1,.64-.6,2,2,0,0,1,1.84,0,1.6,1.6,0,0,1,.88,1.47,1.68,1.68,0,0,1-.23.86,1.57,1.57,0,0,1-.65.6,2,2,0,0,1-1.84,0Zm1.37-.66a.8.8,0,0,0,.31-.32,1,1,0,0,0,.12-.48,1,1,0,0,0-.12-.49.8.8,0,0,0-.31-.32.87.87,0,0,0-.45-.12.83.83,0,0,0-.44.12.74.74,0,0,0-.31.32,1,1,0,0,0-.12.49,1,1,0,0,0,.12.48.74.74,0,0,0,.31.32.83.83,0,0,0,.44.12A.87.87,0,0,0,24.45,46.42Z"/><path class="cls-1" d="M31.24,44l-1,3.23h-1l-.62-2-.64,2H27l-1-3.23h.94l.65,2.06L28.2,44H29l.65,2.08L30.37,44Z"/><path class="cls-1" d="M31.57,44h.91v2.51H34v.72H31.57Z"/><path class="cls-1" d="M36.59,46.6H35.22l-.25.63H34L35.46,44h.9l1.44,3.23h-.95Zm-.27-.67-.41-1-.42,1Z"/><path class="cls-1" d="M41.13,44v3.23h-.75L39,45.51v1.72h-.89V44h.75l1.43,1.72V44Z"/><path class="cls-1" d="M44,46.6H42.58l-.26.63h-.93L42.82,44h.9l1.43,3.23H44.2Zm-.27-.67-.42-1-.41,1Z"/></g></g></svg>